<svg width="382" height="42" viewBox="0 0 382 42" fill="none" xmlns="http://www.w3.org/2000/svg">
<rect x="-0.5" y="0.5" width="118" height="41" rx="5.5" stroke="black"/>
<path d="M28.5469 24.7734V26H22.5234V24.7734H28.5469ZM22.8281 14.625V26H21.3203V14.625H22.8281ZM27.75 19.5156V20.7422H22.5234V19.5156H27.75ZM28.4688 14.625V15.8594H22.5234V14.625H28.4688ZM31.6406 19.3516V26H30.1953V17.5469H31.5625L31.6406 19.3516ZM31.2969 21.4531L30.6953 21.4297C30.7005 20.8516 30.7865 20.3177 30.9531 19.8281C31.1198 19.3333 31.3542 18.9036 31.6562 18.5391C31.9583 18.1745 32.3177 17.8932 32.7344 17.6953C33.1562 17.4922 33.6224 17.3906 34.1328 17.3906C34.5495 17.3906 34.9245 17.4479 35.2578 17.5625C35.5911 17.6719 35.875 17.849 36.1094 18.0938C36.349 18.3385 36.5312 18.6562 36.6562 19.0469C36.7812 19.4323 36.8438 19.9036 36.8438 20.4609V26H35.3906V20.4453C35.3906 20.0026 35.3255 19.6484 35.1953 19.3828C35.0651 19.112 34.875 18.9167 34.625 18.7969C34.375 18.6719 34.0677 18.6094 33.7031 18.6094C33.3438 18.6094 33.0156 18.6849 32.7188 18.8359C32.4271 18.987 32.1745 19.1953 31.9609 19.4609C31.7526 19.7266 31.5885 20.0312 31.4688 20.375C31.3542 20.7135 31.2969 21.0729 31.2969 21.4531ZM40.4844 18.875V26H39.0391V17.5469H40.4453L40.4844 18.875ZM43.125 17.5L43.1172 18.8438C42.9974 18.8177 42.8828 18.8021 42.7734 18.7969C42.6693 18.7865 42.5495 18.7812 42.4141 18.7812C42.0807 18.7812 41.7865 18.8333 41.5312 18.9375C41.276 19.0417 41.0599 19.1875 40.8828 19.375C40.7057 19.5625 40.5651 19.7865 40.4609 20.0469C40.362 20.3021 40.2969 20.5833 40.2656 20.8906L39.8594 21.125C39.8594 20.6146 39.9089 20.1354 40.0078 19.6875C40.112 19.2396 40.2708 18.8438 40.4844 18.5C40.6979 18.151 40.9688 17.8802 41.2969 17.6875C41.6302 17.4896 42.026 17.3906 42.4844 17.3906C42.5885 17.3906 42.7083 17.4036 42.8438 17.4297C42.9792 17.4505 43.0729 17.474 43.125 17.5ZM43.9219 21.8672V21.6875C43.9219 21.0781 44.0104 20.513 44.1875 19.9922C44.3646 19.4661 44.6198 19.0104 44.9531 18.625C45.2865 18.2344 45.6901 17.9323 46.1641 17.7188C46.638 17.5 47.1693 17.3906 47.7578 17.3906C48.3516 17.3906 48.8854 17.5 49.3594 17.7188C49.8385 17.9323 50.2448 18.2344 50.5781 18.625C50.9167 19.0104 51.1745 19.4661 51.3516 19.9922C51.5286 20.513 51.6172 21.0781 51.6172 21.6875V21.8672C51.6172 22.4766 51.5286 23.0417 51.3516 23.5625C51.1745 24.0833 50.9167 24.5391 50.5781 24.9297C50.2448 25.3151 49.8411 25.6172 49.3672 25.8359C48.8984 26.0495 48.3672 26.1562 47.7734 26.1562C47.1797 26.1562 46.6458 26.0495 46.1719 25.8359C45.6979 25.6172 45.2917 25.3151 44.9531 24.9297C44.6198 24.5391 44.3646 24.0833 44.1875 23.5625C44.0104 23.0417 43.9219 22.4766 43.9219 21.8672ZM45.3672 21.6875V21.8672C45.3672 22.2891 45.4167 22.6875 45.5156 23.0625C45.6146 23.4323 45.763 23.7604 45.9609 24.0469C46.1641 24.3333 46.4167 24.5599 46.7188 24.7266C47.0208 24.888 47.3724 24.9688 47.7734 24.9688C48.1693 24.9688 48.5156 24.888 48.8125 24.7266C49.1146 24.5599 49.3646 24.3333 49.5625 24.0469C49.7604 23.7604 49.9089 23.4323 50.0078 23.0625C50.112 22.6875 50.1641 22.2891 50.1641 21.8672V21.6875C50.1641 21.2708 50.112 20.8776 50.0078 20.5078C49.9089 20.1328 49.7578 19.8021 49.5547 19.5156C49.3568 19.224 49.1068 18.9948 48.8047 18.8281C48.5078 18.6615 48.1589 18.5781 47.7578 18.5781C47.362 18.5781 47.013 18.6615 46.7109 18.8281C46.4141 18.9948 46.1641 19.224 45.9609 19.5156C45.763 19.8021 45.6146 20.1328 45.5156 20.5078C45.4167 20.8776 45.3672 21.2708 45.3672 21.6875ZM55 14V26H53.5469V14H55ZM58.8906 14V26H57.4375V14H58.8906ZM74.1484 14.625V26H72.6328L66.9062 17.2266V26H65.3984V14.625H66.9062L72.6562 23.4219V14.625H74.1484ZM76.2188 21.8672V21.6875C76.2188 21.0781 76.3073 20.513 76.4844 19.9922C76.6615 19.4661 76.9167 19.0104 77.25 18.625C77.5833 18.2344 77.987 17.9323 78.4609 17.7188C78.9349 17.5 79.4661 17.3906 80.0547 17.3906C80.6484 17.3906 81.1823 17.5 81.6562 17.7188C82.1354 17.9323 82.5417 18.2344 82.875 18.625C83.2135 19.0104 83.4714 19.4661 83.6484 19.9922C83.8255 20.513 83.9141 21.0781 83.9141 21.6875V21.8672C83.9141 22.4766 83.8255 23.0417 83.6484 23.5625C83.4714 24.0833 83.2135 24.5391 82.875 24.9297C82.5417 25.3151 82.138 25.6172 81.6641 25.8359C81.1953 26.0495 80.6641 26.1562 80.0703 26.1562C79.4766 26.1562 78.9427 26.0495 78.4688 25.8359C77.9948 25.6172 77.5885 25.3151 77.25 24.9297C76.9167 24.5391 76.6615 24.0833 76.4844 23.5625C76.3073 23.0417 76.2188 22.4766 76.2188 21.8672ZM77.6641 21.6875V21.8672C77.6641 22.2891 77.7135 22.6875 77.8125 23.0625C77.9115 23.4323 78.0599 23.7604 78.2578 24.0469C78.4609 24.3333 78.7135 24.5599 79.0156 24.7266C79.3177 24.888 79.6693 24.9688 80.0703 24.9688C80.4661 24.9688 80.8125 24.888 81.1094 24.7266C81.4115 24.5599 81.6615 24.3333 81.8594 24.0469C82.0573 23.7604 82.2057 23.4323 82.3047 23.0625C82.4089 22.6875 82.4609 22.2891 82.4609 21.8672V21.6875C82.4609 21.2708 82.4089 20.8776 82.3047 20.5078C82.2057 20.1328 82.0547 19.8021 81.8516 19.5156C81.6536 19.224 81.4036 18.9948 81.1016 18.8281C80.8047 18.6615 80.4557 18.5781 80.0547 18.5781C79.6589 18.5781 79.3099 18.6615 79.0078 18.8281C78.7109 18.9948 78.4609 19.224 78.2578 19.5156C78.0599 19.8021 77.9115 20.1328 77.8125 20.5078C77.7135 20.8776 77.6641 21.2708 77.6641 21.6875ZM87.8672 24.5L90.0391 17.5469H90.9922L90.8047 18.9297L88.5938 26H87.6641L87.8672 24.5ZM86.4062 17.5469L88.2578 24.5781L88.3906 26H87.4141L84.9609 17.5469H86.4062ZM93.0703 24.5234L94.8359 17.5469H96.2734L93.8203 26H92.8516L93.0703 24.5234ZM91.2031 17.5469L93.3281 24.3828L93.5703 26H92.6484L90.375 18.9141L90.1875 17.5469H91.2031Z" fill="black"/>
<path d="M158.383 12.8047V15.1406H157.18V12.8047H158.383ZM158.234 25.5625V27.6562H157.039V25.5625H158.234ZM159.414 23.0391C159.414 22.737 159.352 22.474 159.227 22.25C159.107 22.0208 158.909 21.8151 158.633 21.6328C158.357 21.4453 157.987 21.2708 157.523 21.1094C156.857 20.875 156.273 20.612 155.773 20.3203C155.279 20.0234 154.893 19.6589 154.617 19.2266C154.346 18.7891 154.211 18.2448 154.211 17.5938C154.211 16.9531 154.357 16.3984 154.648 15.9297C154.945 15.4609 155.357 15.099 155.883 14.8438C156.409 14.5885 157.023 14.4609 157.727 14.4609C158.268 14.4609 158.755 14.5417 159.188 14.7031C159.625 14.8646 159.997 15.1016 160.305 15.4141C160.612 15.7266 160.846 16.112 161.008 16.5703C161.174 17.0234 161.258 17.5443 161.258 18.1328H159.383C159.383 17.7995 159.344 17.5026 159.266 17.2422C159.193 16.9766 159.083 16.7526 158.938 16.5703C158.792 16.3828 158.615 16.2396 158.406 16.1406C158.203 16.0417 157.971 15.9922 157.711 15.9922C157.341 15.9922 157.036 16.0625 156.797 16.2031C156.557 16.3385 156.38 16.526 156.266 16.7656C156.156 17.0052 156.102 17.2786 156.102 17.5859C156.102 17.8828 156.159 18.1432 156.273 18.3672C156.388 18.5911 156.583 18.7943 156.859 18.9766C157.141 19.1536 157.526 19.3333 158.016 19.5156C158.688 19.7552 159.268 20.0234 159.758 20.3203C160.253 20.612 160.633 20.974 160.898 21.4062C161.169 21.8333 161.305 22.3724 161.305 23.0234C161.305 23.6953 161.148 24.2656 160.836 24.7344C160.529 25.2031 160.096 25.5599 159.539 25.8047C158.987 26.0443 158.344 26.1641 157.609 26.1641C157.146 26.1641 156.685 26.1042 156.227 25.9844C155.773 25.8594 155.362 25.6562 154.992 25.375C154.622 25.0938 154.328 24.7214 154.109 24.2578C153.891 23.7891 153.781 23.2161 153.781 22.5391H155.672C155.672 22.9453 155.727 23.2839 155.836 23.5547C155.945 23.8255 156.094 24.0391 156.281 24.1953C156.469 24.3516 156.677 24.4635 156.906 24.5312C157.141 24.599 157.375 24.6328 157.609 24.6328C158 24.6328 158.328 24.5677 158.594 24.4375C158.865 24.3021 159.068 24.1146 159.203 23.875C159.344 23.6302 159.414 23.3516 159.414 23.0391ZM170.789 21.9453V23.4453H162.586L162.523 22.3125L167.43 14.625H168.938L167.305 17.4219L164.484 21.9453H170.789ZM169.367 14.625V26H167.484V14.625H169.367ZM179.461 19.3594V21.2188C179.461 22.1094 179.372 22.8698 179.195 23.5C179.023 24.125 178.773 24.6328 178.445 25.0234C178.117 25.4141 177.724 25.7005 177.266 25.8828C176.812 26.0651 176.305 26.1562 175.742 26.1562C175.294 26.1562 174.878 26.099 174.492 25.9844C174.112 25.8698 173.768 25.6901 173.461 25.4453C173.154 25.2005 172.891 24.8854 172.672 24.5C172.458 24.1094 172.292 23.6432 172.172 23.1016C172.057 22.5599 172 21.9323 172 21.2188V19.3594C172 18.4635 172.089 17.7083 172.266 17.0938C172.443 16.474 172.695 15.9714 173.023 15.5859C173.352 15.1953 173.742 14.9115 174.195 14.7344C174.654 14.5573 175.164 14.4688 175.727 14.4688C176.18 14.4688 176.596 14.526 176.977 14.6406C177.362 14.75 177.706 14.9245 178.008 15.1641C178.315 15.4036 178.576 15.7161 178.789 16.1016C179.008 16.4818 179.174 16.9427 179.289 17.4844C179.404 18.0208 179.461 18.6458 179.461 19.3594ZM177.578 21.4844V19.0781C177.578 18.625 177.552 18.2266 177.5 17.8828C177.448 17.5339 177.37 17.2396 177.266 17C177.167 16.7552 177.042 16.5573 176.891 16.4062C176.74 16.25 176.568 16.138 176.375 16.0703C176.182 15.9974 175.966 15.9609 175.727 15.9609C175.435 15.9609 175.174 16.0182 174.945 16.1328C174.716 16.2422 174.523 16.4193 174.367 16.6641C174.211 16.9089 174.091 17.2318 174.008 17.6328C173.93 18.0286 173.891 18.5104 173.891 19.0781V21.4844C173.891 21.9427 173.917 22.3464 173.969 22.6953C174.021 23.0443 174.099 23.3438 174.203 23.5938C174.307 23.8385 174.432 24.0417 174.578 24.2031C174.729 24.3594 174.901 24.474 175.094 24.5469C175.292 24.6198 175.508 24.6562 175.742 24.6562C176.039 24.6562 176.302 24.599 176.531 24.4844C176.76 24.3698 176.953 24.1875 177.109 23.9375C177.266 23.6823 177.383 23.3516 177.461 22.9453C177.539 22.5391 177.578 22.0521 177.578 21.4844ZM188.555 19.3594V21.2188C188.555 22.1094 188.466 22.8698 188.289 23.5C188.117 24.125 187.867 24.6328 187.539 25.0234C187.211 25.4141 186.818 25.7005 186.359 25.8828C185.906 26.0651 185.398 26.1562 184.836 26.1562C184.388 26.1562 183.971 26.099 183.586 25.9844C183.206 25.8698 182.862 25.6901 182.555 25.4453C182.247 25.2005 181.984 24.8854 181.766 24.5C181.552 24.1094 181.385 23.6432 181.266 23.1016C181.151 22.5599 181.094 21.9323 181.094 21.2188V19.3594C181.094 18.4635 181.182 17.7083 181.359 17.0938C181.536 16.474 181.789 15.9714 182.117 15.5859C182.445 15.1953 182.836 14.9115 183.289 14.7344C183.747 14.5573 184.258 14.4688 184.82 14.4688C185.273 14.4688 185.69 14.526 186.07 14.6406C186.456 14.75 186.799 14.9245 187.102 15.1641C187.409 15.4036 187.669 15.7161 187.883 16.1016C188.102 16.4818 188.268 16.9427 188.383 17.4844C188.497 18.0208 188.555 18.6458 188.555 19.3594ZM186.672 21.4844V19.0781C186.672 18.625 186.646 18.2266 186.594 17.8828C186.542 17.5339 186.464 17.2396 186.359 17C186.26 16.7552 186.135 16.5573 185.984 16.4062C185.833 16.25 185.661 16.138 185.469 16.0703C185.276 15.9974 185.06 15.9609 184.82 15.9609C184.529 15.9609 184.268 16.0182 184.039 16.1328C183.81 16.2422 183.617 16.4193 183.461 16.6641C183.305 16.9089 183.185 17.2318 183.102 17.6328C183.023 18.0286 182.984 18.5104 182.984 19.0781V21.4844C182.984 21.9427 183.01 22.3464 183.062 22.6953C183.115 23.0443 183.193 23.3438 183.297 23.5938C183.401 23.8385 183.526 24.0417 183.672 24.2031C183.823 24.3594 183.995 24.474 184.188 24.5469C184.385 24.6198 184.602 24.6562 184.836 24.6562C185.133 24.6562 185.396 24.599 185.625 24.4844C185.854 24.3698 186.047 24.1875 186.203 23.9375C186.359 23.6823 186.477 23.3516 186.555 22.9453C186.633 22.5391 186.672 22.0521 186.672 21.4844Z" fill="black"/>
</svg>
