<svg width="382" height="24" viewBox="0 0 382 24" fill="none" xmlns="http://www.w3.org/2000/svg">
<path d="M4.76465 10.5635H2.22168L2.20801 9.2373H4.38867C4.76237 9.2373 5.07454 9.1849 5.3252 9.08008C5.57585 8.97526 5.76497 8.82259 5.89258 8.62207C6.02474 8.42155 6.09082 8.17773 6.09082 7.89062C6.09082 7.57161 6.0293 7.31185 5.90625 7.11133C5.78776 6.91081 5.60091 6.76497 5.3457 6.67383C5.09049 6.57812 4.76693 6.53027 4.375 6.53027H2.83008V15H0.950195V5.04688H4.375C4.9401 5.04688 5.44368 5.10156 5.88574 5.21094C6.33236 5.31576 6.71061 5.47982 7.02051 5.70312C7.3304 5.92643 7.5651 6.20671 7.72461 6.54395C7.88867 6.88118 7.9707 7.28223 7.9707 7.74707C7.9707 8.15723 7.875 8.53548 7.68359 8.88184C7.49674 9.22363 7.20736 9.50163 6.81543 9.71582C6.42806 9.93001 5.93587 10.0531 5.33887 10.085L4.76465 10.5635ZM4.68262 15H1.66797L2.4541 13.5234H4.68262C5.05632 13.5234 5.36393 13.4619 5.60547 13.3389C5.85156 13.2158 6.03385 13.0472 6.15234 12.833C6.27539 12.6143 6.33691 12.3636 6.33691 12.0811C6.33691 11.7712 6.28223 11.5023 6.17285 11.2744C6.06803 11.0465 5.89941 10.8711 5.66699 10.748C5.43913 10.625 5.13835 10.5635 4.76465 10.5635H2.80957L2.82324 9.2373H5.31152L5.74219 9.75C6.31641 9.75456 6.78353 9.86849 7.14355 10.0918C7.50814 10.3151 7.77702 10.6022 7.9502 10.9531C8.12337 11.304 8.20996 11.6823 8.20996 12.0879C8.20996 12.7259 8.07096 13.2614 7.79297 13.6943C7.51953 14.1273 7.11849 14.4531 6.58984 14.6719C6.06576 14.8906 5.43001 15 4.68262 15ZM14.1025 13.2432V7.60352H15.9209V15H14.2119L14.1025 13.2432ZM14.335 11.7119L14.8955 11.6982C14.8955 12.195 14.8408 12.653 14.7314 13.0723C14.6221 13.4915 14.4512 13.8561 14.2188 14.166C13.9909 14.4714 13.7015 14.7106 13.3506 14.8838C12.9997 15.0524 12.585 15.1367 12.1064 15.1367C11.7419 15.1367 11.4092 15.0866 11.1084 14.9863C10.8076 14.8815 10.5479 14.7197 10.3291 14.501C10.1149 14.2777 9.94857 13.9928 9.83008 13.6465C9.71159 13.2956 9.65234 12.874 9.65234 12.3818V7.60352H11.457V12.3955C11.457 12.6416 11.4844 12.8467 11.5391 13.0107C11.5983 13.1748 11.6781 13.3092 11.7783 13.4141C11.8831 13.5143 12.0039 13.5872 12.1406 13.6328C12.2819 13.6738 12.4323 13.6943 12.5918 13.6943C13.0293 13.6943 13.3734 13.6077 13.624 13.4346C13.8792 13.2568 14.0615 13.0199 14.1709 12.7236C14.2803 12.4229 14.335 12.0856 14.335 11.7119ZM21.5879 12.9766C21.5879 12.8216 21.5469 12.6826 21.4648 12.5596C21.3828 12.4365 21.2279 12.3249 21 12.2246C20.7767 12.1198 20.4486 12.0218 20.0156 11.9307C19.6328 11.8486 19.2796 11.7461 18.9561 11.623C18.6325 11.5 18.3545 11.3519 18.1221 11.1787C17.8896 11.001 17.7074 10.7936 17.5752 10.5566C17.4476 10.3151 17.3838 10.0371 17.3838 9.72266C17.3838 9.41732 17.4499 9.13021 17.582 8.86133C17.7142 8.58789 17.9056 8.34863 18.1562 8.14355C18.4069 7.93392 18.7122 7.76986 19.0723 7.65137C19.4323 7.52832 19.8379 7.4668 20.2891 7.4668C20.918 7.4668 21.458 7.56934 21.9092 7.77441C22.3649 7.97949 22.7135 8.26204 22.9551 8.62207C23.1966 8.97754 23.3174 9.37858 23.3174 9.8252H21.5127C21.5127 9.62923 21.4671 9.4515 21.376 9.29199C21.2894 9.13249 21.1549 9.00488 20.9727 8.90918C20.7904 8.80892 20.5602 8.75879 20.2822 8.75879C20.0316 8.75879 19.8197 8.7998 19.6465 8.88184C19.4779 8.96387 19.3503 9.07096 19.2637 9.20312C19.1771 9.33529 19.1338 9.48112 19.1338 9.64062C19.1338 9.75911 19.1566 9.86621 19.2021 9.96191C19.2523 10.0531 19.332 10.1374 19.4414 10.2148C19.5508 10.2923 19.6989 10.363 19.8857 10.4268C20.0771 10.4906 20.3118 10.5521 20.5898 10.6113C21.1413 10.7207 21.6221 10.8665 22.0322 11.0488C22.4469 11.2266 22.7705 11.4635 23.0029 11.7598C23.2354 12.056 23.3516 12.4342 23.3516 12.8945C23.3516 13.2227 23.2809 13.5234 23.1396 13.7969C22.9984 14.0658 22.7933 14.3005 22.5244 14.501C22.2555 14.7015 21.9342 14.8587 21.5605 14.9727C21.1868 15.082 20.7653 15.1367 20.2959 15.1367C19.6169 15.1367 19.0426 15.016 18.5732 14.7744C18.1038 14.5283 17.7484 14.2184 17.5068 13.8447C17.2653 13.4665 17.1445 13.0745 17.1445 12.6689H18.874C18.8877 12.9561 18.9652 13.1862 19.1064 13.3594C19.2477 13.5326 19.4255 13.6579 19.6396 13.7354C19.8584 13.8083 20.0885 13.8447 20.3301 13.8447C20.6035 13.8447 20.8337 13.8083 21.0205 13.7354C21.2074 13.6579 21.3486 13.5553 21.4443 13.4277C21.54 13.2956 21.5879 13.1452 21.5879 12.9766ZM26.6396 7.60352V15H24.8281V7.60352H26.6396ZM24.7051 5.66895C24.7051 5.40007 24.7962 5.17676 24.9785 4.99902C25.1654 4.82129 25.416 4.73242 25.7305 4.73242C26.0449 4.73242 26.2933 4.82129 26.4756 4.99902C26.6624 5.17676 26.7559 5.40007 26.7559 5.66895C26.7559 5.93327 26.6624 6.1543 26.4756 6.33203C26.2933 6.50977 26.0449 6.59863 25.7305 6.59863C25.416 6.59863 25.1654 6.50977 24.9785 6.33203C24.7962 6.1543 24.7051 5.93327 24.7051 5.66895ZM30.1328 9.18262V15H28.3281V7.60352H30.0234L30.1328 9.18262ZM29.8457 11.0352H29.3125C29.3171 10.4974 29.39 10.0098 29.5312 9.57227C29.6725 9.13477 29.8708 8.75879 30.126 8.44434C30.3857 8.12988 30.6934 7.88835 31.0488 7.71973C31.4043 7.55111 31.8008 7.4668 32.2383 7.4668C32.5938 7.4668 32.915 7.51693 33.2021 7.61719C33.4893 7.71745 33.7354 7.87695 33.9404 8.0957C34.1501 8.31445 34.3096 8.60156 34.4189 8.95703C34.5329 9.30794 34.5898 9.74089 34.5898 10.2559V15H32.7715V10.2422C32.7715 9.90495 32.7214 9.63835 32.6211 9.44238C32.5254 9.24642 32.3841 9.10742 32.1973 9.02539C32.015 8.94336 31.7894 8.90234 31.5205 8.90234C31.2425 8.90234 30.9987 8.95931 30.7891 9.07324C30.584 9.18262 30.4108 9.33529 30.2695 9.53125C30.1328 9.72721 30.028 9.9528 29.9551 10.208C29.8822 10.4632 29.8457 10.7389 29.8457 11.0352ZM39.5049 15.1367C38.9443 15.1367 38.4408 15.0456 37.9941 14.8633C37.5475 14.681 37.167 14.4281 36.8525 14.1045C36.5426 13.7764 36.3034 13.3958 36.1348 12.9629C35.9707 12.5254 35.8887 12.056 35.8887 11.5547V11.2812C35.8887 10.7116 35.9707 10.1943 36.1348 9.72949C36.2988 9.26009 36.5312 8.85677 36.832 8.51953C37.1328 8.18229 37.4928 7.92253 37.9121 7.74023C38.3314 7.55794 38.7939 7.4668 39.2998 7.4668C39.8239 7.4668 40.2865 7.55566 40.6875 7.7334C41.0885 7.90658 41.4235 8.15267 41.6924 8.47168C41.9613 8.79069 42.1641 9.1735 42.3008 9.62012C42.4375 10.0622 42.5059 10.5521 42.5059 11.0898V11.8486H36.709V10.6045H40.7285V10.4678C40.7194 10.1807 40.6647 9.91862 40.5645 9.68164C40.4642 9.4401 40.3092 9.2487 40.0996 9.10742C39.89 8.96159 39.6188 8.88867 39.2861 8.88867C39.0173 8.88867 38.7826 8.94792 38.582 9.06641C38.3861 9.18034 38.222 9.3444 38.0898 9.55859C37.9622 9.76823 37.8665 10.0189 37.8027 10.3105C37.7389 10.6022 37.707 10.9258 37.707 11.2812V11.5547C37.707 11.8646 37.748 12.1517 37.8301 12.416C37.9167 12.6803 38.042 12.9105 38.2061 13.1064C38.3747 13.2979 38.5752 13.4482 38.8076 13.5576C39.0446 13.6624 39.3135 13.7148 39.6143 13.7148C39.9925 13.7148 40.3343 13.6419 40.6396 13.4961C40.9495 13.3457 41.2184 13.1247 41.4463 12.833L42.3555 13.7764C42.2005 14.0042 41.9909 14.223 41.7266 14.4326C41.4668 14.6423 41.1523 14.8132 40.7832 14.9453C40.4141 15.0729 39.988 15.1367 39.5049 15.1367ZM47.7832 12.9766C47.7832 12.8216 47.7422 12.6826 47.6602 12.5596C47.5781 12.4365 47.4232 12.3249 47.1953 12.2246C46.972 12.1198 46.6439 12.0218 46.2109 11.9307C45.8281 11.8486 45.4749 11.7461 45.1514 11.623C44.8278 11.5 44.5498 11.3519 44.3174 11.1787C44.085 11.001 43.9027 10.7936 43.7705 10.5566C43.6429 10.3151 43.5791 10.0371 43.5791 9.72266C43.5791 9.41732 43.6452 9.13021 43.7773 8.86133C43.9095 8.58789 44.1009 8.34863 44.3516 8.14355C44.6022 7.93392 44.9076 7.76986 45.2676 7.65137C45.6276 7.52832 46.0332 7.4668 46.4844 7.4668C47.1133 7.4668 47.6533 7.56934 48.1045 7.77441C48.5602 7.97949 48.9089 8.26204 49.1504 8.62207C49.3919 8.97754 49.5127 9.37858 49.5127 9.8252H47.708C47.708 9.62923 47.6624 9.4515 47.5713 9.29199C47.4847 9.13249 47.3503 9.00488 47.168 8.90918C46.9857 8.80892 46.7555 8.75879 46.4775 8.75879C46.2269 8.75879 46.015 8.7998 45.8418 8.88184C45.6732 8.96387 45.5456 9.07096 45.459 9.20312C45.3724 9.33529 45.3291 9.48112 45.3291 9.64062C45.3291 9.75911 45.3519 9.86621 45.3975 9.96191C45.4476 10.0531 45.5273 10.1374 45.6367 10.2148C45.7461 10.2923 45.8942 10.363 46.0811 10.4268C46.2725 10.4906 46.5072 10.5521 46.7852 10.6113C47.3366 10.7207 47.8174 10.8665 48.2275 11.0488C48.6423 11.2266 48.9658 11.4635 49.1982 11.7598C49.4307 12.056 49.5469 12.4342 49.5469 12.8945C49.5469 13.2227 49.4762 13.5234 49.335 13.7969C49.1937 14.0658 48.9886 14.3005 48.7197 14.501C48.4508 14.7015 48.1296 14.8587 47.7559 14.9727C47.3822 15.082 46.9606 15.1367 46.4912 15.1367C45.8122 15.1367 45.238 15.016 44.7686 14.7744C44.2992 14.5283 43.9437 14.2184 43.7021 13.8447C43.4606 13.4665 43.3398 13.0745 43.3398 12.6689H45.0693C45.083 12.9561 45.1605 13.1862 45.3018 13.3594C45.443 13.5326 45.6208 13.6579 45.835 13.7354C46.0537 13.8083 46.2839 13.8447 46.5254 13.8447C46.7988 13.8447 47.029 13.8083 47.2158 13.7354C47.4027 13.6579 47.5439 13.5553 47.6396 13.4277C47.7354 13.2956 47.7832 13.1452 47.7832 12.9766ZM54.9883 12.9766C54.9883 12.8216 54.9473 12.6826 54.8652 12.5596C54.7832 12.4365 54.6283 12.3249 54.4004 12.2246C54.1771 12.1198 53.849 12.0218 53.416 11.9307C53.0332 11.8486 52.68 11.7461 52.3564 11.623C52.0329 11.5 51.7549 11.3519 51.5225 11.1787C51.29 11.001 51.1077 10.7936 50.9756 10.5566C50.848 10.3151 50.7842 10.0371 50.7842 9.72266C50.7842 9.41732 50.8503 9.13021 50.9824 8.86133C51.1146 8.58789 51.306 8.34863 51.5566 8.14355C51.8073 7.93392 52.1126 7.76986 52.4727 7.65137C52.8327 7.52832 53.2383 7.4668 53.6895 7.4668C54.3184 7.4668 54.8584 7.56934 55.3096 7.77441C55.7653 7.97949 56.1139 8.26204 56.3555 8.62207C56.597 8.97754 56.7178 9.37858 56.7178 9.8252H54.9131C54.9131 9.62923 54.8675 9.4515 54.7764 9.29199C54.6898 9.13249 54.5553 9.00488 54.373 8.90918C54.1908 8.80892 53.9606 8.75879 53.6826 8.75879C53.432 8.75879 53.2201 8.7998 53.0469 8.88184C52.8783 8.96387 52.7507 9.07096 52.6641 9.20312C52.5775 9.33529 52.5342 9.48112 52.5342 9.64062C52.5342 9.75911 52.557 9.86621 52.6025 9.96191C52.6527 10.0531 52.7324 10.1374 52.8418 10.2148C52.9512 10.2923 53.0993 10.363 53.2861 10.4268C53.4775 10.4906 53.7122 10.5521 53.9902 10.6113C54.5417 10.7207 55.0225 10.8665 55.4326 11.0488C55.8473 11.2266 56.1709 11.4635 56.4033 11.7598C56.6357 12.056 56.752 12.4342 56.752 12.8945C56.752 13.2227 56.6813 13.5234 56.54 13.7969C56.3988 14.0658 56.1937 14.3005 55.9248 14.501C55.6559 14.7015 55.3346 14.8587 54.9609 14.9727C54.5872 15.082 54.1657 15.1367 53.6963 15.1367C53.0173 15.1367 52.443 15.016 51.9736 14.7744C51.5042 14.5283 51.1488 14.2184 50.9072 13.8447C50.6657 13.4665 50.5449 13.0745 50.5449 12.6689H52.2744C52.2881 12.9561 52.3656 13.1862 52.5068 13.3594C52.6481 13.5326 52.8258 13.6579 53.04 13.7354C53.2588 13.8083 53.4889 13.8447 53.7305 13.8447C54.0039 13.8447 54.234 13.8083 54.4209 13.7354C54.6077 13.6579 54.749 13.5553 54.8447 13.4277C54.9404 13.2956 54.9883 13.1452 54.9883 12.9766Z" fill="black"/>
<path d="M345.049 2.92705C345.348 2.00574 346.652 2.00574 346.951 2.92705L348.47 7.60081C348.604 8.01284 348.987 8.2918 349.421 8.2918H354.335C355.304 8.2918 355.706 9.53141 354.923 10.1008L350.947 12.9894C350.597 13.244 350.45 13.6954 350.584 14.1074L352.102 18.7812C352.402 19.7025 351.347 20.4686 350.564 19.8992L346.588 17.0106C346.237 16.756 345.763 16.756 345.412 17.0106L341.436 19.8992C340.653 20.4686 339.598 19.7025 339.898 18.7812L341.416 14.1074C341.55 13.6954 341.403 13.244 341.053 12.9894L337.077 10.1008C336.294 9.53141 336.696 8.2918 337.665 8.2918H342.579C343.013 8.2918 343.396 8.01284 343.53 7.60081L345.049 2.92705Z" fill="#D9D9D9"/>
<path d="M364.534 12.4199L363.092 12.0713L363.646 7.04688H369.121V8.54395H365.143L364.883 10.8682C365.024 10.7816 365.229 10.695 365.498 10.6084C365.771 10.5173 366.079 10.4717 366.421 10.4717C366.895 10.4717 367.319 10.5492 367.692 10.7041C368.066 10.8545 368.383 11.0732 368.643 11.3604C368.907 11.6475 369.105 11.9984 369.237 12.4131C369.374 12.8232 369.442 13.2881 369.442 13.8076C369.442 14.2633 369.374 14.6917 369.237 15.0928C369.105 15.4893 368.902 15.8424 368.629 16.1523C368.355 16.4577 368.011 16.6992 367.597 16.877C367.182 17.0501 366.694 17.1367 366.134 17.1367C365.71 17.1367 365.302 17.0752 364.91 16.9521C364.523 16.8245 364.174 16.64 363.864 16.3984C363.554 16.1523 363.306 15.8516 363.119 15.4961C362.937 15.1406 362.837 14.7327 362.818 14.2725H364.603C364.634 14.5778 364.716 14.8376 364.849 15.0518C364.981 15.266 365.154 15.43 365.368 15.5439C365.587 15.6579 365.84 15.7148 366.127 15.7148C366.387 15.7148 366.61 15.667 366.797 15.5713C366.988 15.471 367.146 15.332 367.269 15.1543C367.392 14.9766 367.483 14.7669 367.542 14.5254C367.601 14.2839 367.631 14.0195 367.631 13.7324C367.631 13.4544 367.597 13.2015 367.528 12.9736C367.46 12.7412 367.355 12.5407 367.214 12.3721C367.073 12.2035 366.895 12.0736 366.681 11.9824C366.471 11.8913 366.225 11.8457 365.942 11.8457C365.564 11.8457 365.272 11.9027 365.067 12.0166C364.867 12.1305 364.689 12.265 364.534 12.4199ZM370.912 16.1182C370.912 15.8447 371.006 15.6146 371.192 15.4277C371.379 15.2409 371.632 15.1475 371.951 15.1475C372.27 15.1475 372.523 15.2409 372.71 15.4277C372.897 15.6146 372.99 15.8447 372.99 16.1182C372.99 16.387 372.897 16.6149 372.71 16.8018C372.523 16.984 372.27 17.0752 371.951 17.0752C371.632 17.0752 371.379 16.984 371.192 16.8018C371.006 16.6149 370.912 16.387 370.912 16.1182ZM381.31 11.1689V12.8438C381.31 13.6094 381.232 14.2633 381.077 14.8057C380.922 15.348 380.699 15.7923 380.407 16.1387C380.116 16.4805 379.767 16.7334 379.361 16.8975C378.956 17.057 378.505 17.1367 378.008 17.1367C377.611 17.1367 377.242 17.0866 376.9 16.9863C376.559 16.8815 376.251 16.722 375.978 16.5078C375.709 16.2891 375.476 16.0111 375.28 15.6738C375.089 15.3366 374.941 14.9333 374.836 14.4639C374.736 13.9945 374.686 13.4544 374.686 12.8438V11.1689C374.686 10.4033 374.763 9.75163 374.918 9.21387C375.077 8.67611 375.303 8.23633 375.595 7.89453C375.886 7.55273 376.235 7.30436 376.641 7.14941C377.046 6.98991 377.497 6.91016 377.994 6.91016C378.395 6.91016 378.764 6.96029 379.102 7.06055C379.443 7.16081 379.749 7.31803 380.018 7.53223C380.291 7.74186 380.523 8.0153 380.715 8.35254C380.906 8.68522 381.052 9.08626 381.152 9.55566C381.257 10.0205 381.31 10.5583 381.31 11.1689ZM379.505 13.0898V10.916C379.505 10.5332 379.482 10.2005 379.437 9.91797C379.396 9.63086 379.334 9.38704 379.252 9.18652C379.17 8.986 379.067 8.82422 378.944 8.70117C378.821 8.57357 378.68 8.48014 378.521 8.4209C378.361 8.36165 378.186 8.33203 377.994 8.33203C377.757 8.33203 377.545 8.37988 377.358 8.47559C377.172 8.56673 377.014 8.71257 376.887 8.91309C376.759 9.11361 376.661 9.38021 376.593 9.71289C376.529 10.041 376.497 10.4421 376.497 10.916V13.0898C376.497 13.4727 376.518 13.8076 376.559 14.0947C376.604 14.3818 376.668 14.6279 376.75 14.833C376.837 15.0381 376.939 15.2067 377.058 15.3389C377.181 15.4665 377.322 15.5622 377.481 15.626C377.641 15.6852 377.816 15.7148 378.008 15.7148C378.249 15.7148 378.461 15.667 378.644 15.5713C378.83 15.4756 378.988 15.3252 379.115 15.1201C379.243 14.9105 379.339 14.6393 379.402 14.3066C379.471 13.9694 379.505 13.5638 379.505 13.0898Z" fill="black"/>
</svg>
