<svg width="911" height="44" viewBox="0 0 911 44" fill="none" xmlns="http://www.w3.org/2000/svg">
<rect width="910" height="44" fill="white"/>
<g clip-path="url(#clip0_1_769)">
<mask id="path-1-inside-1_1_769" fill="white">
<path d="M0 0H64V44H0V0Z"/>
</mask>
<path d="M64 43H0V45H64V43Z" fill="black" mask="url(#path-1-inside-1_1_769)"/>
<path d="M18.75 20.5156V21.7422H12.5938V20.5156H18.75ZM12.8281 15.625V27H11.3203V15.625H12.8281ZM20.0625 15.625V27H18.5625V15.625H20.0625ZM22.1406 22.8672V22.6875C22.1406 22.0781 22.2292 21.513 22.4062 20.9922C22.5833 20.4661 22.8385 20.0104 23.1719 19.625C23.5052 19.2344 23.9089 18.9323 24.3828 18.7188C24.8568 18.5 25.388 18.3906 25.9766 18.3906C26.5703 18.3906 27.1042 18.5 27.5781 18.7188C28.0573 18.9323 28.4635 19.2344 28.7969 19.625C29.1354 20.0104 29.3932 20.4661 29.5703 20.9922C29.7474 21.513 29.8359 22.0781 29.8359 22.6875V22.8672C29.8359 23.4766 29.7474 24.0417 29.5703 24.5625C29.3932 25.0833 29.1354 25.5391 28.7969 25.9297C28.4635 26.3151 28.0599 26.6172 27.5859 26.8359C27.1172 27.0495 26.5859 27.1562 25.9922 27.1562C25.3984 27.1562 24.8646 27.0495 24.3906 26.8359C23.9167 26.6172 23.5104 26.3151 23.1719 25.9297C22.8385 25.5391 22.5833 25.0833 22.4062 24.5625C22.2292 24.0417 22.1406 23.4766 22.1406 22.8672ZM23.5859 22.6875V22.8672C23.5859 23.2891 23.6354 23.6875 23.7344 24.0625C23.8333 24.4323 23.9818 24.7604 24.1797 25.0469C24.3828 25.3333 24.6354 25.5599 24.9375 25.7266C25.2396 25.888 25.5911 25.9688 25.9922 25.9688C26.388 25.9688 26.7344 25.888 27.0312 25.7266C27.3333 25.5599 27.5833 25.3333 27.7812 25.0469C27.9792 24.7604 28.1276 24.4323 28.2266 24.0625C28.3307 23.6875 28.3828 23.2891 28.3828 22.8672V22.6875C28.3828 22.2708 28.3307 21.8776 28.2266 21.5078C28.1276 21.1328 27.9766 20.8021 27.7734 20.5156C27.5755 20.224 27.3255 19.9948 27.0234 19.8281C26.7266 19.6615 26.3776 19.5781 25.9766 19.5781C25.5807 19.5781 25.2318 19.6615 24.9297 19.8281C24.6328 19.9948 24.3828 20.224 24.1797 20.5156C23.9818 20.8021 23.8333 21.1328 23.7344 21.5078C23.6354 21.8776 23.5859 22.2708 23.5859 22.6875ZM33.0859 20.2266V27H31.6328V18.5469H33.0078L33.0859 20.2266ZM32.7891 22.4531L32.1172 22.4297C32.1224 21.8516 32.1979 21.3177 32.3438 20.8281C32.4896 20.3333 32.7057 19.9036 32.9922 19.5391C33.2786 19.1745 33.6354 18.8932 34.0625 18.6953C34.4896 18.4922 34.9844 18.3906 35.5469 18.3906C35.9427 18.3906 36.3073 18.4479 36.6406 18.5625C36.974 18.6719 37.263 18.8464 37.5078 19.0859C37.7526 19.3255 37.9427 19.6328 38.0781 20.0078C38.2135 20.3828 38.2812 20.8359 38.2812 21.3672V27H36.8359V21.4375C36.8359 20.9948 36.7604 20.6406 36.6094 20.375C36.4635 20.1094 36.2552 19.9167 35.9844 19.7969C35.7135 19.6719 35.3958 19.6094 35.0312 19.6094C34.6042 19.6094 34.2474 19.6849 33.9609 19.8359C33.6745 19.987 33.4453 20.1953 33.2734 20.4609C33.1016 20.7266 32.9766 21.0312 32.8984 21.375C32.8255 21.7135 32.7891 22.0729 32.7891 22.4531ZM38.2656 21.6562L37.2969 21.9531C37.3021 21.4896 37.3776 21.0443 37.5234 20.6172C37.6745 20.1901 37.8906 19.8099 38.1719 19.4766C38.4583 19.1432 38.8099 18.8802 39.2266 18.6875C39.6432 18.4896 40.1198 18.3906 40.6562 18.3906C41.1094 18.3906 41.5104 18.4505 41.8594 18.5703C42.2135 18.6901 42.5104 18.875 42.75 19.125C42.9948 19.3698 43.1797 19.6849 43.3047 20.0703C43.4297 20.4557 43.4922 20.9141 43.4922 21.4453V27H42.0391V21.4297C42.0391 20.9557 41.9635 20.5885 41.8125 20.3281C41.6667 20.0625 41.4583 19.8776 41.1875 19.7734C40.9219 19.6641 40.6042 19.6094 40.2344 19.6094C39.9167 19.6094 39.6354 19.6641 39.3906 19.7734C39.1458 19.8828 38.9401 20.0339 38.7734 20.2266C38.6068 20.4141 38.4792 20.6302 38.3906 20.875C38.3073 21.1198 38.2656 21.3802 38.2656 21.6562ZM49.1875 27.1562C48.599 27.1562 48.0651 27.0573 47.5859 26.8594C47.112 26.6562 46.7031 26.3724 46.3594 26.0078C46.0208 25.6432 45.7604 25.2109 45.5781 24.7109C45.3958 24.2109 45.3047 23.6641 45.3047 23.0703V22.7422C45.3047 22.0547 45.4062 21.4427 45.6094 20.9062C45.8125 20.3646 46.0885 19.9062 46.4375 19.5312C46.7865 19.1562 47.1823 18.8724 47.625 18.6797C48.0677 18.487 48.526 18.3906 49 18.3906C49.6042 18.3906 50.125 18.4948 50.5625 18.7031C51.0052 18.9115 51.3672 19.2031 51.6484 19.5781C51.9297 19.9479 52.138 20.3854 52.2734 20.8906C52.4089 21.3906 52.4766 21.9375 52.4766 22.5312V23.1797H46.1641V22H51.0312V21.8906C51.0104 21.5156 50.9323 21.151 50.7969 20.7969C50.6667 20.4427 50.4583 20.151 50.1719 19.9219C49.8854 19.6927 49.4948 19.5781 49 19.5781C48.6719 19.5781 48.3698 19.6484 48.0938 19.7891C47.8177 19.9245 47.5807 20.1276 47.3828 20.3984C47.1849 20.6693 47.0312 21 46.9219 21.3906C46.8125 21.7812 46.7578 22.2318 46.7578 22.7422V23.0703C46.7578 23.4714 46.8125 23.849 46.9219 24.2031C47.0365 24.5521 47.2005 24.8594 47.4141 25.125C47.6328 25.3906 47.8958 25.599 48.2031 25.75C48.5156 25.901 48.8698 25.9766 49.2656 25.9766C49.776 25.9766 50.2083 25.8724 50.5625 25.6641C50.9167 25.4557 51.2266 25.1771 51.4922 24.8281L52.3672 25.5234C52.1849 25.7995 51.9531 26.0625 51.6719 26.3125C51.3906 26.5625 51.0443 26.7656 50.6328 26.9219C50.2266 27.0781 49.7448 27.1562 49.1875 27.1562Z" fill="black"/>
<path d="M114.188 23.3828H115.688C115.609 24.1016 115.404 24.7448 115.07 25.3125C114.737 25.8802 114.266 26.3307 113.656 26.6641C113.047 26.9922 112.286 27.1562 111.375 27.1562C110.708 27.1562 110.102 27.0312 109.555 26.7812C109.013 26.5312 108.547 26.1771 108.156 25.7188C107.766 25.2552 107.464 24.7005 107.25 24.0547C107.042 23.4036 106.938 22.6797 106.938 21.8828V20.75C106.938 19.9531 107.042 19.2318 107.25 18.5859C107.464 17.9349 107.768 17.3776 108.164 16.9141C108.565 16.4505 109.047 16.0938 109.609 15.8438C110.172 15.5938 110.805 15.4688 111.508 15.4688C112.367 15.4688 113.094 15.6302 113.688 15.9531C114.281 16.276 114.742 16.724 115.07 17.2969C115.404 17.8646 115.609 18.5234 115.688 19.2734H114.188C114.115 18.7422 113.979 18.2865 113.781 17.9062C113.583 17.5208 113.302 17.224 112.938 17.0156C112.573 16.8073 112.096 16.7031 111.508 16.7031C111.003 16.7031 110.557 16.7995 110.172 16.9922C109.792 17.1849 109.471 17.4583 109.211 17.8125C108.956 18.1667 108.763 18.5911 108.633 19.0859C108.503 19.5807 108.438 20.1302 108.438 20.7344V21.8828C108.438 22.4401 108.495 22.9635 108.609 23.4531C108.729 23.9427 108.909 24.3724 109.148 24.7422C109.388 25.112 109.693 25.4036 110.062 25.6172C110.432 25.8255 110.87 25.9297 111.375 25.9297C112.016 25.9297 112.526 25.8281 112.906 25.625C113.286 25.4219 113.573 25.1302 113.766 24.75C113.964 24.3698 114.104 23.9141 114.188 23.3828ZM117.141 22.8672V22.6875C117.141 22.0781 117.229 21.513 117.406 20.9922C117.583 20.4661 117.839 20.0104 118.172 19.625C118.505 19.2344 118.909 18.9323 119.383 18.7188C119.857 18.5 120.388 18.3906 120.977 18.3906C121.57 18.3906 122.104 18.5 122.578 18.7188C123.057 18.9323 123.464 19.2344 123.797 19.625C124.135 20.0104 124.393 20.4661 124.57 20.9922C124.747 21.513 124.836 22.0781 124.836 22.6875V22.8672C124.836 23.4766 124.747 24.0417 124.57 24.5625C124.393 25.0833 124.135 25.5391 123.797 25.9297C123.464 26.3151 123.06 26.6172 122.586 26.8359C122.117 27.0495 121.586 27.1562 120.992 27.1562C120.398 27.1562 119.865 27.0495 119.391 26.8359C118.917 26.6172 118.51 26.3151 118.172 25.9297C117.839 25.5391 117.583 25.0833 117.406 24.5625C117.229 24.0417 117.141 23.4766 117.141 22.8672ZM118.586 22.6875V22.8672C118.586 23.2891 118.635 23.6875 118.734 24.0625C118.833 24.4323 118.982 24.7604 119.18 25.0469C119.383 25.3333 119.635 25.5599 119.938 25.7266C120.24 25.888 120.591 25.9688 120.992 25.9688C121.388 25.9688 121.734 25.888 122.031 25.7266C122.333 25.5599 122.583 25.3333 122.781 25.0469C122.979 24.7604 123.128 24.4323 123.227 24.0625C123.331 23.6875 123.383 23.2891 123.383 22.8672V22.6875C123.383 22.2708 123.331 21.8776 123.227 21.5078C123.128 21.1328 122.977 20.8021 122.773 20.5156C122.576 20.224 122.326 19.9948 122.023 19.8281C121.727 19.6615 121.378 19.5781 120.977 19.5781C120.581 19.5781 120.232 19.6615 119.93 19.8281C119.633 19.9948 119.383 20.224 119.18 20.5156C118.982 20.8021 118.833 21.1328 118.734 21.5078C118.635 21.8776 118.586 22.2708 118.586 22.6875ZM131.82 25.0469V18.5469H133.273V27H131.891L131.82 25.0469ZM132.094 23.2656L132.695 23.25C132.695 23.8125 132.635 24.3333 132.516 24.8125C132.401 25.2865 132.214 25.6979 131.953 26.0469C131.693 26.3958 131.352 26.6693 130.93 26.8672C130.508 27.0599 129.995 27.1562 129.391 27.1562C128.979 27.1562 128.602 27.0964 128.258 26.9766C127.919 26.8568 127.628 26.6719 127.383 26.4219C127.138 26.1719 126.948 25.8464 126.812 25.4453C126.682 25.0443 126.617 24.5625 126.617 24V18.5469H128.062V24.0156C128.062 24.3958 128.104 24.7109 128.188 24.9609C128.276 25.2057 128.393 25.401 128.539 25.5469C128.69 25.6875 128.857 25.7865 129.039 25.8438C129.227 25.901 129.419 25.9297 129.617 25.9297C130.232 25.9297 130.719 25.8125 131.078 25.5781C131.438 25.3385 131.695 25.0182 131.852 24.6172C132.013 24.2109 132.094 23.7604 132.094 23.2656ZM136.922 19.875V27H135.477V18.5469H136.883L136.922 19.875ZM139.562 18.5L139.555 19.8438C139.435 19.8177 139.32 19.8021 139.211 19.7969C139.107 19.7865 138.987 19.7812 138.852 19.7812C138.518 19.7812 138.224 19.8333 137.969 19.9375C137.714 20.0417 137.497 20.1875 137.32 20.375C137.143 20.5625 137.003 20.7865 136.898 21.0469C136.799 21.3021 136.734 21.5833 136.703 21.8906L136.297 22.125C136.297 21.6146 136.346 21.1354 136.445 20.6875C136.549 20.2396 136.708 19.8438 136.922 19.5C137.135 19.151 137.406 18.8802 137.734 18.6875C138.068 18.4896 138.464 18.3906 138.922 18.3906C139.026 18.3906 139.146 18.4036 139.281 18.4297C139.417 18.4505 139.51 18.474 139.562 18.5ZM145.82 24.7578C145.82 24.5495 145.773 24.3568 145.68 24.1797C145.591 23.9974 145.406 23.8333 145.125 23.6875C144.849 23.5365 144.432 23.4062 143.875 23.2969C143.406 23.1979 142.982 23.0807 142.602 22.9453C142.227 22.8099 141.906 22.6458 141.641 22.4531C141.38 22.2604 141.18 22.0339 141.039 21.7734C140.898 21.513 140.828 21.2083 140.828 20.8594C140.828 20.526 140.901 20.2109 141.047 19.9141C141.198 19.6172 141.409 19.3542 141.68 19.125C141.956 18.8958 142.286 18.7161 142.672 18.5859C143.057 18.4557 143.487 18.3906 143.961 18.3906C144.638 18.3906 145.216 18.5104 145.695 18.75C146.174 18.9896 146.542 19.3099 146.797 19.7109C147.052 20.1068 147.18 20.5469 147.18 21.0312H145.734C145.734 20.7969 145.664 20.5703 145.523 20.3516C145.388 20.1276 145.188 19.9427 144.922 19.7969C144.661 19.651 144.341 19.5781 143.961 19.5781C143.56 19.5781 143.234 19.6406 142.984 19.7656C142.74 19.8854 142.56 20.0391 142.445 20.2266C142.336 20.4141 142.281 20.612 142.281 20.8203C142.281 20.9766 142.307 21.1172 142.359 21.2422C142.417 21.362 142.516 21.474 142.656 21.5781C142.797 21.6771 142.995 21.7708 143.25 21.8594C143.505 21.9479 143.831 22.0365 144.227 22.125C144.919 22.2812 145.49 22.4688 145.938 22.6875C146.385 22.9062 146.719 23.1745 146.938 23.4922C147.156 23.8099 147.266 24.1953 147.266 24.6484C147.266 25.0182 147.188 25.3568 147.031 25.6641C146.88 25.9714 146.659 26.237 146.367 26.4609C146.081 26.6797 145.737 26.8516 145.336 26.9766C144.94 27.0964 144.495 27.1562 144 27.1562C143.255 27.1562 142.625 27.0234 142.109 26.7578C141.594 26.4922 141.203 26.1484 140.938 25.7266C140.672 25.3047 140.539 24.8594 140.539 24.3906H141.992C142.013 24.7865 142.128 25.1016 142.336 25.3359C142.544 25.5651 142.799 25.7292 143.102 25.8281C143.404 25.9219 143.703 25.9688 144 25.9688C144.396 25.9688 144.727 25.9167 144.992 25.8125C145.263 25.7083 145.469 25.5651 145.609 25.3828C145.75 25.2005 145.82 24.9922 145.82 24.7578ZM152.672 27.1562C152.083 27.1562 151.549 27.0573 151.07 26.8594C150.596 26.6562 150.188 26.3724 149.844 26.0078C149.505 25.6432 149.245 25.2109 149.062 24.7109C148.88 24.2109 148.789 23.6641 148.789 23.0703V22.7422C148.789 22.0547 148.891 21.4427 149.094 20.9062C149.297 20.3646 149.573 19.9062 149.922 19.5312C150.271 19.1562 150.667 18.8724 151.109 18.6797C151.552 18.487 152.01 18.3906 152.484 18.3906C153.089 18.3906 153.609 18.4948 154.047 18.7031C154.49 18.9115 154.852 19.2031 155.133 19.5781C155.414 19.9479 155.622 20.3854 155.758 20.8906C155.893 21.3906 155.961 21.9375 155.961 22.5312V23.1797H149.648V22H154.516V21.8906C154.495 21.5156 154.417 21.151 154.281 20.7969C154.151 20.4427 153.943 20.151 153.656 19.9219C153.37 19.6927 152.979 19.5781 152.484 19.5781C152.156 19.5781 151.854 19.6484 151.578 19.7891C151.302 19.9245 151.065 20.1276 150.867 20.3984C150.669 20.6693 150.516 21 150.406 21.3906C150.297 21.7812 150.242 22.2318 150.242 22.7422V23.0703C150.242 23.4714 150.297 23.849 150.406 24.2031C150.521 24.5521 150.685 24.8594 150.898 25.125C151.117 25.3906 151.38 25.599 151.688 25.75C152 25.901 152.354 25.9766 152.75 25.9766C153.26 25.9766 153.693 25.8724 154.047 25.6641C154.401 25.4557 154.711 25.1771 154.977 24.8281L155.852 25.5234C155.669 25.7995 155.438 26.0625 155.156 26.3125C154.875 26.5625 154.529 26.7656 154.117 26.9219C153.711 27.0781 153.229 27.1562 152.672 27.1562ZM162.57 24.7578C162.57 24.5495 162.523 24.3568 162.43 24.1797C162.341 23.9974 162.156 23.8333 161.875 23.6875C161.599 23.5365 161.182 23.4062 160.625 23.2969C160.156 23.1979 159.732 23.0807 159.352 22.9453C158.977 22.8099 158.656 22.6458 158.391 22.4531C158.13 22.2604 157.93 22.0339 157.789 21.7734C157.648 21.513 157.578 21.2083 157.578 20.8594C157.578 20.526 157.651 20.2109 157.797 19.9141C157.948 19.6172 158.159 19.3542 158.43 19.125C158.706 18.8958 159.036 18.7161 159.422 18.5859C159.807 18.4557 160.237 18.3906 160.711 18.3906C161.388 18.3906 161.966 18.5104 162.445 18.75C162.924 18.9896 163.292 19.3099 163.547 19.7109C163.802 20.1068 163.93 20.5469 163.93 21.0312H162.484C162.484 20.7969 162.414 20.5703 162.273 20.3516C162.138 20.1276 161.938 19.9427 161.672 19.7969C161.411 19.651 161.091 19.5781 160.711 19.5781C160.31 19.5781 159.984 19.6406 159.734 19.7656C159.49 19.8854 159.31 20.0391 159.195 20.2266C159.086 20.4141 159.031 20.612 159.031 20.8203C159.031 20.9766 159.057 21.1172 159.109 21.2422C159.167 21.362 159.266 21.474 159.406 21.5781C159.547 21.6771 159.745 21.7708 160 21.8594C160.255 21.9479 160.581 22.0365 160.977 22.125C161.669 22.2812 162.24 22.4688 162.688 22.6875C163.135 22.9062 163.469 23.1745 163.688 23.4922C163.906 23.8099 164.016 24.1953 164.016 24.6484C164.016 25.0182 163.938 25.3568 163.781 25.6641C163.63 25.9714 163.409 26.237 163.117 26.4609C162.831 26.6797 162.487 26.8516 162.086 26.9766C161.69 27.0964 161.245 27.1562 160.75 27.1562C160.005 27.1562 159.375 27.0234 158.859 26.7578C158.344 26.4922 157.953 26.1484 157.688 25.7266C157.422 25.3047 157.289 24.8594 157.289 24.3906H158.742C158.763 24.7865 158.878 25.1016 159.086 25.3359C159.294 25.5651 159.549 25.7292 159.852 25.8281C160.154 25.9219 160.453 25.9688 160.75 25.9688C161.146 25.9688 161.477 25.9167 161.742 25.8125C162.013 25.7083 162.219 25.5651 162.359 25.3828C162.5 25.2005 162.57 24.9922 162.57 24.7578Z" fill="black"/>
<path d="M224.383 24.125C224.383 23.8594 224.341 23.625 224.258 23.4219C224.18 23.2135 224.039 23.026 223.836 22.8594C223.638 22.6927 223.362 22.5339 223.008 22.3828C222.659 22.2318 222.216 22.0781 221.68 21.9219C221.117 21.7552 220.609 21.5703 220.156 21.3672C219.703 21.1589 219.315 20.9219 218.992 20.6562C218.669 20.3906 218.422 20.0859 218.25 19.7422C218.078 19.3984 217.992 19.0052 217.992 18.5625C217.992 18.1198 218.083 17.7109 218.266 17.3359C218.448 16.9609 218.708 16.6354 219.047 16.3594C219.391 16.0781 219.799 15.8594 220.273 15.7031C220.747 15.5469 221.276 15.4688 221.859 15.4688C222.714 15.4688 223.438 15.6328 224.031 15.9609C224.63 16.2839 225.086 16.7083 225.398 17.2344C225.711 17.7552 225.867 18.3125 225.867 18.9062H224.367C224.367 18.4792 224.276 18.1016 224.094 17.7734C223.911 17.4401 223.635 17.1797 223.266 16.9922C222.896 16.7995 222.427 16.7031 221.859 16.7031C221.323 16.7031 220.88 16.7839 220.531 16.9453C220.182 17.1068 219.922 17.3255 219.75 17.6016C219.583 17.8776 219.5 18.1927 219.5 18.5469C219.5 18.7865 219.549 19.0052 219.648 19.2031C219.753 19.3958 219.911 19.5755 220.125 19.7422C220.344 19.9089 220.62 20.0625 220.953 20.2031C221.292 20.3438 221.695 20.4792 222.164 20.6094C222.81 20.7917 223.367 20.9948 223.836 21.2188C224.305 21.4427 224.69 21.6953 224.992 21.9766C225.299 22.2526 225.526 22.5677 225.672 22.9219C225.823 23.2708 225.898 23.6667 225.898 24.1094C225.898 24.5729 225.805 24.9922 225.617 25.3672C225.43 25.7422 225.161 26.0625 224.812 26.3281C224.464 26.5938 224.044 26.7995 223.555 26.9453C223.07 27.0859 222.529 27.1562 221.93 27.1562C221.404 27.1562 220.885 27.0833 220.375 26.9375C219.87 26.7917 219.409 26.5729 218.992 26.2812C218.581 25.9896 218.25 25.6302 218 25.2031C217.755 24.7708 217.633 24.2708 217.633 23.7031H219.133C219.133 24.0938 219.208 24.4297 219.359 24.7109C219.51 24.987 219.716 25.2161 219.977 25.3984C220.242 25.5807 220.542 25.7161 220.875 25.8047C221.214 25.888 221.565 25.9297 221.93 25.9297C222.456 25.9297 222.901 25.8568 223.266 25.7109C223.63 25.5651 223.906 25.3568 224.094 25.0859C224.286 24.8151 224.383 24.4948 224.383 24.125ZM231.109 27.1562C230.521 27.1562 229.987 27.0573 229.508 26.8594C229.034 26.6562 228.625 26.3724 228.281 26.0078C227.943 25.6432 227.682 25.2109 227.5 24.7109C227.318 24.2109 227.227 23.6641 227.227 23.0703V22.7422C227.227 22.0547 227.328 21.4427 227.531 20.9062C227.734 20.3646 228.01 19.9062 228.359 19.5312C228.708 19.1562 229.104 18.8724 229.547 18.6797C229.99 18.487 230.448 18.3906 230.922 18.3906C231.526 18.3906 232.047 18.4948 232.484 18.7031C232.927 18.9115 233.289 19.2031 233.57 19.5781C233.852 19.9479 234.06 20.3854 234.195 20.8906C234.331 21.3906 234.398 21.9375 234.398 22.5312V23.1797H228.086V22H232.953V21.8906C232.932 21.5156 232.854 21.151 232.719 20.7969C232.589 20.4427 232.38 20.151 232.094 19.9219C231.807 19.6927 231.417 19.5781 230.922 19.5781C230.594 19.5781 230.292 19.6484 230.016 19.7891C229.74 19.9245 229.503 20.1276 229.305 20.3984C229.107 20.6693 228.953 21 228.844 21.3906C228.734 21.7812 228.68 22.2318 228.68 22.7422V23.0703C228.68 23.4714 228.734 23.849 228.844 24.2031C228.958 24.5521 229.122 24.8594 229.336 25.125C229.555 25.3906 229.818 25.599 230.125 25.75C230.438 25.901 230.792 25.9766 231.188 25.9766C231.698 25.9766 232.13 25.8724 232.484 25.6641C232.839 25.4557 233.148 25.1771 233.414 24.8281L234.289 25.5234C234.107 25.7995 233.875 26.0625 233.594 26.3125C233.312 26.5625 232.966 26.7656 232.555 26.9219C232.148 27.0781 231.667 27.1562 231.109 27.1562ZM237.531 19.875V27H236.086V18.5469H237.492L237.531 19.875ZM240.172 18.5L240.164 19.8438C240.044 19.8177 239.93 19.8021 239.82 19.7969C239.716 19.7865 239.596 19.7812 239.461 19.7812C239.128 19.7812 238.833 19.8333 238.578 19.9375C238.323 20.0417 238.107 20.1875 237.93 20.375C237.753 20.5625 237.612 20.7865 237.508 21.0469C237.409 21.3021 237.344 21.5833 237.312 21.8906L236.906 22.125C236.906 21.6146 236.956 21.1354 237.055 20.6875C237.159 20.2396 237.318 19.8438 237.531 19.5C237.745 19.151 238.016 18.8802 238.344 18.6875C238.677 18.4896 239.073 18.3906 239.531 18.3906C239.635 18.3906 239.755 18.4036 239.891 18.4297C240.026 18.4505 240.12 18.474 240.172 18.5ZM244.219 25.6953L246.531 18.5469H248.008L244.969 27H244L244.219 25.6953ZM242.289 18.5469L244.672 25.7344L244.836 27H243.867L240.805 18.5469H242.289ZM250.969 18.5469V27H249.516V18.5469H250.969ZM249.406 16.3047C249.406 16.0703 249.477 15.8724 249.617 15.7109C249.763 15.5495 249.977 15.4688 250.258 15.4688C250.534 15.4688 250.745 15.5495 250.891 15.7109C251.042 15.8724 251.117 16.0703 251.117 16.3047C251.117 16.5286 251.042 16.7214 250.891 16.8828C250.745 17.0391 250.534 17.1172 250.258 17.1172C249.977 17.1172 249.763 17.0391 249.617 16.8828C249.477 16.7214 249.406 16.5286 249.406 16.3047ZM256.672 25.9688C257.016 25.9688 257.333 25.8984 257.625 25.7578C257.917 25.6172 258.156 25.4245 258.344 25.1797C258.531 24.9297 258.638 24.6458 258.664 24.3281H260.039C260.013 24.8281 259.844 25.2943 259.531 25.7266C259.224 26.1536 258.82 26.5 258.32 26.7656C257.82 27.026 257.271 27.1562 256.672 27.1562C256.036 27.1562 255.482 27.0443 255.008 26.8203C254.539 26.5964 254.148 26.2891 253.836 25.8984C253.529 25.5078 253.297 25.0599 253.141 24.5547C252.99 24.0443 252.914 23.5052 252.914 22.9375V22.6094C252.914 22.0417 252.99 21.5052 253.141 21C253.297 20.4896 253.529 20.0391 253.836 19.6484C254.148 19.2578 254.539 18.9505 255.008 18.7266C255.482 18.5026 256.036 18.3906 256.672 18.3906C257.333 18.3906 257.911 18.526 258.406 18.7969C258.901 19.0625 259.289 19.4271 259.57 19.8906C259.857 20.349 260.013 20.8698 260.039 21.4531H258.664C258.638 21.1042 258.539 20.7891 258.367 20.5078C258.201 20.2266 257.971 20.0026 257.68 19.8359C257.393 19.6641 257.057 19.5781 256.672 19.5781C256.229 19.5781 255.857 19.6667 255.555 19.8438C255.258 20.0156 255.021 20.25 254.844 20.5469C254.672 20.8385 254.547 21.1641 254.469 21.5234C254.396 21.8776 254.359 22.2396 254.359 22.6094V22.9375C254.359 23.3073 254.396 23.6719 254.469 24.0312C254.542 24.3906 254.664 24.7161 254.836 25.0078C255.013 25.2995 255.25 25.5339 255.547 25.7109C255.849 25.8828 256.224 25.9688 256.672 25.9688ZM265.172 27.1562C264.583 27.1562 264.049 27.0573 263.57 26.8594C263.096 26.6562 262.688 26.3724 262.344 26.0078C262.005 25.6432 261.745 25.2109 261.562 24.7109C261.38 24.2109 261.289 23.6641 261.289 23.0703V22.7422C261.289 22.0547 261.391 21.4427 261.594 20.9062C261.797 20.3646 262.073 19.9062 262.422 19.5312C262.771 19.1562 263.167 18.8724 263.609 18.6797C264.052 18.487 264.51 18.3906 264.984 18.3906C265.589 18.3906 266.109 18.4948 266.547 18.7031C266.99 18.9115 267.352 19.2031 267.633 19.5781C267.914 19.9479 268.122 20.3854 268.258 20.8906C268.393 21.3906 268.461 21.9375 268.461 22.5312V23.1797H262.148V22H267.016V21.8906C266.995 21.5156 266.917 21.151 266.781 20.7969C266.651 20.4427 266.443 20.151 266.156 19.9219C265.87 19.6927 265.479 19.5781 264.984 19.5781C264.656 19.5781 264.354 19.6484 264.078 19.7891C263.802 19.9245 263.565 20.1276 263.367 20.3984C263.169 20.6693 263.016 21 262.906 21.3906C262.797 21.7812 262.742 22.2318 262.742 22.7422V23.0703C262.742 23.4714 262.797 23.849 262.906 24.2031C263.021 24.5521 263.185 24.8594 263.398 25.125C263.617 25.3906 263.88 25.599 264.188 25.75C264.5 25.901 264.854 25.9766 265.25 25.9766C265.76 25.9766 266.193 25.8724 266.547 25.6641C266.901 25.4557 267.211 25.1771 267.477 24.8281L268.352 25.5234C268.169 25.7995 267.938 26.0625 267.656 26.3125C267.375 26.5625 267.029 26.7656 266.617 26.9219C266.211 27.0781 265.729 27.1562 265.172 27.1562ZM275.07 24.7578C275.07 24.5495 275.023 24.3568 274.93 24.1797C274.841 23.9974 274.656 23.8333 274.375 23.6875C274.099 23.5365 273.682 23.4062 273.125 23.2969C272.656 23.1979 272.232 23.0807 271.852 22.9453C271.477 22.8099 271.156 22.6458 270.891 22.4531C270.63 22.2604 270.43 22.0339 270.289 21.7734C270.148 21.513 270.078 21.2083 270.078 20.8594C270.078 20.526 270.151 20.2109 270.297 19.9141C270.448 19.6172 270.659 19.3542 270.93 19.125C271.206 18.8958 271.536 18.7161 271.922 18.5859C272.307 18.4557 272.737 18.3906 273.211 18.3906C273.888 18.3906 274.466 18.5104 274.945 18.75C275.424 18.9896 275.792 19.3099 276.047 19.7109C276.302 20.1068 276.43 20.5469 276.43 21.0312H274.984C274.984 20.7969 274.914 20.5703 274.773 20.3516C274.638 20.1276 274.438 19.9427 274.172 19.7969C273.911 19.651 273.591 19.5781 273.211 19.5781C272.81 19.5781 272.484 19.6406 272.234 19.7656C271.99 19.8854 271.81 20.0391 271.695 20.2266C271.586 20.4141 271.531 20.612 271.531 20.8203C271.531 20.9766 271.557 21.1172 271.609 21.2422C271.667 21.362 271.766 21.474 271.906 21.5781C272.047 21.6771 272.245 21.7708 272.5 21.8594C272.755 21.9479 273.081 22.0365 273.477 22.125C274.169 22.2812 274.74 22.4688 275.188 22.6875C275.635 22.9062 275.969 23.1745 276.188 23.4922C276.406 23.8099 276.516 24.1953 276.516 24.6484C276.516 25.0182 276.438 25.3568 276.281 25.6641C276.13 25.9714 275.909 26.237 275.617 26.4609C275.331 26.6797 274.987 26.8516 274.586 26.9766C274.19 27.0964 273.745 27.1562 273.25 27.1562C272.505 27.1562 271.875 27.0234 271.359 26.7578C270.844 26.4922 270.453 26.1484 270.188 25.7266C269.922 25.3047 269.789 24.8594 269.789 24.3906H271.242C271.263 24.7865 271.378 25.1016 271.586 25.3359C271.794 25.5651 272.049 25.7292 272.352 25.8281C272.654 25.9219 272.953 25.9688 273.25 25.9688C273.646 25.9688 273.977 25.9167 274.242 25.8125C274.513 25.7083 274.719 25.5651 274.859 25.3828C275 25.2005 275.07 24.9922 275.07 24.7578Z" fill="black"/>
<path d="M335.531 16.6328L331.766 27H330.227L334.562 15.625H335.555L335.531 16.6328ZM338.688 27L334.914 16.6328L334.891 15.625H335.883L340.234 27H338.688ZM338.492 22.7891V24.0234H332.102V22.7891H338.492ZM344.922 25.9688C345.266 25.9688 345.583 25.8984 345.875 25.7578C346.167 25.6172 346.406 25.4245 346.594 25.1797C346.781 24.9297 346.888 24.6458 346.914 24.3281H348.289C348.263 24.8281 348.094 25.2943 347.781 25.7266C347.474 26.1536 347.07 26.5 346.57 26.7656C346.07 27.026 345.521 27.1562 344.922 27.1562C344.286 27.1562 343.732 27.0443 343.258 26.8203C342.789 26.5964 342.398 26.2891 342.086 25.8984C341.779 25.5078 341.547 25.0599 341.391 24.5547C341.24 24.0443 341.164 23.5052 341.164 22.9375V22.6094C341.164 22.0417 341.24 21.5052 341.391 21C341.547 20.4896 341.779 20.0391 342.086 19.6484C342.398 19.2578 342.789 18.9505 343.258 18.7266C343.732 18.5026 344.286 18.3906 344.922 18.3906C345.583 18.3906 346.161 18.526 346.656 18.7969C347.151 19.0625 347.539 19.4271 347.82 19.8906C348.107 20.349 348.263 20.8698 348.289 21.4531H346.914C346.888 21.1042 346.789 20.7891 346.617 20.5078C346.451 20.2266 346.221 20.0026 345.93 19.8359C345.643 19.6641 345.307 19.5781 344.922 19.5781C344.479 19.5781 344.107 19.6667 343.805 19.8438C343.508 20.0156 343.271 20.25 343.094 20.5469C342.922 20.8385 342.797 21.1641 342.719 21.5234C342.646 21.8776 342.609 22.2396 342.609 22.6094V22.9375C342.609 23.3073 342.646 23.6719 342.719 24.0312C342.792 24.3906 342.914 24.7161 343.086 25.0078C343.263 25.2995 343.5 25.5339 343.797 25.7109C344.099 25.8828 344.474 25.9688 344.922 25.9688ZM351.359 15V27H349.914V15H351.359ZM351.016 22.4531L350.414 22.4297C350.419 21.8516 350.505 21.3177 350.672 20.8281C350.839 20.3333 351.073 19.9036 351.375 19.5391C351.677 19.1745 352.036 18.8932 352.453 18.6953C352.875 18.4922 353.341 18.3906 353.852 18.3906C354.268 18.3906 354.643 18.4479 354.977 18.5625C355.31 18.6719 355.594 18.849 355.828 19.0938C356.068 19.3385 356.25 19.6562 356.375 20.0469C356.5 20.4323 356.562 20.9036 356.562 21.4609V27H355.109V21.4453C355.109 21.0026 355.044 20.6484 354.914 20.3828C354.784 20.112 354.594 19.9167 354.344 19.7969C354.094 19.6719 353.786 19.6094 353.422 19.6094C353.062 19.6094 352.734 19.6849 352.438 19.8359C352.146 19.987 351.893 20.1953 351.68 20.4609C351.471 20.7266 351.307 21.0312 351.188 21.375C351.073 21.7135 351.016 22.0729 351.016 22.4531ZM360.297 18.5469V27H358.844V18.5469H360.297ZM358.734 16.3047C358.734 16.0703 358.805 15.8724 358.945 15.7109C359.091 15.5495 359.305 15.4688 359.586 15.4688C359.862 15.4688 360.073 15.5495 360.219 15.7109C360.37 15.8724 360.445 16.0703 360.445 16.3047C360.445 16.5286 360.37 16.7214 360.219 16.8828C360.073 17.0391 359.862 17.1172 359.586 17.1172C359.305 17.1172 359.091 17.0391 358.945 16.8828C358.805 16.7214 358.734 16.5286 358.734 16.3047ZM366.125 27.1562C365.536 27.1562 365.003 27.0573 364.523 26.8594C364.049 26.6562 363.641 26.3724 363.297 26.0078C362.958 25.6432 362.698 25.2109 362.516 24.7109C362.333 24.2109 362.242 23.6641 362.242 23.0703V22.7422C362.242 22.0547 362.344 21.4427 362.547 20.9062C362.75 20.3646 363.026 19.9062 363.375 19.5312C363.724 19.1562 364.12 18.8724 364.562 18.6797C365.005 18.487 365.464 18.3906 365.938 18.3906C366.542 18.3906 367.062 18.4948 367.5 18.7031C367.943 18.9115 368.305 19.2031 368.586 19.5781C368.867 19.9479 369.076 20.3854 369.211 20.8906C369.346 21.3906 369.414 21.9375 369.414 22.5312V23.1797H363.102V22H367.969V21.8906C367.948 21.5156 367.87 21.151 367.734 20.7969C367.604 20.4427 367.396 20.151 367.109 19.9219C366.823 19.6927 366.432 19.5781 365.938 19.5781C365.609 19.5781 365.307 19.6484 365.031 19.7891C364.755 19.9245 364.518 20.1276 364.32 20.3984C364.122 20.6693 363.969 21 363.859 21.3906C363.75 21.7812 363.695 22.2318 363.695 22.7422V23.0703C363.695 23.4714 363.75 23.849 363.859 24.2031C363.974 24.5521 364.138 24.8594 364.352 25.125C364.57 25.3906 364.833 25.599 365.141 25.75C365.453 25.901 365.807 25.9766 366.203 25.9766C366.714 25.9766 367.146 25.8724 367.5 25.6641C367.854 25.4557 368.164 25.1771 368.43 24.8281L369.305 25.5234C369.122 25.7995 368.891 26.0625 368.609 26.3125C368.328 26.5625 367.982 26.7656 367.57 26.9219C367.164 27.0781 366.682 27.1562 366.125 27.1562ZM373.562 25.6953L375.875 18.5469H377.352L374.312 27H373.344L373.562 25.6953ZM371.633 18.5469L374.016 25.7344L374.18 27H373.211L370.148 18.5469H371.633ZM382.141 27.1562C381.552 27.1562 381.018 27.0573 380.539 26.8594C380.065 26.6562 379.656 26.3724 379.312 26.0078C378.974 25.6432 378.714 25.2109 378.531 24.7109C378.349 24.2109 378.258 23.6641 378.258 23.0703V22.7422C378.258 22.0547 378.359 21.4427 378.562 20.9062C378.766 20.3646 379.042 19.9062 379.391 19.5312C379.74 19.1562 380.135 18.8724 380.578 18.6797C381.021 18.487 381.479 18.3906 381.953 18.3906C382.557 18.3906 383.078 18.4948 383.516 18.7031C383.958 18.9115 384.32 19.2031 384.602 19.5781C384.883 19.9479 385.091 20.3854 385.227 20.8906C385.362 21.3906 385.43 21.9375 385.43 22.5312V23.1797H379.117V22H383.984V21.8906C383.964 21.5156 383.885 21.151 383.75 20.7969C383.62 20.4427 383.411 20.151 383.125 19.9219C382.839 19.6927 382.448 19.5781 381.953 19.5781C381.625 19.5781 381.323 19.6484 381.047 19.7891C380.771 19.9245 380.534 20.1276 380.336 20.3984C380.138 20.6693 379.984 21 379.875 21.3906C379.766 21.7812 379.711 22.2318 379.711 22.7422V23.0703C379.711 23.4714 379.766 23.849 379.875 24.2031C379.99 24.5521 380.154 24.8594 380.367 25.125C380.586 25.3906 380.849 25.599 381.156 25.75C381.469 25.901 381.823 25.9766 382.219 25.9766C382.729 25.9766 383.161 25.8724 383.516 25.6641C383.87 25.4557 384.18 25.1771 384.445 24.8281L385.32 25.5234C385.138 25.7995 384.906 26.0625 384.625 26.3125C384.344 26.5625 383.997 26.7656 383.586 26.9219C383.18 27.0781 382.698 27.1562 382.141 27.1562ZM388.555 20.2266V27H387.102V18.5469H388.477L388.555 20.2266ZM388.258 22.4531L387.586 22.4297C387.591 21.8516 387.667 21.3177 387.812 20.8281C387.958 20.3333 388.174 19.9036 388.461 19.5391C388.747 19.1745 389.104 18.8932 389.531 18.6953C389.958 18.4922 390.453 18.3906 391.016 18.3906C391.411 18.3906 391.776 18.4479 392.109 18.5625C392.443 18.6719 392.732 18.8464 392.977 19.0859C393.221 19.3255 393.411 19.6328 393.547 20.0078C393.682 20.3828 393.75 20.8359 393.75 21.3672V27H392.305V21.4375C392.305 20.9948 392.229 20.6406 392.078 20.375C391.932 20.1094 391.724 19.9167 391.453 19.7969C391.182 19.6719 390.865 19.6094 390.5 19.6094C390.073 19.6094 389.716 19.6849 389.43 19.8359C389.143 19.987 388.914 20.1953 388.742 20.4609C388.57 20.7266 388.445 21.0312 388.367 21.375C388.294 21.7135 388.258 22.0729 388.258 22.4531ZM393.734 21.6562L392.766 21.9531C392.771 21.4896 392.846 21.0443 392.992 20.6172C393.143 20.1901 393.359 19.8099 393.641 19.4766C393.927 19.1432 394.279 18.8802 394.695 18.6875C395.112 18.4896 395.589 18.3906 396.125 18.3906C396.578 18.3906 396.979 18.4505 397.328 18.5703C397.682 18.6901 397.979 18.875 398.219 19.125C398.464 19.3698 398.648 19.6849 398.773 20.0703C398.898 20.4557 398.961 20.9141 398.961 21.4453V27H397.508V21.4297C397.508 20.9557 397.432 20.5885 397.281 20.3281C397.135 20.0625 396.927 19.8776 396.656 19.7734C396.391 19.6641 396.073 19.6094 395.703 19.6094C395.385 19.6094 395.104 19.6641 394.859 19.7734C394.615 19.8828 394.409 20.0339 394.242 20.2266C394.076 20.4141 393.948 20.6302 393.859 20.875C393.776 21.1198 393.734 21.3802 393.734 21.6562ZM404.656 27.1562C404.068 27.1562 403.534 27.0573 403.055 26.8594C402.581 26.6562 402.172 26.3724 401.828 26.0078C401.49 25.6432 401.229 25.2109 401.047 24.7109C400.865 24.2109 400.773 23.6641 400.773 23.0703V22.7422C400.773 22.0547 400.875 21.4427 401.078 20.9062C401.281 20.3646 401.557 19.9062 401.906 19.5312C402.255 19.1562 402.651 18.8724 403.094 18.6797C403.536 18.487 403.995 18.3906 404.469 18.3906C405.073 18.3906 405.594 18.4948 406.031 18.7031C406.474 18.9115 406.836 19.2031 407.117 19.5781C407.398 19.9479 407.607 20.3854 407.742 20.8906C407.878 21.3906 407.945 21.9375 407.945 22.5312V23.1797H401.633V22H406.5V21.8906C406.479 21.5156 406.401 21.151 406.266 20.7969C406.135 20.4427 405.927 20.151 405.641 19.9219C405.354 19.6927 404.964 19.5781 404.469 19.5781C404.141 19.5781 403.839 19.6484 403.562 19.7891C403.286 19.9245 403.049 20.1276 402.852 20.3984C402.654 20.6693 402.5 21 402.391 21.3906C402.281 21.7812 402.227 22.2318 402.227 22.7422V23.0703C402.227 23.4714 402.281 23.849 402.391 24.2031C402.505 24.5521 402.669 24.8594 402.883 25.125C403.102 25.3906 403.365 25.599 403.672 25.75C403.984 25.901 404.339 25.9766 404.734 25.9766C405.245 25.9766 405.677 25.8724 406.031 25.6641C406.385 25.4557 406.695 25.1771 406.961 24.8281L407.836 25.5234C407.654 25.7995 407.422 26.0625 407.141 26.3125C406.859 26.5625 406.513 26.7656 406.102 26.9219C405.695 27.0781 405.214 27.1562 404.656 27.1562ZM411.078 20.3516V27H409.633V18.5469H411L411.078 20.3516ZM410.734 22.4531L410.133 22.4297C410.138 21.8516 410.224 21.3177 410.391 20.8281C410.557 20.3333 410.792 19.9036 411.094 19.5391C411.396 19.1745 411.755 18.8932 412.172 18.6953C412.594 18.4922 413.06 18.3906 413.57 18.3906C413.987 18.3906 414.362 18.4479 414.695 18.5625C415.029 18.6719 415.312 18.849 415.547 19.0938C415.786 19.3385 415.969 19.6562 416.094 20.0469C416.219 20.4323 416.281 20.9036 416.281 21.4609V27H414.828V21.4453C414.828 21.0026 414.763 20.6484 414.633 20.3828C414.503 20.112 414.312 19.9167 414.062 19.7969C413.812 19.6719 413.505 19.6094 413.141 19.6094C412.781 19.6094 412.453 19.6849 412.156 19.8359C411.865 19.987 411.612 20.1953 411.398 20.4609C411.19 20.7266 411.026 21.0312 410.906 21.375C410.792 21.7135 410.734 22.0729 410.734 22.4531ZM422.016 18.5469V19.6562H417.445V18.5469H422.016ZM418.992 16.4922H420.438V24.9062C420.438 25.1927 420.482 25.4089 420.57 25.5547C420.659 25.7005 420.773 25.7969 420.914 25.8438C421.055 25.8906 421.206 25.9141 421.367 25.9141C421.487 25.9141 421.612 25.9036 421.742 25.8828C421.878 25.8568 421.979 25.8359 422.047 25.8203L422.055 27C421.94 27.0365 421.789 27.0703 421.602 27.1016C421.419 27.138 421.198 27.1562 420.938 27.1562C420.583 27.1562 420.258 27.0859 419.961 26.9453C419.664 26.8047 419.427 26.5703 419.25 26.2422C419.078 25.9089 418.992 25.4609 418.992 24.8984V16.4922Z" fill="black"/>
<path d="M480.531 16.6328L476.766 27H475.227L479.562 15.625H480.555L480.531 16.6328ZM483.688 27L479.914 16.6328L479.891 15.625H480.883L485.234 27H483.688ZM483.492 22.7891V24.0234H477.102V22.7891H483.492ZM486.531 15H487.984V25.3594L487.859 27H486.531V15ZM493.695 22.7031V22.8672C493.695 23.4818 493.622 24.0521 493.477 24.5781C493.331 25.099 493.117 25.5521 492.836 25.9375C492.555 26.3229 492.211 26.6224 491.805 26.8359C491.398 27.0495 490.932 27.1562 490.406 27.1562C489.87 27.1562 489.398 27.0651 488.992 26.8828C488.591 26.6953 488.253 26.4271 487.977 26.0781C487.701 25.7292 487.479 25.3073 487.312 24.8125C487.151 24.3177 487.039 23.7604 486.977 23.1406V22.4219C487.039 21.7969 487.151 21.237 487.312 20.7422C487.479 20.2474 487.701 19.8255 487.977 19.4766C488.253 19.1224 488.591 18.8542 488.992 18.6719C489.393 18.4844 489.859 18.3906 490.391 18.3906C490.922 18.3906 491.393 18.4948 491.805 18.7031C492.216 18.9062 492.56 19.1979 492.836 19.5781C493.117 19.9583 493.331 20.4141 493.477 20.9453C493.622 21.4714 493.695 22.0573 493.695 22.7031ZM492.242 22.8672V22.7031C492.242 22.2812 492.203 21.8854 492.125 21.5156C492.047 21.1406 491.922 20.8125 491.75 20.5312C491.578 20.2448 491.352 20.0208 491.07 19.8594C490.789 19.6927 490.443 19.6094 490.031 19.6094C489.667 19.6094 489.349 19.6719 489.078 19.7969C488.812 19.9219 488.586 20.0911 488.398 20.3047C488.211 20.513 488.057 20.7526 487.938 21.0234C487.823 21.2891 487.737 21.5651 487.68 21.8516V23.7344C487.763 24.099 487.898 24.4505 488.086 24.7891C488.279 25.1224 488.534 25.3958 488.852 25.6094C489.174 25.8229 489.573 25.9297 490.047 25.9297C490.438 25.9297 490.771 25.8516 491.047 25.6953C491.328 25.5339 491.555 25.3125 491.727 25.0312C491.904 24.75 492.034 24.4245 492.117 24.0547C492.201 23.6849 492.242 23.2891 492.242 22.8672ZM495.141 22.8672V22.6875C495.141 22.0781 495.229 21.513 495.406 20.9922C495.583 20.4661 495.839 20.0104 496.172 19.625C496.505 19.2344 496.909 18.9323 497.383 18.7188C497.857 18.5 498.388 18.3906 498.977 18.3906C499.57 18.3906 500.104 18.5 500.578 18.7188C501.057 18.9323 501.464 19.2344 501.797 19.625C502.135 20.0104 502.393 20.4661 502.57 20.9922C502.747 21.513 502.836 22.0781 502.836 22.6875V22.8672C502.836 23.4766 502.747 24.0417 502.57 24.5625C502.393 25.0833 502.135 25.5391 501.797 25.9297C501.464 26.3151 501.06 26.6172 500.586 26.8359C500.117 27.0495 499.586 27.1562 498.992 27.1562C498.398 27.1562 497.865 27.0495 497.391 26.8359C496.917 26.6172 496.51 26.3151 496.172 25.9297C495.839 25.5391 495.583 25.0833 495.406 24.5625C495.229 24.0417 495.141 23.4766 495.141 22.8672ZM496.586 22.6875V22.8672C496.586 23.2891 496.635 23.6875 496.734 24.0625C496.833 24.4323 496.982 24.7604 497.18 25.0469C497.383 25.3333 497.635 25.5599 497.938 25.7266C498.24 25.888 498.591 25.9688 498.992 25.9688C499.388 25.9688 499.734 25.888 500.031 25.7266C500.333 25.5599 500.583 25.3333 500.781 25.0469C500.979 24.7604 501.128 24.4323 501.227 24.0625C501.331 23.6875 501.383 23.2891 501.383 22.8672V22.6875C501.383 22.2708 501.331 21.8776 501.227 21.5078C501.128 21.1328 500.977 20.8021 500.773 20.5156C500.576 20.224 500.326 19.9948 500.023 19.8281C499.727 19.6615 499.378 19.5781 498.977 19.5781C498.581 19.5781 498.232 19.6615 497.93 19.8281C497.633 19.9948 497.383 20.224 497.18 20.5156C496.982 20.8021 496.833 21.1328 496.734 21.5078C496.635 21.8776 496.586 22.2708 496.586 22.6875ZM509.82 25.0469V18.5469H511.273V27H509.891L509.82 25.0469ZM510.094 23.2656L510.695 23.25C510.695 23.8125 510.635 24.3333 510.516 24.8125C510.401 25.2865 510.214 25.6979 509.953 26.0469C509.693 26.3958 509.352 26.6693 508.93 26.8672C508.508 27.0599 507.995 27.1562 507.391 27.1562C506.979 27.1562 506.602 27.0964 506.258 26.9766C505.919 26.8568 505.628 26.6719 505.383 26.4219C505.138 26.1719 504.948 25.8464 504.812 25.4453C504.682 25.0443 504.617 24.5625 504.617 24V18.5469H506.062V24.0156C506.062 24.3958 506.104 24.7109 506.188 24.9609C506.276 25.2057 506.393 25.401 506.539 25.5469C506.69 25.6875 506.857 25.7865 507.039 25.8438C507.227 25.901 507.419 25.9297 507.617 25.9297C508.232 25.9297 508.719 25.8125 509.078 25.5781C509.438 25.3385 509.695 25.0182 509.852 24.6172C510.013 24.2109 510.094 23.7604 510.094 23.2656ZM517.016 18.5469V19.6562H512.445V18.5469H517.016ZM513.992 16.4922H515.438V24.9062C515.438 25.1927 515.482 25.4089 515.57 25.5547C515.659 25.7005 515.773 25.7969 515.914 25.8438C516.055 25.8906 516.206 25.9141 516.367 25.9141C516.487 25.9141 516.612 25.9036 516.742 25.8828C516.878 25.8568 516.979 25.8359 517.047 25.8203L517.055 27C516.94 27.0365 516.789 27.0703 516.602 27.1016C516.419 27.138 516.198 27.1562 515.938 27.1562C515.583 27.1562 515.258 27.0859 514.961 26.9453C514.664 26.8047 514.427 26.5703 514.25 26.2422C514.078 25.9089 513.992 25.4609 513.992 24.8984V16.4922ZM529.406 15.625H530.906V23.3203C530.906 24.1745 530.716 24.8854 530.336 25.4531C529.956 26.0208 529.451 26.4479 528.82 26.7344C528.195 27.0156 527.516 27.1562 526.781 27.1562C526.01 27.1562 525.312 27.0156 524.688 26.7344C524.068 26.4479 523.576 26.0208 523.211 25.4531C522.852 24.8854 522.672 24.1745 522.672 23.3203V15.625H524.164V23.3203C524.164 23.9141 524.273 24.4036 524.492 24.7891C524.711 25.1745 525.016 25.4609 525.406 25.6484C525.802 25.8359 526.26 25.9297 526.781 25.9297C527.307 25.9297 527.766 25.8359 528.156 25.6484C528.552 25.4609 528.859 25.1745 529.078 24.7891C529.297 24.4036 529.406 23.9141 529.406 23.3203V15.625ZM537.977 24.7578C537.977 24.5495 537.93 24.3568 537.836 24.1797C537.747 23.9974 537.562 23.8333 537.281 23.6875C537.005 23.5365 536.589 23.4062 536.031 23.2969C535.562 23.1979 535.138 23.0807 534.758 22.9453C534.383 22.8099 534.062 22.6458 533.797 22.4531C533.536 22.2604 533.336 22.0339 533.195 21.7734C533.055 21.513 532.984 21.2083 532.984 20.8594C532.984 20.526 533.057 20.2109 533.203 19.9141C533.354 19.6172 533.565 19.3542 533.836 19.125C534.112 18.8958 534.443 18.7161 534.828 18.5859C535.214 18.4557 535.643 18.3906 536.117 18.3906C536.794 18.3906 537.372 18.5104 537.852 18.75C538.331 18.9896 538.698 19.3099 538.953 19.7109C539.208 20.1068 539.336 20.5469 539.336 21.0312H537.891C537.891 20.7969 537.82 20.5703 537.68 20.3516C537.544 20.1276 537.344 19.9427 537.078 19.7969C536.818 19.651 536.497 19.5781 536.117 19.5781C535.716 19.5781 535.391 19.6406 535.141 19.7656C534.896 19.8854 534.716 20.0391 534.602 20.2266C534.492 20.4141 534.438 20.612 534.438 20.8203C534.438 20.9766 534.464 21.1172 534.516 21.2422C534.573 21.362 534.672 21.474 534.812 21.5781C534.953 21.6771 535.151 21.7708 535.406 21.8594C535.661 21.9479 535.987 22.0365 536.383 22.125C537.076 22.2812 537.646 22.4688 538.094 22.6875C538.542 22.9062 538.875 23.1745 539.094 23.4922C539.312 23.8099 539.422 24.1953 539.422 24.6484C539.422 25.0182 539.344 25.3568 539.188 25.6641C539.036 25.9714 538.815 26.237 538.523 26.4609C538.237 26.6797 537.893 26.8516 537.492 26.9766C537.096 27.0964 536.651 27.1562 536.156 27.1562C535.411 27.1562 534.781 27.0234 534.266 26.7578C533.75 26.4922 533.359 26.1484 533.094 25.7266C532.828 25.3047 532.695 24.8594 532.695 24.3906H534.148C534.169 24.7865 534.284 25.1016 534.492 25.3359C534.701 25.5651 534.956 25.7292 535.258 25.8281C535.56 25.9219 535.859 25.9688 536.156 25.9688C536.552 25.9688 536.883 25.9167 537.148 25.8125C537.419 25.7083 537.625 25.5651 537.766 25.3828C537.906 25.2005 537.977 24.9922 537.977 24.7578Z" fill="black"/>
<path d="M598.523 15.625V27H597.039V15.625H598.523ZM602.18 15.625V16.8594H593.391V15.625H602.18ZM606.375 27.1562C605.786 27.1562 605.253 27.0573 604.773 26.8594C604.299 26.6562 603.891 26.3724 603.547 26.0078C603.208 25.6432 602.948 25.2109 602.766 24.7109C602.583 24.2109 602.492 23.6641 602.492 23.0703V22.7422C602.492 22.0547 602.594 21.4427 602.797 20.9062C603 20.3646 603.276 19.9062 603.625 19.5312C603.974 19.1562 604.37 18.8724 604.812 18.6797C605.255 18.487 605.714 18.3906 606.188 18.3906C606.792 18.3906 607.312 18.4948 607.75 18.7031C608.193 18.9115 608.555 19.2031 608.836 19.5781C609.117 19.9479 609.326 20.3854 609.461 20.8906C609.596 21.3906 609.664 21.9375 609.664 22.5312V23.1797H603.352V22H608.219V21.8906C608.198 21.5156 608.12 21.151 607.984 20.7969C607.854 20.4427 607.646 20.151 607.359 19.9219C607.073 19.6927 606.682 19.5781 606.188 19.5781C605.859 19.5781 605.557 19.6484 605.281 19.7891C605.005 19.9245 604.768 20.1276 604.57 20.3984C604.372 20.6693 604.219 21 604.109 21.3906C604 21.7812 603.945 22.2318 603.945 22.7422V23.0703C603.945 23.4714 604 23.849 604.109 24.2031C604.224 24.5521 604.388 24.8594 604.602 25.125C604.82 25.3906 605.083 25.599 605.391 25.75C605.703 25.901 606.057 25.9766 606.453 25.9766C606.964 25.9766 607.396 25.8724 607.75 25.6641C608.104 25.4557 608.414 25.1771 608.68 24.8281L609.555 25.5234C609.372 25.7995 609.141 26.0625 608.859 26.3125C608.578 26.5625 608.232 26.7656 607.82 26.9219C607.414 27.0781 606.932 27.1562 606.375 27.1562ZM616.273 24.7578C616.273 24.5495 616.227 24.3568 616.133 24.1797C616.044 23.9974 615.859 23.8333 615.578 23.6875C615.302 23.5365 614.885 23.4062 614.328 23.2969C613.859 23.1979 613.435 23.0807 613.055 22.9453C612.68 22.8099 612.359 22.6458 612.094 22.4531C611.833 22.2604 611.633 22.0339 611.492 21.7734C611.352 21.513 611.281 21.2083 611.281 20.8594C611.281 20.526 611.354 20.2109 611.5 19.9141C611.651 19.6172 611.862 19.3542 612.133 19.125C612.409 18.8958 612.74 18.7161 613.125 18.5859C613.51 18.4557 613.94 18.3906 614.414 18.3906C615.091 18.3906 615.669 18.5104 616.148 18.75C616.628 18.9896 616.995 19.3099 617.25 19.7109C617.505 20.1068 617.633 20.5469 617.633 21.0312H616.188C616.188 20.7969 616.117 20.5703 615.977 20.3516C615.841 20.1276 615.641 19.9427 615.375 19.7969C615.115 19.651 614.794 19.5781 614.414 19.5781C614.013 19.5781 613.688 19.6406 613.438 19.7656C613.193 19.8854 613.013 20.0391 612.898 20.2266C612.789 20.4141 612.734 20.612 612.734 20.8203C612.734 20.9766 612.76 21.1172 612.812 21.2422C612.87 21.362 612.969 21.474 613.109 21.5781C613.25 21.6771 613.448 21.7708 613.703 21.8594C613.958 21.9479 614.284 22.0365 614.68 22.125C615.372 22.2812 615.943 22.4688 616.391 22.6875C616.839 22.9062 617.172 23.1745 617.391 23.4922C617.609 23.8099 617.719 24.1953 617.719 24.6484C617.719 25.0182 617.641 25.3568 617.484 25.6641C617.333 25.9714 617.112 26.237 616.82 26.4609C616.534 26.6797 616.19 26.8516 615.789 26.9766C615.393 27.0964 614.948 27.1562 614.453 27.1562C613.708 27.1562 613.078 27.0234 612.562 26.7578C612.047 26.4922 611.656 26.1484 611.391 25.7266C611.125 25.3047 610.992 24.8594 610.992 24.3906H612.445C612.466 24.7865 612.581 25.1016 612.789 25.3359C612.997 25.5651 613.253 25.7292 613.555 25.8281C613.857 25.9219 614.156 25.9688 614.453 25.9688C614.849 25.9688 615.18 25.9167 615.445 25.8125C615.716 25.7083 615.922 25.5651 616.062 25.3828C616.203 25.2005 616.273 24.9922 616.273 24.7578ZM623.156 18.5469V19.6562H618.586V18.5469H623.156ZM620.133 16.4922H621.578V24.9062C621.578 25.1927 621.622 25.4089 621.711 25.5547C621.799 25.7005 621.914 25.7969 622.055 25.8438C622.195 25.8906 622.346 25.9141 622.508 25.9141C622.628 25.9141 622.753 25.9036 622.883 25.8828C623.018 25.8568 623.12 25.8359 623.188 25.8203L623.195 27C623.081 27.0365 622.93 27.0703 622.742 27.1016C622.56 27.138 622.339 27.1562 622.078 27.1562C621.724 27.1562 621.398 27.0859 621.102 26.9453C620.805 26.8047 620.568 26.5703 620.391 26.2422C620.219 25.9089 620.133 25.4609 620.133 24.8984V16.4922ZM626.422 18.5469V27H624.969V18.5469H626.422ZM624.859 16.3047C624.859 16.0703 624.93 15.8724 625.07 15.7109C625.216 15.5495 625.43 15.4688 625.711 15.4688C625.987 15.4688 626.198 15.5495 626.344 15.7109C626.495 15.8724 626.57 16.0703 626.57 16.3047C626.57 16.5286 626.495 16.7214 626.344 16.8828C626.198 17.0391 625.987 17.1172 625.711 17.1172C625.43 17.1172 625.216 17.0391 625.07 16.8828C624.93 16.7214 624.859 16.5286 624.859 16.3047ZM630.18 20.2266V27H628.727V18.5469H630.102L630.18 20.2266ZM629.883 22.4531L629.211 22.4297C629.216 21.8516 629.292 21.3177 629.438 20.8281C629.583 20.3333 629.799 19.9036 630.086 19.5391C630.372 19.1745 630.729 18.8932 631.156 18.6953C631.583 18.4922 632.078 18.3906 632.641 18.3906C633.036 18.3906 633.401 18.4479 633.734 18.5625C634.068 18.6719 634.357 18.8464 634.602 19.0859C634.846 19.3255 635.036 19.6328 635.172 20.0078C635.307 20.3828 635.375 20.8359 635.375 21.3672V27H633.93V21.4375C633.93 20.9948 633.854 20.6406 633.703 20.375C633.557 20.1094 633.349 19.9167 633.078 19.7969C632.807 19.6719 632.49 19.6094 632.125 19.6094C631.698 19.6094 631.341 19.6849 631.055 19.8359C630.768 19.987 630.539 20.1953 630.367 20.4609C630.195 20.7266 630.07 21.0312 629.992 21.375C629.919 21.7135 629.883 22.0729 629.883 22.4531ZM635.359 21.6562L634.391 21.9531C634.396 21.4896 634.471 21.0443 634.617 20.6172C634.768 20.1901 634.984 19.8099 635.266 19.4766C635.552 19.1432 635.904 18.8802 636.32 18.6875C636.737 18.4896 637.214 18.3906 637.75 18.3906C638.203 18.3906 638.604 18.4505 638.953 18.5703C639.307 18.6901 639.604 18.875 639.844 19.125C640.089 19.3698 640.273 19.6849 640.398 20.0703C640.523 20.4557 640.586 20.9141 640.586 21.4453V27H639.133V21.4297C639.133 20.9557 639.057 20.5885 638.906 20.3281C638.76 20.0625 638.552 19.8776 638.281 19.7734C638.016 19.6641 637.698 19.6094 637.328 19.6094C637.01 19.6094 636.729 19.6641 636.484 19.7734C636.24 19.8828 636.034 20.0339 635.867 20.2266C635.701 20.4141 635.573 20.6302 635.484 20.875C635.401 21.1198 635.359 21.3802 635.359 21.6562ZM642.391 22.8672V22.6875C642.391 22.0781 642.479 21.513 642.656 20.9922C642.833 20.4661 643.089 20.0104 643.422 19.625C643.755 19.2344 644.159 18.9323 644.633 18.7188C645.107 18.5 645.638 18.3906 646.227 18.3906C646.82 18.3906 647.354 18.5 647.828 18.7188C648.307 18.9323 648.714 19.2344 649.047 19.625C649.385 20.0104 649.643 20.4661 649.82 20.9922C649.997 21.513 650.086 22.0781 650.086 22.6875V22.8672C650.086 23.4766 649.997 24.0417 649.82 24.5625C649.643 25.0833 649.385 25.5391 649.047 25.9297C648.714 26.3151 648.31 26.6172 647.836 26.8359C647.367 27.0495 646.836 27.1562 646.242 27.1562C645.648 27.1562 645.115 27.0495 644.641 26.8359C644.167 26.6172 643.76 26.3151 643.422 25.9297C643.089 25.5391 642.833 25.0833 642.656 24.5625C642.479 24.0417 642.391 23.4766 642.391 22.8672ZM643.836 22.6875V22.8672C643.836 23.2891 643.885 23.6875 643.984 24.0625C644.083 24.4323 644.232 24.7604 644.43 25.0469C644.633 25.3333 644.885 25.5599 645.188 25.7266C645.49 25.888 645.841 25.9688 646.242 25.9688C646.638 25.9688 646.984 25.888 647.281 25.7266C647.583 25.5599 647.833 25.3333 648.031 25.0469C648.229 24.7604 648.378 24.4323 648.477 24.0625C648.581 23.6875 648.633 23.2891 648.633 22.8672V22.6875C648.633 22.2708 648.581 21.8776 648.477 21.5078C648.378 21.1328 648.227 20.8021 648.023 20.5156C647.826 20.224 647.576 19.9948 647.273 19.8281C646.977 19.6615 646.628 19.5781 646.227 19.5781C645.831 19.5781 645.482 19.6615 645.18 19.8281C644.883 19.9948 644.633 20.224 644.43 20.5156C644.232 20.8021 644.083 21.1328 643.984 21.5078C643.885 21.8776 643.836 22.2708 643.836 22.6875ZM653.344 20.3516V27H651.898V18.5469H653.266L653.344 20.3516ZM653 22.4531L652.398 22.4297C652.404 21.8516 652.49 21.3177 652.656 20.8281C652.823 20.3333 653.057 19.9036 653.359 19.5391C653.661 19.1745 654.021 18.8932 654.438 18.6953C654.859 18.4922 655.326 18.3906 655.836 18.3906C656.253 18.3906 656.628 18.4479 656.961 18.5625C657.294 18.6719 657.578 18.849 657.812 19.0938C658.052 19.3385 658.234 19.6562 658.359 20.0469C658.484 20.4323 658.547 20.9036 658.547 21.4609V27H657.094V21.4453C657.094 21.0026 657.029 20.6484 656.898 20.3828C656.768 20.112 656.578 19.9167 656.328 19.7969C656.078 19.6719 655.771 19.6094 655.406 19.6094C655.047 19.6094 654.719 19.6849 654.422 19.8359C654.13 19.987 653.878 20.1953 653.664 20.4609C653.456 20.7266 653.292 21.0312 653.172 21.375C653.057 21.7135 653 22.0729 653 22.4531ZM662.312 18.5469V27H660.859V18.5469H662.312ZM660.75 16.3047C660.75 16.0703 660.82 15.8724 660.961 15.7109C661.107 15.5495 661.32 15.4688 661.602 15.4688C661.878 15.4688 662.089 15.5495 662.234 15.7109C662.385 15.8724 662.461 16.0703 662.461 16.3047C662.461 16.5286 662.385 16.7214 662.234 16.8828C662.089 17.0391 661.878 17.1172 661.602 17.1172C661.32 17.1172 661.107 17.0391 660.961 16.8828C660.82 16.7214 660.75 16.5286 660.75 16.3047ZM669.617 25.5547V21.2031C669.617 20.8698 669.549 20.5807 669.414 20.3359C669.284 20.0859 669.086 19.8932 668.82 19.7578C668.555 19.6224 668.227 19.5547 667.836 19.5547C667.471 19.5547 667.151 19.6172 666.875 19.7422C666.604 19.8672 666.391 20.0312 666.234 20.2344C666.083 20.4375 666.008 20.6562 666.008 20.8906H664.562C664.562 20.5885 664.641 20.2891 664.797 19.9922C664.953 19.6953 665.177 19.4271 665.469 19.1875C665.766 18.9427 666.12 18.75 666.531 18.6094C666.948 18.4635 667.411 18.3906 667.922 18.3906C668.536 18.3906 669.078 18.4948 669.547 18.7031C670.021 18.9115 670.391 19.2266 670.656 19.6484C670.927 20.0651 671.062 20.5885 671.062 21.2188V25.1562C671.062 25.4375 671.086 25.737 671.133 26.0547C671.185 26.3724 671.26 26.6458 671.359 26.875V27H669.852C669.779 26.8333 669.721 26.612 669.68 26.3359C669.638 26.0547 669.617 25.7943 669.617 25.5547ZM669.867 21.875L669.883 22.8906H668.422C668.01 22.8906 667.643 22.9245 667.32 22.9922C666.997 23.0547 666.727 23.151 666.508 23.2812C666.289 23.4115 666.122 23.5755 666.008 23.7734C665.893 23.9661 665.836 24.1927 665.836 24.4531C665.836 24.7188 665.896 24.9609 666.016 25.1797C666.135 25.3984 666.315 25.5729 666.555 25.7031C666.799 25.8281 667.099 25.8906 667.453 25.8906C667.896 25.8906 668.286 25.7969 668.625 25.6094C668.964 25.4219 669.232 25.1927 669.43 24.9219C669.633 24.651 669.742 24.388 669.758 24.1328L670.375 24.8281C670.339 25.0469 670.24 25.2891 670.078 25.5547C669.917 25.8203 669.701 26.0755 669.43 26.3203C669.164 26.5599 668.846 26.7604 668.477 26.9219C668.112 27.0781 667.701 27.1562 667.242 27.1562C666.669 27.1562 666.167 27.0443 665.734 26.8203C665.307 26.5964 664.974 26.2969 664.734 25.9219C664.5 25.5417 664.383 25.1172 664.383 24.6484C664.383 24.1953 664.471 23.7969 664.648 23.4531C664.826 23.1042 665.081 22.8151 665.414 22.5859C665.747 22.3516 666.148 22.1745 666.617 22.0547C667.086 21.9349 667.609 21.875 668.188 21.875H669.867ZM674.906 15V27H673.453V15H674.906Z" fill="black"/>
</g>
<rect x="718.5" y="1.5" width="81" height="41" rx="5.5" stroke="black"/>
<path d="M747.219 25.7734V27H741.531V25.7734H747.219ZM741.828 15.625V27H740.32V15.625H741.828ZM748.344 22.8672V22.6875C748.344 22.0781 748.432 21.513 748.609 20.9922C748.786 20.4661 749.042 20.0104 749.375 19.625C749.708 19.2344 750.112 18.9323 750.586 18.7188C751.06 18.5 751.591 18.3906 752.18 18.3906C752.773 18.3906 753.307 18.5 753.781 18.7188C754.26 18.9323 754.667 19.2344 755 19.625C755.339 20.0104 755.596 20.4661 755.773 20.9922C755.951 21.513 756.039 22.0781 756.039 22.6875V22.8672C756.039 23.4766 755.951 24.0417 755.773 24.5625C755.596 25.0833 755.339 25.5391 755 25.9297C754.667 26.3151 754.263 26.6172 753.789 26.8359C753.32 27.0495 752.789 27.1562 752.195 27.1562C751.602 27.1562 751.068 27.0495 750.594 26.8359C750.12 26.6172 749.714 26.3151 749.375 25.9297C749.042 25.5391 748.786 25.0833 748.609 24.5625C748.432 24.0417 748.344 23.4766 748.344 22.8672ZM749.789 22.6875V22.8672C749.789 23.2891 749.839 23.6875 749.938 24.0625C750.036 24.4323 750.185 24.7604 750.383 25.0469C750.586 25.3333 750.839 25.5599 751.141 25.7266C751.443 25.888 751.794 25.9688 752.195 25.9688C752.591 25.9688 752.938 25.888 753.234 25.7266C753.536 25.5599 753.786 25.3333 753.984 25.0469C754.182 24.7604 754.331 24.4323 754.43 24.0625C754.534 23.6875 754.586 23.2891 754.586 22.8672V22.6875C754.586 22.2708 754.534 21.8776 754.43 21.5078C754.331 21.1328 754.18 20.8021 753.977 20.5156C753.779 20.224 753.529 19.9948 753.227 19.8281C752.93 19.6615 752.581 19.5781 752.18 19.5781C751.784 19.5781 751.435 19.6615 751.133 19.8281C750.836 19.9948 750.586 20.224 750.383 20.5156C750.185 20.8021 750.036 21.1328 749.938 21.5078C749.839 21.8776 749.789 22.2708 749.789 22.6875ZM763.328 18.5469H764.641V26.8203C764.641 27.5651 764.49 28.2005 764.188 28.7266C763.885 29.2526 763.464 29.651 762.922 29.9219C762.385 30.1979 761.766 30.3359 761.062 30.3359C760.771 30.3359 760.427 30.2891 760.031 30.1953C759.641 30.1068 759.255 29.9531 758.875 29.7344C758.5 29.5208 758.185 29.2318 757.93 28.8672L758.688 28.0078C759.042 28.4349 759.411 28.7318 759.797 28.8984C760.188 29.0651 760.573 29.1484 760.953 29.1484C761.411 29.1484 761.807 29.0625 762.141 28.8906C762.474 28.7188 762.732 28.4635 762.914 28.125C763.102 27.7917 763.195 27.3802 763.195 26.8906V20.4062L763.328 18.5469ZM757.508 22.8672V22.7031C757.508 22.0573 757.583 21.4714 757.734 20.9453C757.891 20.4141 758.112 19.9583 758.398 19.5781C758.69 19.1979 759.042 18.9062 759.453 18.7031C759.865 18.4948 760.328 18.3906 760.844 18.3906C761.375 18.3906 761.839 18.4844 762.234 18.6719C762.635 18.8542 762.974 19.1224 763.25 19.4766C763.531 19.8255 763.753 20.2474 763.914 20.7422C764.076 21.237 764.188 21.7969 764.25 22.4219V23.1406C764.193 23.7604 764.081 24.3177 763.914 24.8125C763.753 25.3073 763.531 25.7292 763.25 26.0781C762.974 26.4271 762.635 26.6953 762.234 26.8828C761.833 27.0651 761.365 27.1562 760.828 27.1562C760.323 27.1562 759.865 27.0495 759.453 26.8359C759.047 26.6224 758.698 26.3229 758.406 25.9375C758.115 25.5521 757.891 25.099 757.734 24.5781C757.583 24.0521 757.508 23.4818 757.508 22.8672ZM758.953 22.7031V22.8672C758.953 23.2891 758.995 23.6849 759.078 24.0547C759.167 24.4245 759.299 24.75 759.477 25.0312C759.659 25.3125 759.891 25.5339 760.172 25.6953C760.453 25.8516 760.789 25.9297 761.18 25.9297C761.659 25.9297 762.055 25.8281 762.367 25.625C762.68 25.4219 762.927 25.1536 763.109 24.8203C763.297 24.487 763.443 24.125 763.547 23.7344V21.8516C763.49 21.5651 763.401 21.2891 763.281 21.0234C763.167 20.7526 763.016 20.513 762.828 20.3047C762.646 20.0911 762.419 19.9219 762.148 19.7969C761.878 19.6719 761.56 19.6094 761.195 19.6094C760.799 19.6094 760.458 19.6927 760.172 19.8594C759.891 20.0208 759.659 20.2448 759.477 20.5312C759.299 20.8125 759.167 21.1406 759.078 21.5156C758.995 21.8854 758.953 22.2812 758.953 22.7031ZM768.406 18.5469V27H766.953V18.5469H768.406ZM766.844 16.3047C766.844 16.0703 766.914 15.8724 767.055 15.7109C767.201 15.5495 767.414 15.4688 767.695 15.4688C767.971 15.4688 768.182 15.5495 768.328 15.7109C768.479 15.8724 768.555 16.0703 768.555 16.3047C768.555 16.5286 768.479 16.7214 768.328 16.8828C768.182 17.0391 767.971 17.1172 767.695 17.1172C767.414 17.1172 767.201 17.0391 767.055 16.8828C766.914 16.7214 766.844 16.5286 766.844 16.3047ZM772.172 20.3516V27H770.727V18.5469H772.094L772.172 20.3516ZM771.828 22.4531L771.227 22.4297C771.232 21.8516 771.318 21.3177 771.484 20.8281C771.651 20.3333 771.885 19.9036 772.188 19.5391C772.49 19.1745 772.849 18.8932 773.266 18.6953C773.688 18.4922 774.154 18.3906 774.664 18.3906C775.081 18.3906 775.456 18.4479 775.789 18.5625C776.122 18.6719 776.406 18.849 776.641 19.0938C776.88 19.3385 777.062 19.6562 777.188 20.0469C777.312 20.4323 777.375 20.9036 777.375 21.4609V27H775.922V21.4453C775.922 21.0026 775.857 20.6484 775.727 20.3828C775.596 20.112 775.406 19.9167 775.156 19.7969C774.906 19.6719 774.599 19.6094 774.234 19.6094C773.875 19.6094 773.547 19.6849 773.25 19.8359C772.958 19.987 772.706 20.1953 772.492 20.4609C772.284 20.7266 772.12 21.0312 772 21.375C771.885 21.7135 771.828 22.0729 771.828 22.4531Z" fill="black"/>
<rect x="814.5" y="1.5" width="96" height="41" rx="5.5" fill="black"/>
<rect x="814.5" y="1.5" width="96" height="41" rx="5.5" stroke="black"/>
<path d="M842.383 24.125C842.383 23.8594 842.341 23.625 842.258 23.4219C842.18 23.2135 842.039 23.026 841.836 22.8594C841.638 22.6927 841.362 22.5339 841.008 22.3828C840.659 22.2318 840.216 22.0781 839.68 21.9219C839.117 21.7552 838.609 21.5703 838.156 21.3672C837.703 21.1589 837.315 20.9219 836.992 20.6562C836.669 20.3906 836.422 20.0859 836.25 19.7422C836.078 19.3984 835.992 19.0052 835.992 18.5625C835.992 18.1198 836.083 17.7109 836.266 17.3359C836.448 16.9609 836.708 16.6354 837.047 16.3594C837.391 16.0781 837.799 15.8594 838.273 15.7031C838.747 15.5469 839.276 15.4688 839.859 15.4688C840.714 15.4688 841.438 15.6328 842.031 15.9609C842.63 16.2839 843.086 16.7083 843.398 17.2344C843.711 17.7552 843.867 18.3125 843.867 18.9062H842.367C842.367 18.4792 842.276 18.1016 842.094 17.7734C841.911 17.4401 841.635 17.1797 841.266 16.9922C840.896 16.7995 840.427 16.7031 839.859 16.7031C839.323 16.7031 838.88 16.7839 838.531 16.9453C838.182 17.1068 837.922 17.3255 837.75 17.6016C837.583 17.8776 837.5 18.1927 837.5 18.5469C837.5 18.7865 837.549 19.0052 837.648 19.2031C837.753 19.3958 837.911 19.5755 838.125 19.7422C838.344 19.9089 838.62 20.0625 838.953 20.2031C839.292 20.3438 839.695 20.4792 840.164 20.6094C840.81 20.7917 841.367 20.9948 841.836 21.2188C842.305 21.4427 842.69 21.6953 842.992 21.9766C843.299 22.2526 843.526 22.5677 843.672 22.9219C843.823 23.2708 843.898 23.6667 843.898 24.1094C843.898 24.5729 843.805 24.9922 843.617 25.3672C843.43 25.7422 843.161 26.0625 842.812 26.3281C842.464 26.5938 842.044 26.7995 841.555 26.9453C841.07 27.0859 840.529 27.1562 839.93 27.1562C839.404 27.1562 838.885 27.0833 838.375 26.9375C837.87 26.7917 837.409 26.5729 836.992 26.2812C836.581 25.9896 836.25 25.6302 836 25.2031C835.755 24.7708 835.633 24.2708 835.633 23.7031H837.133C837.133 24.0938 837.208 24.4297 837.359 24.7109C837.51 24.987 837.716 25.2161 837.977 25.3984C838.242 25.5807 838.542 25.7161 838.875 25.8047C839.214 25.888 839.565 25.9297 839.93 25.9297C840.456 25.9297 840.901 25.8568 841.266 25.7109C841.63 25.5651 841.906 25.3568 842.094 25.0859C842.286 24.8151 842.383 24.4948 842.383 24.125ZM847.172 18.5469V27H845.719V18.5469H847.172ZM845.609 16.3047C845.609 16.0703 845.68 15.8724 845.82 15.7109C845.966 15.5495 846.18 15.4688 846.461 15.4688C846.737 15.4688 846.948 15.5495 847.094 15.7109C847.245 15.8724 847.32 16.0703 847.32 16.3047C847.32 16.5286 847.245 16.7214 847.094 16.8828C846.948 17.0391 846.737 17.1172 846.461 17.1172C846.18 17.1172 845.966 17.0391 845.82 16.8828C845.68 16.7214 845.609 16.5286 845.609 16.3047ZM854.969 18.5469H856.281V26.8203C856.281 27.5651 856.13 28.2005 855.828 28.7266C855.526 29.2526 855.104 29.651 854.562 29.9219C854.026 30.1979 853.406 30.3359 852.703 30.3359C852.411 30.3359 852.068 30.2891 851.672 30.1953C851.281 30.1068 850.896 29.9531 850.516 29.7344C850.141 29.5208 849.826 29.2318 849.57 28.8672L850.328 28.0078C850.682 28.4349 851.052 28.7318 851.438 28.8984C851.828 29.0651 852.214 29.1484 852.594 29.1484C853.052 29.1484 853.448 29.0625 853.781 28.8906C854.115 28.7188 854.372 28.4635 854.555 28.125C854.742 27.7917 854.836 27.3802 854.836 26.8906V20.4062L854.969 18.5469ZM849.148 22.8672V22.7031C849.148 22.0573 849.224 21.4714 849.375 20.9453C849.531 20.4141 849.753 19.9583 850.039 19.5781C850.331 19.1979 850.682 18.9062 851.094 18.7031C851.505 18.4948 851.969 18.3906 852.484 18.3906C853.016 18.3906 853.479 18.4844 853.875 18.6719C854.276 18.8542 854.615 19.1224 854.891 19.4766C855.172 19.8255 855.393 20.2474 855.555 20.7422C855.716 21.237 855.828 21.7969 855.891 22.4219V23.1406C855.833 23.7604 855.721 24.3177 855.555 24.8125C855.393 25.3073 855.172 25.7292 854.891 26.0781C854.615 26.4271 854.276 26.6953 853.875 26.8828C853.474 27.0651 853.005 27.1562 852.469 27.1562C851.964 27.1562 851.505 27.0495 851.094 26.8359C850.688 26.6224 850.339 26.3229 850.047 25.9375C849.755 25.5521 849.531 25.099 849.375 24.5781C849.224 24.0521 849.148 23.4818 849.148 22.8672ZM850.594 22.7031V22.8672C850.594 23.2891 850.635 23.6849 850.719 24.0547C850.807 24.4245 850.94 24.75 851.117 25.0312C851.299 25.3125 851.531 25.5339 851.812 25.6953C852.094 25.8516 852.43 25.9297 852.82 25.9297C853.299 25.9297 853.695 25.8281 854.008 25.625C854.32 25.4219 854.568 25.1536 854.75 24.8203C854.938 24.487 855.083 24.125 855.188 23.7344V21.8516C855.13 21.5651 855.042 21.2891 854.922 21.0234C854.807 20.7526 854.656 20.513 854.469 20.3047C854.286 20.0911 854.06 19.9219 853.789 19.7969C853.518 19.6719 853.201 19.6094 852.836 19.6094C852.44 19.6094 852.099 19.6927 851.812 19.8594C851.531 20.0208 851.299 20.2448 851.117 20.5312C850.94 20.8125 850.807 21.1406 850.719 21.5156C850.635 21.8854 850.594 22.2812 850.594 22.7031ZM859.922 20.3516V27H858.477V18.5469H859.844L859.922 20.3516ZM859.578 22.4531L858.977 22.4297C858.982 21.8516 859.068 21.3177 859.234 20.8281C859.401 20.3333 859.635 19.9036 859.938 19.5391C860.24 19.1745 860.599 18.8932 861.016 18.6953C861.438 18.4922 861.904 18.3906 862.414 18.3906C862.831 18.3906 863.206 18.4479 863.539 18.5625C863.872 18.6719 864.156 18.849 864.391 19.0938C864.63 19.3385 864.812 19.6562 864.938 20.0469C865.062 20.4323 865.125 20.9036 865.125 21.4609V27H863.672V21.4453C863.672 21.0026 863.607 20.6484 863.477 20.3828C863.346 20.112 863.156 19.9167 862.906 19.7969C862.656 19.6719 862.349 19.6094 861.984 19.6094C861.625 19.6094 861.297 19.6849 861 19.8359C860.708 19.987 860.456 20.1953 860.242 20.4609C860.034 20.7266 859.87 21.0312 859.75 21.375C859.635 21.7135 859.578 22.0729 859.578 22.4531ZM878.016 15.625H879.516V23.3203C879.516 24.1745 879.326 24.8854 878.945 25.4531C878.565 26.0208 878.06 26.4479 877.43 26.7344C876.805 27.0156 876.125 27.1562 875.391 27.1562C874.62 27.1562 873.922 27.0156 873.297 26.7344C872.677 26.4479 872.185 26.0208 871.82 25.4531C871.461 24.8854 871.281 24.1745 871.281 23.3203V15.625H872.773V23.3203C872.773 23.9141 872.883 24.4036 873.102 24.7891C873.32 25.1745 873.625 25.4609 874.016 25.6484C874.411 25.8359 874.87 25.9297 875.391 25.9297C875.917 25.9297 876.375 25.8359 876.766 25.6484C877.161 25.4609 877.469 25.1745 877.688 24.7891C877.906 24.4036 878.016 23.9141 878.016 23.3203V15.625ZM883.109 20.1719V30.25H881.656V18.5469H882.984L883.109 20.1719ZM888.805 22.7031V22.8672C888.805 23.4818 888.732 24.0521 888.586 24.5781C888.44 25.099 888.227 25.5521 887.945 25.9375C887.669 26.3229 887.328 26.6224 886.922 26.8359C886.516 27.0495 886.049 27.1562 885.523 27.1562C884.987 27.1562 884.513 27.0677 884.102 26.8906C883.69 26.7135 883.341 26.4557 883.055 26.1172C882.768 25.7786 882.539 25.3724 882.367 24.8984C882.201 24.4245 882.086 23.8906 882.023 23.2969V22.4219C882.086 21.7969 882.203 21.237 882.375 20.7422C882.547 20.2474 882.773 19.8255 883.055 19.4766C883.341 19.1224 883.688 18.8542 884.094 18.6719C884.5 18.4844 884.969 18.3906 885.5 18.3906C886.031 18.3906 886.503 18.4948 886.914 18.7031C887.326 18.9062 887.672 19.1979 887.953 19.5781C888.234 19.9583 888.445 20.4141 888.586 20.9453C888.732 21.4714 888.805 22.0573 888.805 22.7031ZM887.352 22.8672V22.7031C887.352 22.2812 887.307 21.8854 887.219 21.5156C887.13 21.1406 886.992 20.8125 886.805 20.5312C886.622 20.2448 886.388 20.0208 886.102 19.8594C885.815 19.6927 885.474 19.6094 885.078 19.6094C884.714 19.6094 884.396 19.6719 884.125 19.7969C883.859 19.9219 883.633 20.0911 883.445 20.3047C883.258 20.513 883.104 20.7526 882.984 21.0234C882.87 21.2891 882.784 21.5651 882.727 21.8516V23.875C882.831 24.2396 882.977 24.5833 883.164 24.9062C883.352 25.224 883.602 25.4818 883.914 25.6797C884.227 25.8724 884.62 25.9688 885.094 25.9688C885.484 25.9688 885.82 25.888 886.102 25.7266C886.388 25.5599 886.622 25.3333 886.805 25.0469C886.992 24.7604 887.13 24.4323 887.219 24.0625C887.307 23.6875 887.352 23.2891 887.352 22.8672Z" fill="white"/>
<defs>
<clipPath id="clip0_1_769">
<rect width="687" height="44" fill="white"/>
</clipPath>
</defs>
</svg>
