<svg width="1152" height="49" viewBox="0 0 1152 49" fill="none" xmlns="http://www.w3.org/2000/svg">
<circle cx="4" cy="24.8889" r="4" fill="black"/>
<circle cx="20" cy="24.8889" r="4" fill="#8D8D8D"/>
<circle cx="36" cy="24.8889" r="4" fill="#8D8D8D"/>
<circle cx="52" cy="24.8889" r="4" fill="#8D8D8D"/>
<circle cx="68" cy="24.8889" r="4" fill="#8D8D8D"/>
<rect x="1041.5" y="1.38892" width="47" height="47" rx="23.5" stroke="black"/>
<path d="M1073 23.8889H1060.83L1066.42 18.2989L1065 16.8889L1057 24.8889L1065 32.8889L1066.41 31.4789L1060.83 25.8889H1073V23.8889Z" fill="black"/>
<rect x="1104.5" y="1.38892" width="47" height="47" rx="23.5" stroke="black"/>
<path d="M1128 16.8889L1126.59 18.2989L1132.17 23.8889H1120V25.8889H1132.17L1126.59 31.4789L1128 32.8889L1136 24.8889L1128 16.8889Z" fill="black"/>
</svg>
