<svg width="131" height="40" viewBox="0 0 131 40" fill="none" xmlns="http://www.w3.org/2000/svg">
<path d="M15.7929 8.59521V8.59626C15.776 8.62534 12.2955 14.6292 7.95067 21.9595C3.59532 29.3077 0 35.1906 0 35.1906L12.3315 35.1365L12.3323 35.1364L12.3297 35.1459C18.3172 35.03 23.7182 31.0934 25.3119 25.1453C25.8102 23.286 25.8853 21.4143 25.5964 19.6255C24.8043 14.3582 20.9149 10.0745 15.7929 8.59521Z" fill="black"/>
<path d="M22.6077 4.80933V4.81037C22.5908 4.83945 19.1102 10.8433 14.7654 18.1736C10.4101 25.5218 6.81476 31.4047 6.81476 31.4047L19.1462 31.3506L19.147 31.3505L19.1445 31.36C25.132 31.2441 30.5329 27.3075 32.1267 21.3594C32.6249 19.5001 32.7001 17.6284 32.4111 15.8396C31.619 10.5724 27.7297 6.28859 22.6077 4.80933Z" fill="#10F2C5"/>
<path d="M48.6479 29H42.1854V10.7696H48.7014C50.5351 10.7696 52.1136 11.1346 53.437 11.8645C54.7603 12.5885 55.7781 13.63 56.4902 14.989C57.2083 16.3479 57.5673 17.974 57.5673 19.867C57.5673 21.766 57.2083 23.398 56.4902 24.7629C55.7781 26.1278 54.7544 27.1752 53.4192 27.9051C52.0899 28.635 50.4995 29 48.6479 29ZM46.0398 25.6975H48.4877C49.6271 25.6975 50.5855 25.4958 51.3629 25.0922C52.1462 24.6828 52.7338 24.0507 53.1254 23.1962C53.523 22.3357 53.7218 21.226 53.7218 19.867C53.7218 18.5199 53.523 17.4191 53.1254 16.5645C52.7338 15.71 52.1492 15.081 51.3718 14.6774C50.5944 14.2739 49.636 14.0721 48.4966 14.0721H46.0398V25.6975ZM65.3895 29.2225C64.351 29.2225 63.4104 28.9555 62.5677 28.4214C61.731 27.8814 61.0663 27.0891 60.5738 26.0447C60.0872 24.9943 59.8439 23.7066 59.8439 22.1814C59.8439 20.6147 60.0961 19.3122 60.6005 18.2736C61.1049 17.2292 61.7755 16.4488 62.6122 15.9325C63.4549 15.4103 64.3777 15.1492 65.3806 15.1492C66.1461 15.1492 66.7841 15.2798 67.2944 15.5409C67.8107 15.796 68.2261 16.1165 68.5407 16.5022C68.8611 16.882 69.1044 17.2559 69.2706 17.6238H69.3863V10.7696H73.1695V29H69.4308V26.8102H69.2706C69.0926 27.19 68.8403 27.5669 68.514 27.9407C68.1935 28.3086 67.7751 28.6143 67.2588 28.8576C66.7485 29.1009 66.1254 29.2225 65.3895 29.2225ZM66.5912 26.2049C67.2025 26.2049 67.7188 26.0388 68.1401 25.7064C68.5674 25.3682 68.8938 24.8964 69.1193 24.2911C69.3507 23.6858 69.4664 22.9766 69.4664 22.1636C69.4664 21.3506 69.3537 20.6444 69.1282 20.0451C68.9027 19.4457 68.5763 18.9828 68.149 18.6564C67.7217 18.33 67.2025 18.1668 66.5912 18.1668C65.9681 18.1668 65.4429 18.336 65.0157 18.6742C64.5884 19.0125 64.265 19.4813 64.0454 20.0807C63.8258 20.68 63.716 21.3743 63.716 22.1636C63.716 22.9588 63.8258 23.662 64.0454 24.2733C64.2709 24.8786 64.5943 25.3533 65.0157 25.6975C65.4429 26.0358 65.9681 26.2049 66.5912 26.2049ZM87.6634 19.2261L84.1918 19.4397C84.1324 19.143 84.0049 18.876 83.809 18.6386C83.6132 18.3953 83.355 18.2024 83.0346 18.06C82.7201 17.9116 82.3432 17.8375 81.9041 17.8375C81.3166 17.8375 80.8211 17.9621 80.4175 18.2113C80.014 18.4546 79.8122 18.781 79.8122 19.1905C79.8122 19.5169 79.9428 19.7928 80.2039 20.0183C80.465 20.2439 80.9131 20.4248 81.548 20.5613L84.0227 21.0598C85.352 21.3328 86.343 21.7719 86.9958 22.3773C87.6486 22.9826 87.9749 23.7778 87.9749 24.7629C87.9749 25.659 87.7109 26.4453 87.1827 27.1218C86.6605 27.7983 85.9424 28.3265 85.0285 28.7062C84.1206 29.0801 83.0732 29.267 81.8863 29.267C80.0763 29.267 78.6343 28.8902 77.5601 28.1366C76.492 27.377 75.8659 26.3444 75.6819 25.0388L79.4117 24.843C79.5244 25.3949 79.7974 25.8162 80.2306 26.107C80.6638 26.3918 81.2187 26.5343 81.8952 26.5343C82.5598 26.5343 83.0939 26.4067 83.4975 26.1515C83.9069 25.8904 84.1146 25.5551 84.1206 25.1456C84.1146 24.8014 83.9693 24.5196 83.6844 24.3C83.3996 24.0745 82.9604 23.9024 82.367 23.7837L79.9992 23.3119C78.6639 23.0449 77.6699 22.582 77.0172 21.9233C76.3703 21.2646 76.0469 20.4248 76.0469 19.4041C76.0469 18.5259 76.2843 17.7692 76.759 17.1342C77.2397 16.4993 77.9132 16.0097 78.7797 15.6655C79.652 15.3213 80.6727 15.1492 81.8418 15.1492C83.5687 15.1492 84.9277 15.5142 85.9187 16.2441C86.9157 16.974 87.4972 17.968 87.6634 19.2261ZM96.5227 34.4121C95.2942 34.4121 94.2409 34.243 93.3626 33.9047C92.4903 33.5724 91.7959 33.1184 91.2796 32.5428C90.7634 31.9672 90.4281 31.3203 90.2738 30.6023L93.781 30.1305C93.8878 30.4035 94.0569 30.6587 94.2884 30.896C94.5198 31.1334 94.8254 31.3233 95.2052 31.4657C95.591 31.6141 96.0598 31.6883 96.6117 31.6883C97.4365 31.6883 98.116 31.4865 98.6501 31.083C99.1901 30.6854 99.4602 30.0177 99.4602 29.0801V26.5788H99.2999C99.1338 26.9586 98.8845 27.3176 98.5522 27.6559C98.2199 27.9941 97.7926 28.2701 97.2704 28.4837C96.7482 28.6973 96.1251 28.8042 95.4011 28.8042C94.3744 28.8042 93.4398 28.5668 92.5971 28.092C91.7603 27.6114 91.0927 26.8785 90.5942 25.8934C90.1017 24.9023 89.8554 23.6502 89.8554 22.1369C89.8554 20.588 90.1076 19.2944 90.612 18.2558C91.1165 17.2173 91.787 16.4399 92.6238 15.9236C93.4665 15.4073 94.3893 15.1492 95.3922 15.1492C96.1577 15.1492 96.7986 15.2798 97.3149 15.5409C97.8312 15.796 98.2466 16.1165 98.5611 16.5022C98.8816 16.882 99.1278 17.2559 99.2999 17.6238H99.4424V15.3272H103.208V29.1335C103.208 30.2967 102.923 31.2699 102.353 32.0532C101.783 32.8366 100.994 33.4241 99.9854 33.8157C98.9824 34.2133 97.8282 34.4121 96.5227 34.4121ZM96.6028 25.9557C97.214 25.9557 97.7303 25.8043 98.1516 25.5017C98.5789 25.1931 98.9053 24.754 99.1308 24.1843C99.3622 23.6086 99.478 22.9202 99.478 22.1191C99.478 21.318 99.3652 20.6237 99.1397 20.0361C98.9142 19.4427 98.5878 18.9828 98.1605 18.6564C97.7333 18.33 97.214 18.1668 96.6028 18.1668C95.9797 18.1668 95.4545 18.336 95.0272 18.6742C94.5999 19.0065 94.2765 19.4694 94.0569 20.0629C93.8374 20.6563 93.7276 21.3417 93.7276 22.1191C93.7276 22.9084 93.8374 23.5908 94.0569 24.1665C94.2824 24.7362 94.6059 25.1783 95.0272 25.4928C95.4545 25.8014 95.9797 25.9557 96.6028 25.9557ZM110.017 21.0954V29H106.225V15.3272H109.839V17.7396H110C110.302 16.9443 110.81 16.3153 111.522 15.8524C112.234 15.3836 113.097 15.1492 114.112 15.1492C115.062 15.1492 115.889 15.3569 116.596 15.7723C117.302 16.1877 117.851 16.7812 118.242 17.5526C118.634 18.3182 118.83 19.232 118.83 20.2943V29H115.038V20.9708C115.044 20.1341 114.83 19.4813 114.397 19.0125C113.964 18.5377 113.367 18.3003 112.608 18.3003C112.097 18.3003 111.646 18.4101 111.255 18.6297C110.869 18.8493 110.566 19.1697 110.347 19.5911C110.133 20.0065 110.023 20.5079 110.017 21.0954ZM121.819 29V15.3272H125.495V17.7128H125.637C125.887 16.8642 126.305 16.2233 126.892 15.7901C127.48 15.351 128.157 15.1314 128.922 15.1314C129.112 15.1314 129.317 15.1433 129.536 15.167C129.756 15.1907 129.949 15.2234 130.115 15.2649V18.6297C129.937 18.5763 129.691 18.5288 129.376 18.4873C129.061 18.4457 128.774 18.425 128.513 18.425C127.955 18.425 127.456 18.5466 127.017 18.7899C126.584 19.0273 126.24 19.3596 125.985 19.7869C125.735 20.2142 125.611 20.7067 125.611 21.2646V29H121.819Z" fill="black"/>
</svg>
