<svg width="736" height="24" viewBox="0 0 736 24" fill="none" xmlns="http://www.w3.org/2000/svg">
<path d="M620.5 6H617.5C616.948 6 616.5 6.44772 616.5 7V10H620.5C620.614 9.99748 620.722 10.0504 620.789 10.1419C620.857 10.2334 620.876 10.352 620.84 10.46L620.1 12.66C620.032 12.8619 619.843 12.9984 619.63 13H616.5V20.5C616.5 20.7761 616.276 21 616 21H613.5C613.224 21 613 20.7761 613 20.5V13H611.5C611.224 13 611 12.7761 611 12.5V10.5C611 10.2239 611.224 10 611.5 10H613V7C613 4.79086 614.791 3 617 3H620.5C620.776 3 621 3.22386 621 3.5V5.5C621 5.77614 620.776 6 620.5 6Z" fill="black"/>
<path fill-rule="evenodd" clip-rule="evenodd" d="M656 3H648C645.239 3 643 5.23858 643 8V16C643 18.7614 645.239 21 648 21H656C658.761 21 661 18.7614 661 16V8C661 5.23858 658.761 3 656 3ZM659.25 16C659.244 17.7926 657.793 19.2445 656 19.25H648C646.207 19.2445 644.755 17.7926 644.75 16V8C644.755 6.20735 646.207 4.75549 648 4.75H656C657.793 4.75549 659.244 6.20735 659.25 8V16ZM656.75 8.25C657.302 8.25 657.75 7.80228 657.75 7.25C657.75 6.69772 657.302 6.25 656.75 6.25C656.198 6.25 655.75 6.69772 655.75 7.25C655.75 7.80228 656.198 8.25 656.75 8.25ZM652 7.5C649.515 7.5 647.5 9.51472 647.5 12C647.5 14.4853 649.515 16.5 652 16.5C654.485 16.5 656.5 14.4853 656.5 12C656.503 10.8057 656.029 9.65957 655.185 8.81508C654.34 7.97059 653.194 7.49734 652 7.5ZM649.25 12C649.25 13.5188 650.481 14.75 652 14.75C653.519 14.75 654.75 13.5188 654.75 12C654.75 10.4812 653.519 9.25 652 9.25C650.481 9.25 649.25 10.4812 649.25 12Z" fill="black"/>
<path d="M696.973 6.7174C696.508 7.33692 695.947 7.87733 695.31 8.31776C695.31 8.47959 695.31 8.64142 695.31 8.81225C695.315 11.7511 694.142 14.5691 692.052 16.6345C689.962 18.6999 687.131 19.8399 684.194 19.7989C682.496 19.8046 680.82 19.4169 679.296 18.6661C679.214 18.6302 679.161 18.549 679.162 18.4593V18.3604C679.162 18.2313 679.266 18.1267 679.395 18.1267C681.064 18.0716 682.674 17.4929 683.996 16.4724C682.486 16.4419 681.126 15.5469 680.501 14.1707C680.469 14.0956 680.479 14.0093 680.527 13.9432C680.574 13.8771 680.653 13.8407 680.734 13.8471C681.193 13.8932 681.657 13.8505 682.1 13.7212C680.432 13.375 679.179 11.9904 679 10.2957C678.993 10.2144 679.03 10.1357 679.096 10.0879C679.162 10.0402 679.248 10.0303 679.323 10.062C679.771 10.2595 680.254 10.3635 680.743 10.3676C679.282 9.40846 678.651 7.58405 679.207 5.92622C679.264 5.76513 679.402 5.64612 679.57 5.61294C679.737 5.57975 679.91 5.63728 680.024 5.76439C681.996 7.86325 684.706 9.11396 687.582 9.25279C687.508 8.95885 687.472 8.65676 687.474 8.35372C687.501 6.76472 688.484 5.34921 689.963 4.76987C691.443 4.19054 693.125 4.56203 694.223 5.71044C694.971 5.56785 695.695 5.31645 696.371 4.96421C696.42 4.93331 696.483 4.93331 696.533 4.96421C696.563 5.01373 696.563 5.07652 696.533 5.12604C696.205 5.87552 695.652 6.50412 694.951 6.92419C695.565 6.85296 696.169 6.70807 696.748 6.49264C696.797 6.45942 696.861 6.45942 696.91 6.49264C696.951 6.51134 696.981 6.54711 696.994 6.59042C697.006 6.63373 696.998 6.68018 696.973 6.7174Z" fill="black"/>
<path fill-rule="evenodd" clip-rule="evenodd" d="M717 3H731C732.105 3 733 3.89543 733 5V19C733 20.1046 732.105 21 731 21H717C715.895 21 715 20.1046 715 19V5C715 3.89543 715.895 3 717 3ZM720 18C720.276 18 720.5 17.7761 720.5 17.5V10.5C720.5 10.2239 720.276 10 720 10H718.5C718.224 10 718 10.2239 718 10.5V17.5C718 17.7761 718.224 18 718.5 18H720ZM719.25 9C718.422 9 717.75 8.32843 717.75 7.5C717.75 6.67157 718.422 6 719.25 6C720.078 6 720.75 6.67157 720.75 7.5C720.75 8.32843 720.078 9 719.25 9ZM729.5 18C729.776 18 730 17.7761 730 17.5V12.9C730.033 11.3108 728.858 9.95452 727.28 9.76C726.177 9.65925 725.108 10.1744 724.5 11.1V10.5C724.5 10.2239 724.276 10 724 10H722.5C722.224 10 722 10.2239 722 10.5V17.5C722 17.7761 722.224 18 722.5 18H724C724.276 18 724.5 17.7761 724.5 17.5V13.75C724.5 12.9216 725.172 12.25 726 12.25C726.828 12.25 727.5 12.9216 727.5 13.75V17.5C727.5 17.7761 727.724 18 728 18H729.5Z" fill="black"/>
</svg>
