<svg width="1256" height="96" viewBox="0 0 1256 96" fill="none" xmlns="http://www.w3.org/2000/svg">
<path d="M123.086 30.1602V35.0625H103.594V30.1602H123.086ZM116.016 22.4453V43.1484H110.684V22.4453H116.016ZM145.703 41.6055V46H126.25V42.25L135.449 32.3867C136.374 31.3581 137.103 30.4531 137.637 29.6719C138.171 28.8776 138.555 28.168 138.789 27.543C139.036 26.9049 139.16 26.2995 139.16 25.7266C139.16 24.8672 139.017 24.1315 138.73 23.5195C138.444 22.8945 138.021 22.4128 137.461 22.0742C136.914 21.7357 136.237 21.5664 135.43 21.5664C134.57 21.5664 133.828 21.7747 133.203 22.1914C132.591 22.6081 132.122 23.1875 131.797 23.9297C131.484 24.6719 131.328 25.5117 131.328 26.4492H125.684C125.684 24.7565 126.087 23.207 126.895 21.8008C127.702 20.3815 128.841 19.2552 130.312 18.4219C131.784 17.5755 133.529 17.1523 135.547 17.1523C137.539 17.1523 139.219 17.4779 140.586 18.1289C141.966 18.7669 143.008 19.6914 143.711 20.9023C144.427 22.1003 144.785 23.5326 144.785 25.1992C144.785 26.1367 144.635 27.0547 144.336 27.9531C144.036 28.8385 143.607 29.724 143.047 30.6094C142.5 31.4818 141.836 32.3672 141.055 33.2656C140.273 34.1641 139.408 35.0951 138.457 36.0586L133.516 41.6055H145.703ZM168.359 29.2812V34.2031C168.359 36.3385 168.132 38.181 167.676 39.7305C167.22 41.2669 166.562 42.5299 165.703 43.5195C164.857 44.4961 163.848 45.2188 162.676 45.6875C161.504 46.1562 160.202 46.3906 158.77 46.3906C157.624 46.3906 156.556 46.2474 155.566 45.9609C154.577 45.6615 153.685 45.1992 152.891 44.5742C152.109 43.9492 151.432 43.1615 150.859 42.2109C150.299 41.2474 149.87 40.1016 149.57 38.7734C149.271 37.4453 149.121 35.9219 149.121 34.2031V29.2812C149.121 27.1458 149.349 25.3164 149.805 23.793C150.273 22.2565 150.931 21 151.777 20.0234C152.637 19.0469 153.652 18.3307 154.824 17.875C155.996 17.4062 157.298 17.1719 158.73 17.1719C159.876 17.1719 160.938 17.3216 161.914 17.6211C162.904 17.9076 163.796 18.3568 164.59 18.9688C165.384 19.5807 166.061 20.3685 166.621 21.332C167.181 22.2826 167.611 23.4219 167.91 24.75C168.21 26.0651 168.359 27.5755 168.359 29.2812ZM162.715 34.9453V28.5195C162.715 27.4909 162.656 26.5924 162.539 25.8242C162.435 25.056 162.272 24.4049 162.051 23.8711C161.829 23.3242 161.556 22.8815 161.23 22.543C160.905 22.2044 160.534 21.957 160.117 21.8008C159.701 21.6445 159.238 21.5664 158.73 21.5664C158.092 21.5664 157.526 21.6901 157.031 21.9375C156.549 22.1849 156.139 22.582 155.801 23.1289C155.462 23.6628 155.202 24.3789 155.02 25.2773C154.85 26.1628 154.766 27.2435 154.766 28.5195V34.9453C154.766 35.974 154.818 36.8789 154.922 37.6602C155.039 38.4414 155.208 39.112 155.43 39.6719C155.664 40.2188 155.938 40.668 156.25 41.0195C156.576 41.3581 156.947 41.6055 157.363 41.7617C157.793 41.918 158.262 41.9961 158.77 41.9961C159.395 41.9961 159.948 41.8724 160.43 41.625C160.924 41.3646 161.341 40.9609 161.68 40.4141C162.031 39.8542 162.292 39.125 162.461 38.2266C162.63 37.3281 162.715 36.2344 162.715 34.9453ZM191.328 29.2812V34.2031C191.328 36.3385 191.1 38.181 190.645 39.7305C190.189 41.2669 189.531 42.5299 188.672 43.5195C187.826 44.4961 186.816 45.2188 185.645 45.6875C184.473 46.1562 183.171 46.3906 181.738 46.3906C180.592 46.3906 179.525 46.2474 178.535 45.9609C177.546 45.6615 176.654 45.1992 175.859 44.5742C175.078 43.9492 174.401 43.1615 173.828 42.2109C173.268 41.2474 172.839 40.1016 172.539 38.7734C172.24 37.4453 172.09 35.9219 172.09 34.2031V29.2812C172.09 27.1458 172.318 25.3164 172.773 23.793C173.242 22.2565 173.9 21 174.746 20.0234C175.605 19.0469 176.621 18.3307 177.793 17.875C178.965 17.4062 180.267 17.1719 181.699 17.1719C182.845 17.1719 183.906 17.3216 184.883 17.6211C185.872 17.9076 186.764 18.3568 187.559 18.9688C188.353 19.5807 189.03 20.3685 189.59 21.332C190.15 22.2826 190.579 23.4219 190.879 24.75C191.178 26.0651 191.328 27.5755 191.328 29.2812ZM185.684 34.9453V28.5195C185.684 27.4909 185.625 26.5924 185.508 25.8242C185.404 25.056 185.241 24.4049 185.02 23.8711C184.798 23.3242 184.525 22.8815 184.199 22.543C183.874 22.2044 183.503 21.957 183.086 21.8008C182.669 21.6445 182.207 21.5664 181.699 21.5664C181.061 21.5664 180.495 21.6901 180 21.9375C179.518 22.1849 179.108 22.582 178.77 23.1289C178.431 23.6628 178.171 24.3789 177.988 25.2773C177.819 26.1628 177.734 27.2435 177.734 28.5195V34.9453C177.734 35.974 177.786 36.8789 177.891 37.6602C178.008 38.4414 178.177 39.112 178.398 39.6719C178.633 40.2188 178.906 40.668 179.219 41.0195C179.544 41.3581 179.915 41.6055 180.332 41.7617C180.762 41.918 181.23 41.9961 181.738 41.9961C182.363 41.9961 182.917 41.8724 183.398 41.625C183.893 41.3646 184.31 40.9609 184.648 40.4141C185 39.8542 185.26 39.125 185.43 38.2266C185.599 37.3281 185.684 36.2344 185.684 34.9453Z" fill="black"/>
<path d="M126.688 77.3828H128.188C128.109 78.1016 127.904 78.7448 127.57 79.3125C127.237 79.8802 126.766 80.3307 126.156 80.6641C125.547 80.9922 124.786 81.1562 123.875 81.1562C123.208 81.1562 122.602 81.0312 122.055 80.7812C121.513 80.5312 121.047 80.1771 120.656 79.7188C120.266 79.2552 119.964 78.7005 119.75 78.0547C119.542 77.4036 119.438 76.6797 119.438 75.8828V74.75C119.438 73.9531 119.542 73.2318 119.75 72.5859C119.964 71.9349 120.268 71.3776 120.664 70.9141C121.065 70.4505 121.547 70.0938 122.109 69.8438C122.672 69.5938 123.305 69.4688 124.008 69.4688C124.867 69.4688 125.594 69.6302 126.188 69.9531C126.781 70.276 127.242 70.724 127.57 71.2969C127.904 71.8646 128.109 72.5234 128.188 73.2734H126.688C126.615 72.7422 126.479 72.2865 126.281 71.9062C126.083 71.5208 125.802 71.224 125.438 71.0156C125.073 70.8073 124.596 70.7031 124.008 70.7031C123.503 70.7031 123.057 70.7995 122.672 70.9922C122.292 71.1849 121.971 71.4583 121.711 71.8125C121.456 72.1667 121.263 72.5911 121.133 73.0859C121.003 73.5807 120.938 74.1302 120.938 74.7344V75.8828C120.938 76.4401 120.995 76.9635 121.109 77.4531C121.229 77.9427 121.409 78.3724 121.648 78.7422C121.888 79.112 122.193 79.4036 122.562 79.6172C122.932 79.8255 123.37 79.9297 123.875 79.9297C124.516 79.9297 125.026 79.8281 125.406 79.625C125.786 79.4219 126.073 79.1302 126.266 78.75C126.464 78.3698 126.604 77.9141 126.688 77.3828ZM129.641 76.8672V76.6875C129.641 76.0781 129.729 75.513 129.906 74.9922C130.083 74.4661 130.339 74.0104 130.672 73.625C131.005 73.2344 131.409 72.9323 131.883 72.7188C132.357 72.5 132.888 72.3906 133.477 72.3906C134.07 72.3906 134.604 72.5 135.078 72.7188C135.557 72.9323 135.964 73.2344 136.297 73.625C136.635 74.0104 136.893 74.4661 137.07 74.9922C137.247 75.513 137.336 76.0781 137.336 76.6875V76.8672C137.336 77.4766 137.247 78.0417 137.07 78.5625C136.893 79.0833 136.635 79.5391 136.297 79.9297C135.964 80.3151 135.56 80.6172 135.086 80.8359C134.617 81.0495 134.086 81.1562 133.492 81.1562C132.898 81.1562 132.365 81.0495 131.891 80.8359C131.417 80.6172 131.01 80.3151 130.672 79.9297C130.339 79.5391 130.083 79.0833 129.906 78.5625C129.729 78.0417 129.641 77.4766 129.641 76.8672ZM131.086 76.6875V76.8672C131.086 77.2891 131.135 77.6875 131.234 78.0625C131.333 78.4323 131.482 78.7604 131.68 79.0469C131.883 79.3333 132.135 79.5599 132.438 79.7266C132.74 79.888 133.091 79.9688 133.492 79.9688C133.888 79.9688 134.234 79.888 134.531 79.7266C134.833 79.5599 135.083 79.3333 135.281 79.0469C135.479 78.7604 135.628 78.4323 135.727 78.0625C135.831 77.6875 135.883 77.2891 135.883 76.8672V76.6875C135.883 76.2708 135.831 75.8776 135.727 75.5078C135.628 75.1328 135.477 74.8021 135.273 74.5156C135.076 74.224 134.826 73.9948 134.523 73.8281C134.227 73.6615 133.878 73.5781 133.477 73.5781C133.081 73.5781 132.732 73.6615 132.43 73.8281C132.133 73.9948 131.883 74.224 131.68 74.5156C131.482 74.8021 131.333 75.1328 131.234 75.5078C131.135 75.8776 131.086 76.2708 131.086 76.6875ZM144.32 79.0469V72.5469H145.773V81H144.391L144.32 79.0469ZM144.594 77.2656L145.195 77.25C145.195 77.8125 145.135 78.3333 145.016 78.8125C144.901 79.2865 144.714 79.6979 144.453 80.0469C144.193 80.3958 143.852 80.6693 143.43 80.8672C143.008 81.0599 142.495 81.1562 141.891 81.1562C141.479 81.1562 141.102 81.0964 140.758 80.9766C140.419 80.8568 140.128 80.6719 139.883 80.4219C139.638 80.1719 139.448 79.8464 139.312 79.4453C139.182 79.0443 139.117 78.5625 139.117 78V72.5469H140.562V78.0156C140.562 78.3958 140.604 78.7109 140.688 78.9609C140.776 79.2057 140.893 79.401 141.039 79.5469C141.19 79.6875 141.357 79.7865 141.539 79.8438C141.727 79.901 141.919 79.9297 142.117 79.9297C142.732 79.9297 143.219 79.8125 143.578 79.5781C143.938 79.3385 144.195 79.0182 144.352 78.6172C144.513 78.2109 144.594 77.7604 144.594 77.2656ZM149.422 73.875V81H147.977V72.5469H149.383L149.422 73.875ZM152.062 72.5L152.055 73.8438C151.935 73.8177 151.82 73.8021 151.711 73.7969C151.607 73.7865 151.487 73.7812 151.352 73.7812C151.018 73.7812 150.724 73.8333 150.469 73.9375C150.214 74.0417 149.997 74.1875 149.82 74.375C149.643 74.5625 149.503 74.7865 149.398 75.0469C149.299 75.3021 149.234 75.5833 149.203 75.8906L148.797 76.125C148.797 75.6146 148.846 75.1354 148.945 74.6875C149.049 74.2396 149.208 73.8438 149.422 73.5C149.635 73.151 149.906 72.8802 150.234 72.6875C150.568 72.4896 150.964 72.3906 151.422 72.3906C151.526 72.3906 151.646 72.4036 151.781 72.4297C151.917 72.4505 152.01 72.474 152.062 72.5ZM158.32 78.7578C158.32 78.5495 158.273 78.3568 158.18 78.1797C158.091 77.9974 157.906 77.8333 157.625 77.6875C157.349 77.5365 156.932 77.4062 156.375 77.2969C155.906 77.1979 155.482 77.0807 155.102 76.9453C154.727 76.8099 154.406 76.6458 154.141 76.4531C153.88 76.2604 153.68 76.0339 153.539 75.7734C153.398 75.513 153.328 75.2083 153.328 74.8594C153.328 74.526 153.401 74.2109 153.547 73.9141C153.698 73.6172 153.909 73.3542 154.18 73.125C154.456 72.8958 154.786 72.7161 155.172 72.5859C155.557 72.4557 155.987 72.3906 156.461 72.3906C157.138 72.3906 157.716 72.5104 158.195 72.75C158.674 72.9896 159.042 73.3099 159.297 73.7109C159.552 74.1068 159.68 74.5469 159.68 75.0312H158.234C158.234 74.7969 158.164 74.5703 158.023 74.3516C157.888 74.1276 157.688 73.9427 157.422 73.7969C157.161 73.651 156.841 73.5781 156.461 73.5781C156.06 73.5781 155.734 73.6406 155.484 73.7656C155.24 73.8854 155.06 74.0391 154.945 74.2266C154.836 74.4141 154.781 74.612 154.781 74.8203C154.781 74.9766 154.807 75.1172 154.859 75.2422C154.917 75.362 155.016 75.474 155.156 75.5781C155.297 75.6771 155.495 75.7708 155.75 75.8594C156.005 75.9479 156.331 76.0365 156.727 76.125C157.419 76.2812 157.99 76.4688 158.438 76.6875C158.885 76.9062 159.219 77.1745 159.438 77.4922C159.656 77.8099 159.766 78.1953 159.766 78.6484C159.766 79.0182 159.688 79.3568 159.531 79.6641C159.38 79.9714 159.159 80.237 158.867 80.4609C158.581 80.6797 158.237 80.8516 157.836 80.9766C157.44 81.0964 156.995 81.1562 156.5 81.1562C155.755 81.1562 155.125 81.0234 154.609 80.7578C154.094 80.4922 153.703 80.1484 153.438 79.7266C153.172 79.3047 153.039 78.8594 153.039 78.3906H154.492C154.513 78.7865 154.628 79.1016 154.836 79.3359C155.044 79.5651 155.299 79.7292 155.602 79.8281C155.904 79.9219 156.203 79.9688 156.5 79.9688C156.896 79.9688 157.227 79.9167 157.492 79.8125C157.763 79.7083 157.969 79.5651 158.109 79.3828C158.25 79.2005 158.32 78.9922 158.32 78.7578ZM165.172 81.1562C164.583 81.1562 164.049 81.0573 163.57 80.8594C163.096 80.6562 162.688 80.3724 162.344 80.0078C162.005 79.6432 161.745 79.2109 161.562 78.7109C161.38 78.2109 161.289 77.6641 161.289 77.0703V76.7422C161.289 76.0547 161.391 75.4427 161.594 74.9062C161.797 74.3646 162.073 73.9062 162.422 73.5312C162.771 73.1562 163.167 72.8724 163.609 72.6797C164.052 72.487 164.51 72.3906 164.984 72.3906C165.589 72.3906 166.109 72.4948 166.547 72.7031C166.99 72.9115 167.352 73.2031 167.633 73.5781C167.914 73.9479 168.122 74.3854 168.258 74.8906C168.393 75.3906 168.461 75.9375 168.461 76.5312V77.1797H162.148V76H167.016V75.8906C166.995 75.5156 166.917 75.151 166.781 74.7969C166.651 74.4427 166.443 74.151 166.156 73.9219C165.87 73.6927 165.479 73.5781 164.984 73.5781C164.656 73.5781 164.354 73.6484 164.078 73.7891C163.802 73.9245 163.565 74.1276 163.367 74.3984C163.169 74.6693 163.016 75 162.906 75.3906C162.797 75.7812 162.742 76.2318 162.742 76.7422V77.0703C162.742 77.4714 162.797 77.849 162.906 78.2031C163.021 78.5521 163.185 78.8594 163.398 79.125C163.617 79.3906 163.88 79.599 164.188 79.75C164.5 79.901 164.854 79.9766 165.25 79.9766C165.76 79.9766 166.193 79.8724 166.547 79.6641C166.901 79.4557 167.211 79.1771 167.477 78.8281L168.352 79.5234C168.169 79.7995 167.938 80.0625 167.656 80.3125C167.375 80.5625 167.029 80.7656 166.617 80.9219C166.211 81.0781 165.729 81.1562 165.172 81.1562ZM175.07 78.7578C175.07 78.5495 175.023 78.3568 174.93 78.1797C174.841 77.9974 174.656 77.8333 174.375 77.6875C174.099 77.5365 173.682 77.4062 173.125 77.2969C172.656 77.1979 172.232 77.0807 171.852 76.9453C171.477 76.8099 171.156 76.6458 170.891 76.4531C170.63 76.2604 170.43 76.0339 170.289 75.7734C170.148 75.513 170.078 75.2083 170.078 74.8594C170.078 74.526 170.151 74.2109 170.297 73.9141C170.448 73.6172 170.659 73.3542 170.93 73.125C171.206 72.8958 171.536 72.7161 171.922 72.5859C172.307 72.4557 172.737 72.3906 173.211 72.3906C173.888 72.3906 174.466 72.5104 174.945 72.75C175.424 72.9896 175.792 73.3099 176.047 73.7109C176.302 74.1068 176.43 74.5469 176.43 75.0312H174.984C174.984 74.7969 174.914 74.5703 174.773 74.3516C174.638 74.1276 174.438 73.9427 174.172 73.7969C173.911 73.651 173.591 73.5781 173.211 73.5781C172.81 73.5781 172.484 73.6406 172.234 73.7656C171.99 73.8854 171.81 74.0391 171.695 74.2266C171.586 74.4141 171.531 74.612 171.531 74.8203C171.531 74.9766 171.557 75.1172 171.609 75.2422C171.667 75.362 171.766 75.474 171.906 75.5781C172.047 75.6771 172.245 75.7708 172.5 75.8594C172.755 75.9479 173.081 76.0365 173.477 76.125C174.169 76.2812 174.74 76.4688 175.188 76.6875C175.635 76.9062 175.969 77.1745 176.188 77.4922C176.406 77.8099 176.516 78.1953 176.516 78.6484C176.516 79.0182 176.438 79.3568 176.281 79.6641C176.13 79.9714 175.909 80.237 175.617 80.4609C175.331 80.6797 174.987 80.8516 174.586 80.9766C174.19 81.0964 173.745 81.1562 173.25 81.1562C172.505 81.1562 171.875 81.0234 171.359 80.7578C170.844 80.4922 170.453 80.1484 170.188 79.7266C169.922 79.3047 169.789 78.8594 169.789 78.3906H171.242C171.263 78.7865 171.378 79.1016 171.586 79.3359C171.794 79.5651 172.049 79.7292 172.352 79.8281C172.654 79.9219 172.953 79.9688 173.25 79.9688C173.646 79.9688 173.977 79.9167 174.242 79.8125C174.513 79.7083 174.719 79.5651 174.859 79.3828C175 79.2005 175.07 78.9922 175.07 78.7578Z" fill="black"/>
<path d="M439.246 33.0508L434.754 31.9766L436.375 17.5625H452.352V22.1133H441.004L440.301 28.4219C440.678 28.2005 441.251 27.9661 442.02 27.7188C442.788 27.4583 443.647 27.3281 444.598 27.3281C445.978 27.3281 447.202 27.543 448.27 27.9727C449.337 28.4023 450.242 29.0273 450.984 29.8477C451.74 30.668 452.312 31.6706 452.703 32.8555C453.094 34.0404 453.289 35.3815 453.289 36.8789C453.289 38.1419 453.094 39.3464 452.703 40.4922C452.312 41.625 451.72 42.6406 450.926 43.5391C450.132 44.4245 449.135 45.1211 447.938 45.6289C446.74 46.1367 445.32 46.3906 443.68 46.3906C442.456 46.3906 441.271 46.2083 440.125 45.8438C438.992 45.4792 437.97 44.9388 437.059 44.2227C436.16 43.5065 435.438 42.6406 434.891 41.625C434.357 40.5964 434.077 39.4245 434.051 38.1094H439.637C439.715 38.9167 439.923 39.6133 440.262 40.1992C440.613 40.7721 441.076 41.2148 441.648 41.5273C442.221 41.8398 442.892 41.9961 443.66 41.9961C444.376 41.9961 444.988 41.8594 445.496 41.5859C446.004 41.3125 446.414 40.9349 446.727 40.4531C447.039 39.9583 447.267 39.3854 447.41 38.7344C447.566 38.0703 447.645 37.3542 447.645 36.5859C447.645 35.8177 447.553 35.1211 447.371 34.4961C447.189 33.8711 446.909 33.3307 446.531 32.875C446.154 32.4193 445.672 32.0677 445.086 31.8203C444.513 31.5729 443.842 31.4492 443.074 31.4492C442.033 31.4492 441.225 31.612 440.652 31.9375C440.092 32.263 439.624 32.6341 439.246 33.0508ZM476.062 29.2812V34.2031C476.062 36.3385 475.835 38.181 475.379 39.7305C474.923 41.2669 474.266 42.5299 473.406 43.5195C472.56 44.4961 471.551 45.2188 470.379 45.6875C469.207 46.1562 467.905 46.3906 466.473 46.3906C465.327 46.3906 464.259 46.2474 463.27 45.9609C462.28 45.6615 461.388 45.1992 460.594 44.5742C459.812 43.9492 459.135 43.1615 458.562 42.2109C458.003 41.2474 457.573 40.1016 457.273 38.7734C456.974 37.4453 456.824 35.9219 456.824 34.2031V29.2812C456.824 27.1458 457.052 25.3164 457.508 23.793C457.977 22.2565 458.634 21 459.48 20.0234C460.34 19.0469 461.355 18.3307 462.527 17.875C463.699 17.4062 465.001 17.1719 466.434 17.1719C467.579 17.1719 468.641 17.3216 469.617 17.6211C470.607 17.9076 471.499 18.3568 472.293 18.9688C473.087 19.5807 473.764 20.3685 474.324 21.332C474.884 22.2826 475.314 23.4219 475.613 24.75C475.913 26.0651 476.062 27.5755 476.062 29.2812ZM470.418 34.9453V28.5195C470.418 27.4909 470.359 26.5924 470.242 25.8242C470.138 25.056 469.975 24.4049 469.754 23.8711C469.533 23.3242 469.259 22.8815 468.934 22.543C468.608 22.2044 468.237 21.957 467.82 21.8008C467.404 21.6445 466.941 21.5664 466.434 21.5664C465.796 21.5664 465.229 21.6901 464.734 21.9375C464.253 22.1849 463.842 22.582 463.504 23.1289C463.165 23.6628 462.905 24.3789 462.723 25.2773C462.553 26.1628 462.469 27.2435 462.469 28.5195V34.9453C462.469 35.974 462.521 36.8789 462.625 37.6602C462.742 38.4414 462.911 39.112 463.133 39.6719C463.367 40.2188 463.641 40.668 463.953 41.0195C464.279 41.3581 464.65 41.6055 465.066 41.7617C465.496 41.918 465.965 41.9961 466.473 41.9961C467.098 41.9961 467.651 41.8724 468.133 41.625C468.628 41.3646 469.044 40.9609 469.383 40.4141C469.734 39.8542 469.995 39.125 470.164 38.2266C470.333 37.3281 470.418 36.2344 470.418 34.9453ZM486.336 17.5625V46H480.477V17.5625H486.336ZM503.367 17.5625L492.098 31.6055L485.594 38.5977L484.539 33.0508L488.934 27.0352L496.18 17.5625H503.367ZM496.707 46L488.328 32.8555L492.664 29.2227L503.641 46H496.707Z" fill="black"/>
<path d="M439.797 69.625H441.258L444.984 78.8984L448.703 69.625H450.172L445.547 81H444.406L439.797 69.625ZM439.32 69.625H440.609L440.82 76.5625V81H439.32V69.625ZM449.352 69.625H450.641V81H449.141V76.5625L449.352 69.625ZM456.578 81.1562C455.99 81.1562 455.456 81.0573 454.977 80.8594C454.503 80.6562 454.094 80.3724 453.75 80.0078C453.411 79.6432 453.151 79.2109 452.969 78.7109C452.786 78.2109 452.695 77.6641 452.695 77.0703V76.7422C452.695 76.0547 452.797 75.4427 453 74.9062C453.203 74.3646 453.479 73.9062 453.828 73.5312C454.177 73.1562 454.573 72.8724 455.016 72.6797C455.458 72.487 455.917 72.3906 456.391 72.3906C456.995 72.3906 457.516 72.4948 457.953 72.7031C458.396 72.9115 458.758 73.2031 459.039 73.5781C459.32 73.9479 459.529 74.3854 459.664 74.8906C459.799 75.3906 459.867 75.9375 459.867 76.5312V77.1797H453.555V76H458.422V75.8906C458.401 75.5156 458.323 75.151 458.188 74.7969C458.057 74.4427 457.849 74.151 457.562 73.9219C457.276 73.6927 456.885 73.5781 456.391 73.5781C456.062 73.5781 455.76 73.6484 455.484 73.7891C455.208 73.9245 454.971 74.1276 454.773 74.3984C454.576 74.6693 454.422 75 454.312 75.3906C454.203 75.7812 454.148 76.2318 454.148 76.7422V77.0703C454.148 77.4714 454.203 77.849 454.312 78.2031C454.427 78.5521 454.591 78.8594 454.805 79.125C455.023 79.3906 455.286 79.599 455.594 79.75C455.906 79.901 456.26 79.9766 456.656 79.9766C457.167 79.9766 457.599 79.8724 457.953 79.6641C458.307 79.4557 458.617 79.1771 458.883 78.8281L459.758 79.5234C459.576 79.7995 459.344 80.0625 459.062 80.3125C458.781 80.5625 458.435 80.7656 458.023 80.9219C457.617 81.0781 457.135 81.1562 456.578 81.1562ZM463 74.3516V81H461.555V72.5469H462.922L463 74.3516ZM462.656 76.4531L462.055 76.4297C462.06 75.8516 462.146 75.3177 462.312 74.8281C462.479 74.3333 462.714 73.9036 463.016 73.5391C463.318 73.1745 463.677 72.8932 464.094 72.6953C464.516 72.4922 464.982 72.3906 465.492 72.3906C465.909 72.3906 466.284 72.4479 466.617 72.5625C466.951 72.6719 467.234 72.849 467.469 73.0938C467.708 73.3385 467.891 73.6562 468.016 74.0469C468.141 74.4323 468.203 74.9036 468.203 75.4609V81H466.75V75.4453C466.75 75.0026 466.685 74.6484 466.555 74.3828C466.424 74.112 466.234 73.9167 465.984 73.7969C465.734 73.6719 465.427 73.6094 465.062 73.6094C464.703 73.6094 464.375 73.6849 464.078 73.8359C463.786 73.987 463.534 74.1953 463.32 74.4609C463.112 74.7266 462.948 75.0312 462.828 75.375C462.714 75.7135 462.656 76.0729 462.656 76.4531ZM473.938 72.5469V73.6562H469.367V72.5469H473.938ZM470.914 70.4922H472.359V78.9062C472.359 79.1927 472.404 79.4089 472.492 79.5547C472.581 79.7005 472.695 79.7969 472.836 79.8438C472.977 79.8906 473.128 79.9141 473.289 79.9141C473.409 79.9141 473.534 79.9036 473.664 79.8828C473.799 79.8568 473.901 79.8359 473.969 79.8203L473.977 81C473.862 81.0365 473.711 81.0703 473.523 81.1016C473.341 81.138 473.12 81.1562 472.859 81.1562C472.505 81.1562 472.18 81.0859 471.883 80.9453C471.586 80.8047 471.349 80.5703 471.172 80.2422C471 79.9089 470.914 79.4609 470.914 78.8984V70.4922ZM475.094 76.8672V76.6875C475.094 76.0781 475.182 75.513 475.359 74.9922C475.536 74.4661 475.792 74.0104 476.125 73.625C476.458 73.2344 476.862 72.9323 477.336 72.7188C477.81 72.5 478.341 72.3906 478.93 72.3906C479.523 72.3906 480.057 72.5 480.531 72.7188C481.01 72.9323 481.417 73.2344 481.75 73.625C482.089 74.0104 482.346 74.4661 482.523 74.9922C482.701 75.513 482.789 76.0781 482.789 76.6875V76.8672C482.789 77.4766 482.701 78.0417 482.523 78.5625C482.346 79.0833 482.089 79.5391 481.75 79.9297C481.417 80.3151 481.013 80.6172 480.539 80.8359C480.07 81.0495 479.539 81.1562 478.945 81.1562C478.352 81.1562 477.818 81.0495 477.344 80.8359C476.87 80.6172 476.464 80.3151 476.125 79.9297C475.792 79.5391 475.536 79.0833 475.359 78.5625C475.182 78.0417 475.094 77.4766 475.094 76.8672ZM476.539 76.6875V76.8672C476.539 77.2891 476.589 77.6875 476.688 78.0625C476.786 78.4323 476.935 78.7604 477.133 79.0469C477.336 79.3333 477.589 79.5599 477.891 79.7266C478.193 79.888 478.544 79.9688 478.945 79.9688C479.341 79.9688 479.688 79.888 479.984 79.7266C480.286 79.5599 480.536 79.3333 480.734 79.0469C480.932 78.7604 481.081 78.4323 481.18 78.0625C481.284 77.6875 481.336 77.2891 481.336 76.8672V76.6875C481.336 76.2708 481.284 75.8776 481.18 75.5078C481.081 75.1328 480.93 74.8021 480.727 74.5156C480.529 74.224 480.279 73.9948 479.977 73.8281C479.68 73.6615 479.331 73.5781 478.93 73.5781C478.534 73.5781 478.185 73.6615 477.883 73.8281C477.586 73.9948 477.336 74.224 477.133 74.5156C476.935 74.8021 476.786 75.1328 476.688 75.5078C476.589 75.8776 476.539 76.2708 476.539 76.6875ZM486.047 73.875V81H484.602V72.5469H486.008L486.047 73.875ZM488.688 72.5L488.68 73.8438C488.56 73.8177 488.445 73.8021 488.336 73.7969C488.232 73.7865 488.112 73.7812 487.977 73.7812C487.643 73.7812 487.349 73.8333 487.094 73.9375C486.839 74.0417 486.622 74.1875 486.445 74.375C486.268 74.5625 486.128 74.7865 486.023 75.0469C485.924 75.3021 485.859 75.5833 485.828 75.8906L485.422 76.125C485.422 75.6146 485.471 75.1354 485.57 74.6875C485.674 74.2396 485.833 73.8438 486.047 73.5C486.26 73.151 486.531 72.8802 486.859 72.6875C487.193 72.4896 487.589 72.3906 488.047 72.3906C488.151 72.3906 488.271 72.4036 488.406 72.4297C488.542 72.4505 488.635 72.474 488.688 72.5ZM494.945 78.7578C494.945 78.5495 494.898 78.3568 494.805 78.1797C494.716 77.9974 494.531 77.8333 494.25 77.6875C493.974 77.5365 493.557 77.4062 493 77.2969C492.531 77.1979 492.107 77.0807 491.727 76.9453C491.352 76.8099 491.031 76.6458 490.766 76.4531C490.505 76.2604 490.305 76.0339 490.164 75.7734C490.023 75.513 489.953 75.2083 489.953 74.8594C489.953 74.526 490.026 74.2109 490.172 73.9141C490.323 73.6172 490.534 73.3542 490.805 73.125C491.081 72.8958 491.411 72.7161 491.797 72.5859C492.182 72.4557 492.612 72.3906 493.086 72.3906C493.763 72.3906 494.341 72.5104 494.82 72.75C495.299 72.9896 495.667 73.3099 495.922 73.7109C496.177 74.1068 496.305 74.5469 496.305 75.0312H494.859C494.859 74.7969 494.789 74.5703 494.648 74.3516C494.513 74.1276 494.312 73.9427 494.047 73.7969C493.786 73.651 493.466 73.5781 493.086 73.5781C492.685 73.5781 492.359 73.6406 492.109 73.7656C491.865 73.8854 491.685 74.0391 491.57 74.2266C491.461 74.4141 491.406 74.612 491.406 74.8203C491.406 74.9766 491.432 75.1172 491.484 75.2422C491.542 75.362 491.641 75.474 491.781 75.5781C491.922 75.6771 492.12 75.7708 492.375 75.8594C492.63 75.9479 492.956 76.0365 493.352 76.125C494.044 76.2812 494.615 76.4688 495.062 76.6875C495.51 76.9062 495.844 77.1745 496.062 77.4922C496.281 77.8099 496.391 78.1953 496.391 78.6484C496.391 79.0182 496.312 79.3568 496.156 79.6641C496.005 79.9714 495.784 80.237 495.492 80.4609C495.206 80.6797 494.862 80.8516 494.461 80.9766C494.065 81.0964 493.62 81.1562 493.125 81.1562C492.38 81.1562 491.75 81.0234 491.234 80.7578C490.719 80.4922 490.328 80.1484 490.062 79.7266C489.797 79.3047 489.664 78.8594 489.664 78.3906H491.117C491.138 78.7865 491.253 79.1016 491.461 79.3359C491.669 79.5651 491.924 79.7292 492.227 79.8281C492.529 79.9219 492.828 79.9688 493.125 79.9688C493.521 79.9688 493.852 79.9167 494.117 79.8125C494.388 79.7083 494.594 79.5651 494.734 79.3828C494.875 79.2005 494.945 78.9922 494.945 78.7578Z" fill="black"/>
<path d="M750.215 29.3398H753.223C754.186 29.3398 754.98 29.1771 755.605 28.8516C756.23 28.513 756.693 28.0443 756.992 27.4453C757.305 26.8333 757.461 26.1237 757.461 25.3164C757.461 24.5872 757.318 23.9427 757.031 23.3828C756.758 22.8099 756.335 22.3672 755.762 22.0547C755.189 21.7292 754.466 21.5664 753.594 21.5664C752.904 21.5664 752.266 21.7031 751.68 21.9766C751.094 22.25 750.625 22.6341 750.273 23.1289C749.922 23.6237 749.746 24.2227 749.746 24.9258H744.102C744.102 23.3633 744.518 22.0026 745.352 20.8438C746.198 19.6849 747.331 18.7799 748.75 18.1289C750.169 17.4779 751.732 17.1523 753.438 17.1523C755.365 17.1523 757.051 17.4648 758.496 18.0898C759.941 18.7018 761.068 19.6068 761.875 20.8047C762.682 22.0026 763.086 23.487 763.086 25.2578C763.086 26.1562 762.878 27.0286 762.461 27.875C762.044 28.7083 761.445 29.4635 760.664 30.1406C759.896 30.8047 758.958 31.3385 757.852 31.7422C756.745 32.1328 755.501 32.3281 754.121 32.3281H750.215V29.3398ZM750.215 33.6172V30.707H754.121C755.671 30.707 757.031 30.8828 758.203 31.2344C759.375 31.5859 760.358 32.0938 761.152 32.7578C761.947 33.4089 762.546 34.1836 762.949 35.082C763.353 35.9674 763.555 36.9505 763.555 38.0312C763.555 39.3594 763.301 40.5443 762.793 41.5859C762.285 42.6146 761.569 43.487 760.645 44.2031C759.733 44.9193 758.665 45.4661 757.441 45.8438C756.217 46.2083 754.883 46.3906 753.438 46.3906C752.24 46.3906 751.061 46.2279 749.902 45.9023C748.757 45.5638 747.715 45.0625 746.777 44.3984C745.853 43.7214 745.111 42.875 744.551 41.8594C744.004 40.8307 743.73 39.6133 743.73 38.207H749.375C749.375 38.9362 749.557 39.5872 749.922 40.1602C750.286 40.7331 750.788 41.1823 751.426 41.5078C752.077 41.8333 752.799 41.9961 753.594 41.9961C754.492 41.9961 755.26 41.8333 755.898 41.5078C756.549 41.1693 757.044 40.7005 757.383 40.1016C757.734 39.4896 757.91 38.7799 757.91 37.9727C757.91 36.931 757.721 36.0977 757.344 35.4727C756.966 34.8346 756.426 34.3659 755.723 34.0664C755.02 33.7669 754.186 33.6172 753.223 33.6172H750.215ZM786.738 17.5625V20.5898L775.742 46H769.805L780.801 21.957H766.641V17.5625H786.738ZM809.531 29.2812V34.2031C809.531 36.3385 809.303 38.181 808.848 39.7305C808.392 41.2669 807.734 42.5299 806.875 43.5195C806.029 44.4961 805.02 45.2188 803.848 45.6875C802.676 46.1562 801.374 46.3906 799.941 46.3906C798.796 46.3906 797.728 46.2474 796.738 45.9609C795.749 45.6615 794.857 45.1992 794.062 44.5742C793.281 43.9492 792.604 43.1615 792.031 42.2109C791.471 41.2474 791.042 40.1016 790.742 38.7734C790.443 37.4453 790.293 35.9219 790.293 34.2031V29.2812C790.293 27.1458 790.521 25.3164 790.977 23.793C791.445 22.2565 792.103 21 792.949 20.0234C793.809 19.0469 794.824 18.3307 795.996 17.875C797.168 17.4062 798.47 17.1719 799.902 17.1719C801.048 17.1719 802.109 17.3216 803.086 17.6211C804.076 17.9076 804.967 18.3568 805.762 18.9688C806.556 19.5807 807.233 20.3685 807.793 21.332C808.353 22.2826 808.783 23.4219 809.082 24.75C809.382 26.0651 809.531 27.5755 809.531 29.2812ZM803.887 34.9453V28.5195C803.887 27.4909 803.828 26.5924 803.711 25.8242C803.607 25.056 803.444 24.4049 803.223 23.8711C803.001 23.3242 802.728 22.8815 802.402 22.543C802.077 22.2044 801.706 21.957 801.289 21.8008C800.872 21.6445 800.41 21.5664 799.902 21.5664C799.264 21.5664 798.698 21.6901 798.203 21.9375C797.721 22.1849 797.311 22.582 796.973 23.1289C796.634 23.6628 796.374 24.3789 796.191 25.2773C796.022 26.1628 795.938 27.2435 795.938 28.5195V34.9453C795.938 35.974 795.99 36.8789 796.094 37.6602C796.211 38.4414 796.38 39.112 796.602 39.6719C796.836 40.2188 797.109 40.668 797.422 41.0195C797.747 41.3581 798.118 41.6055 798.535 41.7617C798.965 41.918 799.434 41.9961 799.941 41.9961C800.566 41.9961 801.12 41.8724 801.602 41.625C802.096 41.3646 802.513 40.9609 802.852 40.4141C803.203 39.8542 803.464 39.125 803.633 38.2266C803.802 37.3281 803.887 36.2344 803.887 34.9453ZM819.219 15.9805V46H813.594V15.9805H819.219ZM832.539 24.8672L823.359 35.3359L818.438 40.3164L816.387 36.2539L820.293 31.293L825.781 24.8672H832.539ZM826.699 46L820.449 36.2344L824.336 32.8359L833.184 46H826.699Z" fill="black"/>
<path d="M763.383 78.125C763.383 77.8594 763.341 77.625 763.258 77.4219C763.18 77.2135 763.039 77.026 762.836 76.8594C762.638 76.6927 762.362 76.5339 762.008 76.3828C761.659 76.2318 761.216 76.0781 760.68 75.9219C760.117 75.7552 759.609 75.5703 759.156 75.3672C758.703 75.1589 758.315 74.9219 757.992 74.6562C757.669 74.3906 757.422 74.0859 757.25 73.7422C757.078 73.3984 756.992 73.0052 756.992 72.5625C756.992 72.1198 757.083 71.7109 757.266 71.3359C757.448 70.9609 757.708 70.6354 758.047 70.3594C758.391 70.0781 758.799 69.8594 759.273 69.7031C759.747 69.5469 760.276 69.4688 760.859 69.4688C761.714 69.4688 762.438 69.6328 763.031 69.9609C763.63 70.2839 764.086 70.7083 764.398 71.2344C764.711 71.7552 764.867 72.3125 764.867 72.9062H763.367C763.367 72.4792 763.276 72.1016 763.094 71.7734C762.911 71.4401 762.635 71.1797 762.266 70.9922C761.896 70.7995 761.427 70.7031 760.859 70.7031C760.323 70.7031 759.88 70.7839 759.531 70.9453C759.182 71.1068 758.922 71.3255 758.75 71.6016C758.583 71.8776 758.5 72.1927 758.5 72.5469C758.5 72.7865 758.549 73.0052 758.648 73.2031C758.753 73.3958 758.911 73.5755 759.125 73.7422C759.344 73.9089 759.62 74.0625 759.953 74.2031C760.292 74.3438 760.695 74.4792 761.164 74.6094C761.81 74.7917 762.367 74.9948 762.836 75.2188C763.305 75.4427 763.69 75.6953 763.992 75.9766C764.299 76.2526 764.526 76.5677 764.672 76.9219C764.823 77.2708 764.898 77.6667 764.898 78.1094C764.898 78.5729 764.805 78.9922 764.617 79.3672C764.43 79.7422 764.161 80.0625 763.812 80.3281C763.464 80.5938 763.044 80.7995 762.555 80.9453C762.07 81.0859 761.529 81.1562 760.93 81.1562C760.404 81.1562 759.885 81.0833 759.375 80.9375C758.87 80.7917 758.409 80.5729 757.992 80.2812C757.581 79.9896 757.25 79.6302 757 79.2031C756.755 78.7708 756.633 78.2708 756.633 77.7031H758.133C758.133 78.0938 758.208 78.4297 758.359 78.7109C758.51 78.987 758.716 79.2161 758.977 79.3984C759.242 79.5807 759.542 79.7161 759.875 79.8047C760.214 79.888 760.565 79.9297 760.93 79.9297C761.456 79.9297 761.901 79.8568 762.266 79.7109C762.63 79.5651 762.906 79.3568 763.094 79.0859C763.286 78.8151 763.383 78.4948 763.383 78.125ZM770.141 72.5469V73.6562H765.57V72.5469H770.141ZM767.117 70.4922H768.562V78.9062C768.562 79.1927 768.607 79.4089 768.695 79.5547C768.784 79.7005 768.898 79.7969 769.039 79.8438C769.18 79.8906 769.331 79.9141 769.492 79.9141C769.612 79.9141 769.737 79.9036 769.867 79.8828C770.003 79.8568 770.104 79.8359 770.172 79.8203L770.18 81C770.065 81.0365 769.914 81.0703 769.727 81.1016C769.544 81.138 769.323 81.1562 769.062 81.1562C768.708 81.1562 768.383 81.0859 768.086 80.9453C767.789 80.8047 767.552 80.5703 767.375 80.2422C767.203 79.9089 767.117 79.4609 767.117 78.8984V70.4922ZM777.008 79.0469V72.5469H778.461V81H777.078L777.008 79.0469ZM777.281 77.2656L777.883 77.25C777.883 77.8125 777.823 78.3333 777.703 78.8125C777.589 79.2865 777.401 79.6979 777.141 80.0469C776.88 80.3958 776.539 80.6693 776.117 80.8672C775.695 81.0599 775.182 81.1562 774.578 81.1562C774.167 81.1562 773.789 81.0964 773.445 80.9766C773.107 80.8568 772.815 80.6719 772.57 80.4219C772.326 80.1719 772.135 79.8464 772 79.4453C771.87 79.0443 771.805 78.5625 771.805 78V72.5469H773.25V78.0156C773.25 78.3958 773.292 78.7109 773.375 78.9609C773.464 79.2057 773.581 79.401 773.727 79.5469C773.878 79.6875 774.044 79.7865 774.227 79.8438C774.414 79.901 774.607 79.9297 774.805 79.9297C775.419 79.9297 775.906 79.8125 776.266 79.5781C776.625 79.3385 776.883 79.0182 777.039 78.6172C777.201 78.2109 777.281 77.7604 777.281 77.2656ZM785.992 79.3594V69H787.445V81H786.117L785.992 79.3594ZM780.305 76.8672V76.7031C780.305 76.0573 780.383 75.4714 780.539 74.9453C780.701 74.4141 780.927 73.9583 781.219 73.5781C781.516 73.1979 781.867 72.9062 782.273 72.7031C782.685 72.4948 783.143 72.3906 783.648 72.3906C784.18 72.3906 784.643 72.4844 785.039 72.6719C785.44 72.8542 785.779 73.1224 786.055 73.4766C786.336 73.8255 786.557 74.2474 786.719 74.7422C786.88 75.237 786.992 75.7969 787.055 76.4219V77.1406C786.997 77.7604 786.885 78.3177 786.719 78.8125C786.557 79.3073 786.336 79.7292 786.055 80.0781C785.779 80.4271 785.44 80.6953 785.039 80.8828C784.638 81.0651 784.169 81.1562 783.633 81.1562C783.138 81.1562 782.685 81.0495 782.273 80.8359C781.867 80.6224 781.516 80.3229 781.219 79.9375C780.927 79.5521 780.701 79.099 780.539 78.5781C780.383 78.0521 780.305 77.4818 780.305 76.8672ZM781.758 76.7031V76.8672C781.758 77.2891 781.799 77.6849 781.883 78.0547C781.971 78.4245 782.107 78.75 782.289 79.0312C782.471 79.3125 782.703 79.5339 782.984 79.6953C783.266 79.8516 783.602 79.9297 783.992 79.9297C784.471 79.9297 784.865 79.8281 785.172 79.625C785.484 79.4219 785.734 79.1536 785.922 78.8203C786.109 78.487 786.255 78.125 786.359 77.7344V75.8516C786.297 75.5651 786.206 75.2891 786.086 75.0234C785.971 74.7526 785.82 74.513 785.633 74.3047C785.451 74.0911 785.224 73.9219 784.953 73.7969C784.688 73.6719 784.372 73.6094 784.008 73.6094C783.612 73.6094 783.271 73.6927 782.984 73.8594C782.703 74.0208 782.471 74.2448 782.289 74.5312C782.107 74.8125 781.971 75.1406 781.883 75.5156C781.799 75.8854 781.758 76.2812 781.758 76.7031ZM793.203 81.1562C792.615 81.1562 792.081 81.0573 791.602 80.8594C791.128 80.6562 790.719 80.3724 790.375 80.0078C790.036 79.6432 789.776 79.2109 789.594 78.7109C789.411 78.2109 789.32 77.6641 789.32 77.0703V76.7422C789.32 76.0547 789.422 75.4427 789.625 74.9062C789.828 74.3646 790.104 73.9062 790.453 73.5312C790.802 73.1562 791.198 72.8724 791.641 72.6797C792.083 72.487 792.542 72.3906 793.016 72.3906C793.62 72.3906 794.141 72.4948 794.578 72.7031C795.021 72.9115 795.383 73.2031 795.664 73.5781C795.945 73.9479 796.154 74.3854 796.289 74.8906C796.424 75.3906 796.492 75.9375 796.492 76.5312V77.1797H790.18V76H795.047V75.8906C795.026 75.5156 794.948 75.151 794.812 74.7969C794.682 74.4427 794.474 74.151 794.188 73.9219C793.901 73.6927 793.51 73.5781 793.016 73.5781C792.688 73.5781 792.385 73.6484 792.109 73.7891C791.833 73.9245 791.596 74.1276 791.398 74.3984C791.201 74.6693 791.047 75 790.938 75.3906C790.828 75.7812 790.773 76.2318 790.773 76.7422V77.0703C790.773 77.4714 790.828 77.849 790.938 78.2031C791.052 78.5521 791.216 78.8594 791.43 79.125C791.648 79.3906 791.911 79.599 792.219 79.75C792.531 79.901 792.885 79.9766 793.281 79.9766C793.792 79.9766 794.224 79.8724 794.578 79.6641C794.932 79.4557 795.242 79.1771 795.508 78.8281L796.383 79.5234C796.201 79.7995 795.969 80.0625 795.688 80.3125C795.406 80.5625 795.06 80.7656 794.648 80.9219C794.242 81.0781 793.76 81.1562 793.203 81.1562ZM799.625 74.3516V81H798.18V72.5469H799.547L799.625 74.3516ZM799.281 76.4531L798.68 76.4297C798.685 75.8516 798.771 75.3177 798.938 74.8281C799.104 74.3333 799.339 73.9036 799.641 73.5391C799.943 73.1745 800.302 72.8932 800.719 72.6953C801.141 72.4922 801.607 72.3906 802.117 72.3906C802.534 72.3906 802.909 72.4479 803.242 72.5625C803.576 72.6719 803.859 72.849 804.094 73.0938C804.333 73.3385 804.516 73.6562 804.641 74.0469C804.766 74.4323 804.828 74.9036 804.828 75.4609V81H803.375V75.4453C803.375 75.0026 803.31 74.6484 803.18 74.3828C803.049 74.112 802.859 73.9167 802.609 73.7969C802.359 73.6719 802.052 73.6094 801.688 73.6094C801.328 73.6094 801 73.6849 800.703 73.8359C800.411 73.987 800.159 74.1953 799.945 74.4609C799.737 74.7266 799.573 75.0312 799.453 75.375C799.339 75.7135 799.281 76.0729 799.281 76.4531ZM810.562 72.5469V73.6562H805.992V72.5469H810.562ZM807.539 70.4922H808.984V78.9062C808.984 79.1927 809.029 79.4089 809.117 79.5547C809.206 79.7005 809.32 79.7969 809.461 79.8438C809.602 79.8906 809.753 79.9141 809.914 79.9141C810.034 79.9141 810.159 79.9036 810.289 79.8828C810.424 79.8568 810.526 79.8359 810.594 79.8203L810.602 81C810.487 81.0365 810.336 81.0703 810.148 81.1016C809.966 81.138 809.745 81.1562 809.484 81.1562C809.13 81.1562 808.805 81.0859 808.508 80.9453C808.211 80.8047 807.974 80.5703 807.797 80.2422C807.625 79.9089 807.539 79.4609 807.539 78.8984V70.4922ZM817.18 78.7578C817.18 78.5495 817.133 78.3568 817.039 78.1797C816.951 77.9974 816.766 77.8333 816.484 77.6875C816.208 77.5365 815.792 77.4062 815.234 77.2969C814.766 77.1979 814.341 77.0807 813.961 76.9453C813.586 76.8099 813.266 76.6458 813 76.4531C812.74 76.2604 812.539 76.0339 812.398 75.7734C812.258 75.513 812.188 75.2083 812.188 74.8594C812.188 74.526 812.26 74.2109 812.406 73.9141C812.557 73.6172 812.768 73.3542 813.039 73.125C813.315 72.8958 813.646 72.7161 814.031 72.5859C814.417 72.4557 814.846 72.3906 815.32 72.3906C815.997 72.3906 816.576 72.5104 817.055 72.75C817.534 72.9896 817.901 73.3099 818.156 73.7109C818.411 74.1068 818.539 74.5469 818.539 75.0312H817.094C817.094 74.7969 817.023 74.5703 816.883 74.3516C816.747 74.1276 816.547 73.9427 816.281 73.7969C816.021 73.651 815.701 73.5781 815.32 73.5781C814.919 73.5781 814.594 73.6406 814.344 73.7656C814.099 73.8854 813.919 74.0391 813.805 74.2266C813.695 74.4141 813.641 74.612 813.641 74.8203C813.641 74.9766 813.667 75.1172 813.719 75.2422C813.776 75.362 813.875 75.474 814.016 75.5781C814.156 75.6771 814.354 75.7708 814.609 75.8594C814.865 75.9479 815.19 76.0365 815.586 76.125C816.279 76.2812 816.849 76.4688 817.297 76.6875C817.745 76.9062 818.078 77.1745 818.297 77.4922C818.516 77.8099 818.625 78.1953 818.625 78.6484C818.625 79.0182 818.547 79.3568 818.391 79.6641C818.24 79.9714 818.018 80.237 817.727 80.4609C817.44 80.6797 817.096 80.8516 816.695 80.9766C816.299 81.0964 815.854 81.1562 815.359 81.1562C814.615 81.1562 813.984 81.0234 813.469 80.7578C812.953 80.4922 812.562 80.1484 812.297 79.7266C812.031 79.3047 811.898 78.8594 811.898 78.3906H813.352C813.372 78.7865 813.487 79.1016 813.695 79.3359C813.904 79.5651 814.159 79.7292 814.461 79.8281C814.763 79.9219 815.062 79.9688 815.359 79.9688C815.755 79.9688 816.086 79.9167 816.352 79.8125C816.622 79.7083 816.828 79.5651 816.969 79.3828C817.109 79.2005 817.18 78.9922 817.18 78.7578Z" fill="black"/>
<path d="M1078.16 17.5039V46H1072.54V23.9883L1065.78 26.1367V21.7031L1077.56 17.5039H1078.16ZM1106.56 29.2812V34.2031C1106.56 36.3385 1106.33 38.181 1105.88 39.7305C1105.42 41.2669 1104.77 42.5299 1103.91 43.5195C1103.06 44.4961 1102.05 45.2188 1100.88 45.6875C1099.71 46.1562 1098.4 46.3906 1096.97 46.3906C1095.83 46.3906 1094.76 46.2474 1093.77 45.9609C1092.78 45.6615 1091.89 45.1992 1091.09 44.5742C1090.31 43.9492 1089.64 43.1615 1089.06 42.2109C1088.5 41.2474 1088.07 40.1016 1087.77 38.7734C1087.47 37.4453 1087.32 35.9219 1087.32 34.2031V29.2812C1087.32 27.1458 1087.55 25.3164 1088.01 23.793C1088.48 22.2565 1089.13 21 1089.98 20.0234C1090.84 19.0469 1091.86 18.3307 1093.03 17.875C1094.2 17.4062 1095.5 17.1719 1096.93 17.1719C1098.08 17.1719 1099.14 17.3216 1100.12 17.6211C1101.11 17.9076 1102 18.3568 1102.79 18.9688C1103.59 19.5807 1104.26 20.3685 1104.82 21.332C1105.38 22.2826 1105.81 23.4219 1106.11 24.75C1106.41 26.0651 1106.56 27.5755 1106.56 29.2812ZM1100.92 34.9453V28.5195C1100.92 27.4909 1100.86 26.5924 1100.74 25.8242C1100.64 25.056 1100.48 24.4049 1100.25 23.8711C1100.03 23.3242 1099.76 22.8815 1099.43 22.543C1099.11 22.2044 1098.74 21.957 1098.32 21.8008C1097.9 21.6445 1097.44 21.5664 1096.93 21.5664C1096.3 21.5664 1095.73 21.6901 1095.23 21.9375C1094.75 22.1849 1094.34 22.582 1094 23.1289C1093.67 23.6628 1093.4 24.3789 1093.22 25.2773C1093.05 26.1628 1092.97 27.2435 1092.97 28.5195V34.9453C1092.97 35.974 1093.02 36.8789 1093.12 37.6602C1093.24 38.4414 1093.41 39.112 1093.63 39.6719C1093.87 40.2188 1094.14 40.668 1094.45 41.0195C1094.78 41.3581 1095.15 41.6055 1095.57 41.7617C1096 41.918 1096.46 41.9961 1096.97 41.9961C1097.6 41.9961 1098.15 41.8724 1098.63 41.625C1099.13 41.3646 1099.54 40.9609 1099.88 40.4141C1100.23 39.8542 1100.49 39.125 1100.66 38.2266C1100.83 37.3281 1100.92 36.2344 1100.92 34.9453ZM1129.53 29.2812V34.2031C1129.53 36.3385 1129.3 38.181 1128.85 39.7305C1128.39 41.2669 1127.73 42.5299 1126.88 43.5195C1126.03 44.4961 1125.02 45.2188 1123.85 45.6875C1122.68 46.1562 1121.37 46.3906 1119.94 46.3906C1118.8 46.3906 1117.73 46.2474 1116.74 45.9609C1115.75 45.6615 1114.86 45.1992 1114.06 44.5742C1113.28 43.9492 1112.6 43.1615 1112.03 42.2109C1111.47 41.2474 1111.04 40.1016 1110.74 38.7734C1110.44 37.4453 1110.29 35.9219 1110.29 34.2031V29.2812C1110.29 27.1458 1110.52 25.3164 1110.98 23.793C1111.45 22.2565 1112.1 21 1112.95 20.0234C1113.81 19.0469 1114.82 18.3307 1116 17.875C1117.17 17.4062 1118.47 17.1719 1119.9 17.1719C1121.05 17.1719 1122.11 17.3216 1123.09 17.6211C1124.08 17.9076 1124.97 18.3568 1125.76 18.9688C1126.56 19.5807 1127.23 20.3685 1127.79 21.332C1128.35 22.2826 1128.78 23.4219 1129.08 24.75C1129.38 26.0651 1129.53 27.5755 1129.53 29.2812ZM1123.89 34.9453V28.5195C1123.89 27.4909 1123.83 26.5924 1123.71 25.8242C1123.61 25.056 1123.44 24.4049 1123.22 23.8711C1123 23.3242 1122.73 22.8815 1122.4 22.543C1122.08 22.2044 1121.71 21.957 1121.29 21.8008C1120.87 21.6445 1120.41 21.5664 1119.9 21.5664C1119.26 21.5664 1118.7 21.6901 1118.2 21.9375C1117.72 22.1849 1117.31 22.582 1116.97 23.1289C1116.63 23.6628 1116.37 24.3789 1116.19 25.2773C1116.02 26.1628 1115.94 27.2435 1115.94 28.5195V34.9453C1115.94 35.974 1115.99 36.8789 1116.09 37.6602C1116.21 38.4414 1116.38 39.112 1116.6 39.6719C1116.84 40.2188 1117.11 40.668 1117.42 41.0195C1117.75 41.3581 1118.12 41.6055 1118.54 41.7617C1118.96 41.918 1119.43 41.9961 1119.94 41.9961C1120.57 41.9961 1121.12 41.8724 1121.6 41.625C1122.1 41.3646 1122.51 40.9609 1122.85 40.4141C1123.2 39.8542 1123.46 39.125 1123.63 38.2266C1123.8 37.3281 1123.89 36.2344 1123.89 34.9453ZM1151.99 30.1602V35.0625H1132.5V30.1602H1151.99ZM1144.92 22.4453V43.1484H1139.59V22.4453H1144.92Z" fill="black"/>
<path d="M1066.82 69.625H1070.59C1071.44 69.625 1072.16 69.7552 1072.75 70.0156C1073.34 70.276 1073.79 70.6615 1074.1 71.1719C1074.41 71.6771 1074.57 72.2995 1074.57 73.0391C1074.57 73.5599 1074.46 74.0365 1074.25 74.4688C1074.04 74.8958 1073.74 75.2604 1073.34 75.5625C1072.95 75.8594 1072.48 76.0807 1071.94 76.2266L1071.52 76.3906H1067.98L1067.96 75.1641H1070.63C1071.17 75.1641 1071.62 75.0703 1071.98 74.8828C1072.34 74.6901 1072.61 74.4323 1072.8 74.1094C1072.98 73.7865 1073.07 73.4297 1073.07 73.0391C1073.07 72.6016 1072.98 72.2188 1072.81 71.8906C1072.64 71.5625 1072.37 71.3099 1072 71.1328C1071.64 70.9505 1071.16 70.8594 1070.59 70.8594H1068.33V81H1066.82V69.625ZM1073.47 81L1070.7 75.8438L1072.27 75.8359L1075.08 80.9062V81H1073.47ZM1079.97 81.1562C1079.38 81.1562 1078.85 81.0573 1078.37 80.8594C1077.89 80.6562 1077.48 80.3724 1077.14 80.0078C1076.8 79.6432 1076.54 79.2109 1076.36 78.7109C1076.18 78.2109 1076.09 77.6641 1076.09 77.0703V76.7422C1076.09 76.0547 1076.19 75.4427 1076.39 74.9062C1076.59 74.3646 1076.87 73.9062 1077.22 73.5312C1077.57 73.1562 1077.96 72.8724 1078.41 72.6797C1078.85 72.487 1079.31 72.3906 1079.78 72.3906C1080.39 72.3906 1080.91 72.4948 1081.34 72.7031C1081.79 72.9115 1082.15 73.2031 1082.43 73.5781C1082.71 73.9479 1082.92 74.3854 1083.05 74.8906C1083.19 75.3906 1083.26 75.9375 1083.26 76.5312V77.1797H1076.95V76H1081.81V75.8906C1081.79 75.5156 1081.71 75.151 1081.58 74.7969C1081.45 74.4427 1081.24 74.151 1080.95 73.9219C1080.67 73.6927 1080.28 73.5781 1079.78 73.5781C1079.45 73.5781 1079.15 73.6484 1078.88 73.7891C1078.6 73.9245 1078.36 74.1276 1078.16 74.3984C1077.97 74.6693 1077.81 75 1077.7 75.3906C1077.59 75.7812 1077.54 76.2318 1077.54 76.7422V77.0703C1077.54 77.4714 1077.59 77.849 1077.7 78.2031C1077.82 78.5521 1077.98 78.8594 1078.2 79.125C1078.41 79.3906 1078.68 79.599 1078.98 79.75C1079.3 79.901 1079.65 79.9766 1080.05 79.9766C1080.56 79.9766 1080.99 79.8724 1081.34 79.6641C1081.7 79.4557 1082.01 79.1771 1082.27 78.8281L1083.15 79.5234C1082.97 79.7995 1082.73 80.0625 1082.45 80.3125C1082.17 80.5625 1081.83 80.7656 1081.41 80.9219C1081.01 81.0781 1080.53 81.1562 1079.97 81.1562ZM1088.33 79.9688C1088.67 79.9688 1088.99 79.8984 1089.28 79.7578C1089.57 79.6172 1089.81 79.4245 1090 79.1797C1090.19 78.9297 1090.29 78.6458 1090.32 78.3281H1091.7C1091.67 78.8281 1091.5 79.2943 1091.19 79.7266C1090.88 80.1536 1090.48 80.5 1089.98 80.7656C1089.48 81.026 1088.93 81.1562 1088.33 81.1562C1087.69 81.1562 1087.14 81.0443 1086.66 80.8203C1086.2 80.5964 1085.8 80.2891 1085.49 79.8984C1085.18 79.5078 1084.95 79.0599 1084.8 78.5547C1084.65 78.0443 1084.57 77.5052 1084.57 76.9375V76.6094C1084.57 76.0417 1084.65 75.5052 1084.8 75C1084.95 74.4896 1085.18 74.0391 1085.49 73.6484C1085.8 73.2578 1086.2 72.9505 1086.66 72.7266C1087.14 72.5026 1087.69 72.3906 1088.33 72.3906C1088.99 72.3906 1089.57 72.526 1090.06 72.7969C1090.56 73.0625 1090.95 73.4271 1091.23 73.8906C1091.51 74.349 1091.67 74.8698 1091.7 75.4531H1090.32C1090.29 75.1042 1090.2 74.7891 1090.02 74.5078C1089.86 74.2266 1089.63 74.0026 1089.34 73.8359C1089.05 73.6641 1088.71 73.5781 1088.33 73.5781C1087.89 73.5781 1087.51 73.6667 1087.21 73.8438C1086.91 74.0156 1086.68 74.25 1086.5 74.5469C1086.33 74.8385 1086.2 75.1641 1086.12 75.5234C1086.05 75.8776 1086.02 76.2396 1086.02 76.6094V76.9375C1086.02 77.3073 1086.05 77.6719 1086.12 78.0312C1086.2 78.3906 1086.32 78.7161 1086.49 79.0078C1086.67 79.2995 1086.91 79.5339 1087.2 79.7109C1087.51 79.8828 1087.88 79.9688 1088.33 79.9688ZM1092.94 76.8672V76.6875C1092.94 76.0781 1093.03 75.513 1093.2 74.9922C1093.38 74.4661 1093.64 74.0104 1093.97 73.625C1094.3 73.2344 1094.71 72.9323 1095.18 72.7188C1095.65 72.5 1096.18 72.3906 1096.77 72.3906C1097.37 72.3906 1097.9 72.5 1098.38 72.7188C1098.85 72.9323 1099.26 73.2344 1099.59 73.625C1099.93 74.0104 1100.19 74.4661 1100.37 74.9922C1100.54 75.513 1100.63 76.0781 1100.63 76.6875V76.8672C1100.63 77.4766 1100.54 78.0417 1100.37 78.5625C1100.19 79.0833 1099.93 79.5391 1099.59 79.9297C1099.26 80.3151 1098.86 80.6172 1098.38 80.8359C1097.91 81.0495 1097.38 81.1562 1096.79 81.1562C1096.2 81.1562 1095.66 81.0495 1095.19 80.8359C1094.71 80.6172 1094.31 80.3151 1093.97 79.9297C1093.64 79.5391 1093.38 79.0833 1093.2 78.5625C1093.03 78.0417 1092.94 77.4766 1092.94 76.8672ZM1094.38 76.6875V76.8672C1094.38 77.2891 1094.43 77.6875 1094.53 78.0625C1094.63 78.4323 1094.78 78.7604 1094.98 79.0469C1095.18 79.3333 1095.43 79.5599 1095.73 79.7266C1096.04 79.888 1096.39 79.9688 1096.79 79.9688C1097.18 79.9688 1097.53 79.888 1097.83 79.7266C1098.13 79.5599 1098.38 79.3333 1098.58 79.0469C1098.78 78.7604 1098.92 78.4323 1099.02 78.0625C1099.13 77.6875 1099.18 77.2891 1099.18 76.8672V76.6875C1099.18 76.2708 1099.13 75.8776 1099.02 75.5078C1098.92 75.1328 1098.77 74.8021 1098.57 74.5156C1098.37 74.224 1098.12 73.9948 1097.82 73.8281C1097.52 73.6615 1097.17 73.5781 1096.77 73.5781C1096.38 73.5781 1096.03 73.6615 1095.73 73.8281C1095.43 73.9948 1095.18 74.224 1094.98 74.5156C1094.78 74.8021 1094.63 75.1328 1094.53 75.5078C1094.43 75.8776 1094.38 76.2708 1094.38 76.6875ZM1107.92 72.5469H1109.23V80.8203C1109.23 81.5651 1109.08 82.2005 1108.78 82.7266C1108.48 83.2526 1108.06 83.651 1107.52 83.9219C1106.98 84.1979 1106.36 84.3359 1105.66 84.3359C1105.36 84.3359 1105.02 84.2891 1104.62 84.1953C1104.23 84.1068 1103.85 83.9531 1103.47 83.7344C1103.09 83.5208 1102.78 83.2318 1102.52 82.8672L1103.28 82.0078C1103.64 82.4349 1104.01 82.7318 1104.39 82.8984C1104.78 83.0651 1105.17 83.1484 1105.55 83.1484C1106.01 83.1484 1106.4 83.0625 1106.73 82.8906C1107.07 82.7188 1107.33 82.4635 1107.51 82.125C1107.7 81.7917 1107.79 81.3802 1107.79 80.8906V74.4062L1107.92 72.5469ZM1102.1 76.8672V76.7031C1102.1 76.0573 1102.18 75.4714 1102.33 74.9453C1102.48 74.4141 1102.71 73.9583 1102.99 73.5781C1103.28 73.1979 1103.64 72.9062 1104.05 72.7031C1104.46 72.4948 1104.92 72.3906 1105.44 72.3906C1105.97 72.3906 1106.43 72.4844 1106.83 72.6719C1107.23 72.8542 1107.57 73.1224 1107.84 73.4766C1108.12 73.8255 1108.35 74.2474 1108.51 74.7422C1108.67 75.237 1108.78 75.7969 1108.84 76.4219V77.1406C1108.79 77.7604 1108.67 78.3177 1108.51 78.8125C1108.35 79.3073 1108.12 79.7292 1107.84 80.0781C1107.57 80.4271 1107.23 80.6953 1106.83 80.8828C1106.43 81.0651 1105.96 81.1562 1105.42 81.1562C1104.92 81.1562 1104.46 81.0495 1104.05 80.8359C1103.64 80.6224 1103.29 80.3229 1103 79.9375C1102.71 79.5521 1102.48 79.099 1102.33 78.5781C1102.18 78.0521 1102.1 77.4818 1102.1 76.8672ZM1103.55 76.7031V76.8672C1103.55 77.2891 1103.59 77.6849 1103.67 78.0547C1103.76 78.4245 1103.89 78.75 1104.07 79.0312C1104.25 79.3125 1104.48 79.5339 1104.77 79.6953C1105.05 79.8516 1105.38 79.9297 1105.77 79.9297C1106.25 79.9297 1106.65 79.8281 1106.96 79.625C1107.27 79.4219 1107.52 79.1536 1107.7 78.8203C1107.89 78.487 1108.04 78.125 1108.14 77.7344V75.8516C1108.08 75.5651 1107.99 75.2891 1107.88 75.0234C1107.76 74.7526 1107.61 74.513 1107.42 74.3047C1107.24 74.0911 1107.01 73.9219 1106.74 73.7969C1106.47 73.6719 1106.15 73.6094 1105.79 73.6094C1105.39 73.6094 1105.05 73.6927 1104.77 73.8594C1104.48 74.0208 1104.25 74.2448 1104.07 74.5312C1103.89 74.8125 1103.76 75.1406 1103.67 75.5156C1103.59 75.8854 1103.55 76.2812 1103.55 76.7031ZM1112.88 74.3516V81H1111.43V72.5469H1112.8L1112.88 74.3516ZM1112.53 76.4531L1111.93 76.4297C1111.93 75.8516 1112.02 75.3177 1112.19 74.8281C1112.35 74.3333 1112.59 73.9036 1112.89 73.5391C1113.19 73.1745 1113.55 72.8932 1113.97 72.6953C1114.39 72.4922 1114.86 72.3906 1115.37 72.3906C1115.78 72.3906 1116.16 72.4479 1116.49 72.5625C1116.83 72.6719 1117.11 72.849 1117.34 73.0938C1117.58 73.3385 1117.77 73.6562 1117.89 74.0469C1118.02 74.4323 1118.08 74.9036 1118.08 75.4609V81H1116.62V75.4453C1116.62 75.0026 1116.56 74.6484 1116.43 74.3828C1116.3 74.112 1116.11 73.9167 1115.86 73.7969C1115.61 73.6719 1115.3 73.6094 1114.94 73.6094C1114.58 73.6094 1114.25 73.6849 1113.95 73.8359C1113.66 73.987 1113.41 74.1953 1113.2 74.4609C1112.99 74.7266 1112.82 75.0312 1112.7 75.375C1112.59 75.7135 1112.53 76.0729 1112.53 76.4531ZM1121.84 72.5469V81H1120.39V72.5469H1121.84ZM1120.28 70.3047C1120.28 70.0703 1120.35 69.8724 1120.49 69.7109C1120.64 69.5495 1120.85 69.4688 1121.13 69.4688C1121.41 69.4688 1121.62 69.5495 1121.77 69.7109C1121.92 69.8724 1121.99 70.0703 1121.99 70.3047C1121.99 70.5286 1121.92 70.7214 1121.77 70.8828C1121.62 71.0391 1121.41 71.1172 1121.13 71.1172C1120.85 71.1172 1120.64 71.0391 1120.49 70.8828C1120.35 70.7214 1120.28 70.5286 1120.28 70.3047ZM1127.7 72.5469V73.6562H1123.13V72.5469H1127.7ZM1124.68 70.4922H1126.12V78.9062C1126.12 79.1927 1126.17 79.4089 1126.26 79.5547C1126.35 79.7005 1126.46 79.7969 1126.6 79.8438C1126.74 79.8906 1126.89 79.9141 1127.05 79.9141C1127.17 79.9141 1127.3 79.9036 1127.43 79.8828C1127.57 79.8568 1127.67 79.8359 1127.73 79.8203L1127.74 81C1127.63 81.0365 1127.48 81.0703 1127.29 81.1016C1127.11 81.138 1126.89 81.1562 1126.62 81.1562C1126.27 81.1562 1125.95 81.0859 1125.65 80.9453C1125.35 80.8047 1125.11 80.5703 1124.94 80.2422C1124.77 79.9089 1124.68 79.4609 1124.68 78.8984V70.4922ZM1130.97 72.5469V81H1129.52V72.5469H1130.97ZM1129.41 70.3047C1129.41 70.0703 1129.48 69.8724 1129.62 69.7109C1129.76 69.5495 1129.98 69.4688 1130.26 69.4688C1130.53 69.4688 1130.74 69.5495 1130.89 69.7109C1131.04 69.8724 1131.12 70.0703 1131.12 70.3047C1131.12 70.5286 1131.04 70.7214 1130.89 70.8828C1130.74 71.0391 1130.53 71.1172 1130.26 71.1172C1129.98 71.1172 1129.76 71.0391 1129.62 70.8828C1129.48 70.7214 1129.41 70.5286 1129.41 70.3047ZM1132.91 76.8672V76.6875C1132.91 76.0781 1132.99 75.513 1133.17 74.9922C1133.35 74.4661 1133.6 74.0104 1133.94 73.625C1134.27 73.2344 1134.67 72.9323 1135.15 72.7188C1135.62 72.5 1136.15 72.3906 1136.74 72.3906C1137.34 72.3906 1137.87 72.5 1138.34 72.7188C1138.82 72.9323 1139.23 73.2344 1139.56 73.625C1139.9 74.0104 1140.16 74.4661 1140.34 74.9922C1140.51 75.513 1140.6 76.0781 1140.6 76.6875V76.8672C1140.6 77.4766 1140.51 78.0417 1140.34 78.5625C1140.16 79.0833 1139.9 79.5391 1139.56 79.9297C1139.23 80.3151 1138.83 80.6172 1138.35 80.8359C1137.88 81.0495 1137.35 81.1562 1136.76 81.1562C1136.16 81.1562 1135.63 81.0495 1135.16 80.8359C1134.68 80.6172 1134.28 80.3151 1133.94 79.9297C1133.6 79.5391 1133.35 79.0833 1133.17 78.5625C1132.99 78.0417 1132.91 77.4766 1132.91 76.8672ZM1134.35 76.6875V76.8672C1134.35 77.2891 1134.4 77.6875 1134.5 78.0625C1134.6 78.4323 1134.75 78.7604 1134.95 79.0469C1135.15 79.3333 1135.4 79.5599 1135.7 79.7266C1136.01 79.888 1136.36 79.9688 1136.76 79.9688C1137.15 79.9688 1137.5 79.888 1137.8 79.7266C1138.1 79.5599 1138.35 79.3333 1138.55 79.0469C1138.74 78.7604 1138.89 78.4323 1138.99 78.0625C1139.1 77.6875 1139.15 77.2891 1139.15 76.8672V76.6875C1139.15 76.2708 1139.1 75.8776 1138.99 75.5078C1138.89 75.1328 1138.74 74.8021 1138.54 74.5156C1138.34 74.224 1138.09 73.9948 1137.79 73.8281C1137.49 73.6615 1137.14 73.5781 1136.74 73.5781C1136.35 73.5781 1136 73.6615 1135.7 73.8281C1135.4 73.9948 1135.15 74.224 1134.95 74.5156C1134.75 74.8021 1134.6 75.1328 1134.5 75.5078C1134.4 75.8776 1134.35 76.2708 1134.35 76.6875ZM1143.86 74.3516V81H1142.41V72.5469H1143.78L1143.86 74.3516ZM1143.52 76.4531L1142.91 76.4297C1142.92 75.8516 1143.01 75.3177 1143.17 74.8281C1143.34 74.3333 1143.57 73.9036 1143.88 73.5391C1144.18 73.1745 1144.54 72.8932 1144.95 72.6953C1145.38 72.4922 1145.84 72.3906 1146.35 72.3906C1146.77 72.3906 1147.14 72.4479 1147.48 72.5625C1147.81 72.6719 1148.09 72.849 1148.33 73.0938C1148.57 73.3385 1148.75 73.6562 1148.88 74.0469C1149 74.4323 1149.06 74.9036 1149.06 75.4609V81H1147.61V75.4453C1147.61 75.0026 1147.54 74.6484 1147.41 74.3828C1147.28 74.112 1147.09 73.9167 1146.84 73.7969C1146.59 73.6719 1146.29 73.6094 1145.92 73.6094C1145.56 73.6094 1145.23 73.6849 1144.94 73.8359C1144.65 73.987 1144.39 74.1953 1144.18 74.4609C1143.97 74.7266 1143.81 75.0312 1143.69 75.375C1143.57 75.7135 1143.52 76.0729 1143.52 76.4531Z" fill="black"/>
</svg>
