<svg width="386" height="30" viewBox="0 0 386 30" fill="none" xmlns="http://www.w3.org/2000/svg">
<path d="M4.82617 15.5967H2.16699V14.5234H4.82617C5.34115 14.5234 5.75814 14.4414 6.07715 14.2773C6.39616 14.1133 6.62858 13.8854 6.77441 13.5938C6.9248 13.3021 7 12.9694 7 12.5957C7 12.2539 6.9248 11.9326 6.77441 11.6318C6.62858 11.3311 6.39616 11.0895 6.07715 10.9072C5.75814 10.7204 5.34115 10.627 4.82617 10.627H2.47461V19.5H1.15527V9.54688H4.82617C5.57812 9.54688 6.21387 9.67676 6.7334 9.93652C7.25293 10.1963 7.64714 10.5563 7.91602 11.0166C8.1849 11.4723 8.31934 11.9941 8.31934 12.582C8.31934 13.2201 8.1849 13.7646 7.91602 14.2158C7.64714 14.667 7.25293 15.0111 6.7334 15.248C6.21387 15.4805 5.57812 15.5967 4.82617 15.5967ZM11.0605 9V19.5H9.7959V9H11.0605ZM10.7598 15.5215L10.2334 15.501C10.238 14.9951 10.3132 14.528 10.459 14.0996C10.6048 13.6667 10.8099 13.2907 11.0742 12.9717C11.3385 12.6527 11.653 12.4066 12.0176 12.2334C12.3867 12.0557 12.7946 11.9668 13.2412 11.9668C13.6058 11.9668 13.9339 12.0169 14.2256 12.1172C14.5173 12.2129 14.7656 12.3678 14.9707 12.582C15.1803 12.7962 15.3398 13.0742 15.4492 13.416C15.5586 13.7533 15.6133 14.1657 15.6133 14.6533V19.5H14.3418V14.6396C14.3418 14.2523 14.2848 13.9424 14.1709 13.71C14.057 13.473 13.8906 13.3021 13.6719 13.1973C13.4531 13.0879 13.1842 13.0332 12.8652 13.0332C12.5508 13.0332 12.2637 13.0993 12.0039 13.2314C11.7487 13.3636 11.5277 13.5459 11.3408 13.7783C11.1585 14.0107 11.015 14.2773 10.9102 14.5781C10.8099 14.8743 10.7598 15.1888 10.7598 15.5215ZM17.1719 15.8838V15.7266C17.1719 15.1934 17.2493 14.6989 17.4043 14.2432C17.5592 13.7829 17.7826 13.3841 18.0742 13.0469C18.3659 12.7051 18.7191 12.4408 19.1338 12.2539C19.5485 12.0625 20.0133 11.9668 20.5283 11.9668C21.0479 11.9668 21.515 12.0625 21.9297 12.2539C22.349 12.4408 22.7044 12.7051 22.9961 13.0469C23.2923 13.3841 23.5179 13.7829 23.6729 14.2432C23.8278 14.6989 23.9053 15.1934 23.9053 15.7266V15.8838C23.9053 16.417 23.8278 16.9115 23.6729 17.3672C23.5179 17.8229 23.2923 18.2217 22.9961 18.5635C22.7044 18.9007 22.3512 19.165 21.9365 19.3564C21.5264 19.5433 21.0615 19.6367 20.542 19.6367C20.0225 19.6367 19.5553 19.5433 19.1406 19.3564C18.7259 19.165 18.3704 18.9007 18.0742 18.5635C17.7826 18.2217 17.5592 17.8229 17.4043 17.3672C17.2493 16.9115 17.1719 16.417 17.1719 15.8838ZM18.4365 15.7266V15.8838C18.4365 16.2529 18.4798 16.6016 18.5664 16.9297C18.653 17.2533 18.7829 17.5404 18.9561 17.791C19.1338 18.0417 19.3548 18.2399 19.6191 18.3857C19.8835 18.527 20.1911 18.5977 20.542 18.5977C20.8883 18.5977 21.1914 18.527 21.4512 18.3857C21.7155 18.2399 21.9342 18.0417 22.1074 17.791C22.2806 17.5404 22.4105 17.2533 22.4971 16.9297C22.5882 16.6016 22.6338 16.2529 22.6338 15.8838V15.7266C22.6338 15.362 22.5882 15.0179 22.4971 14.6943C22.4105 14.3662 22.2783 14.0768 22.1006 13.8262C21.9274 13.571 21.7087 13.3704 21.4443 13.2246C21.1846 13.0788 20.8792 13.0059 20.5283 13.0059C20.182 13.0059 19.8766 13.0788 19.6123 13.2246C19.3525 13.3704 19.1338 13.571 18.9561 13.8262C18.7829 14.0768 18.653 14.3662 18.5664 14.6943C18.4798 15.0179 18.4365 15.362 18.4365 15.7266ZM26.7559 13.6826V19.5H25.4912V12.1035H26.6875L26.7559 13.6826ZM26.4551 15.5215L25.9287 15.501C25.9333 14.9951 26.0085 14.528 26.1543 14.0996C26.3001 13.6667 26.5052 13.2907 26.7695 12.9717C27.0339 12.6527 27.3483 12.4066 27.7129 12.2334C28.082 12.0557 28.4899 11.9668 28.9365 11.9668C29.3011 11.9668 29.6292 12.0169 29.9209 12.1172C30.2126 12.2129 30.4609 12.3678 30.666 12.582C30.8757 12.7962 31.0352 13.0742 31.1445 13.416C31.2539 13.7533 31.3086 14.1657 31.3086 14.6533V19.5H30.0371V14.6396C30.0371 14.2523 29.9801 13.9424 29.8662 13.71C29.7523 13.473 29.5859 13.3021 29.3672 13.1973C29.1484 13.0879 28.8796 13.0332 28.5605 13.0332C28.2461 13.0332 27.959 13.0993 27.6992 13.2314C27.444 13.3636 27.223 13.5459 27.0361 13.7783C26.8538 14.0107 26.7103 14.2773 26.6055 14.5781C26.5052 14.8743 26.4551 15.1888 26.4551 15.5215ZM36.2988 19.6367C35.7839 19.6367 35.3167 19.5501 34.8975 19.377C34.4827 19.1992 34.125 18.9508 33.8242 18.6318C33.528 18.3128 33.3001 17.9346 33.1406 17.4971C32.9811 17.0596 32.9014 16.5811 32.9014 16.0615V15.7744C32.9014 15.1729 32.9902 14.6374 33.168 14.168C33.3457 13.694 33.5872 13.293 33.8926 12.9648C34.1979 12.6367 34.5443 12.3883 34.9316 12.2197C35.319 12.0511 35.7201 11.9668 36.1348 11.9668C36.6634 11.9668 37.1191 12.0579 37.502 12.2402C37.8893 12.4225 38.2061 12.6777 38.4521 13.0059C38.6982 13.3294 38.8805 13.7122 38.999 14.1543C39.1175 14.5918 39.1768 15.0703 39.1768 15.5898V16.1572H33.6533V15.125H37.9121V15.0293C37.8939 14.7012 37.8255 14.3822 37.707 14.0723C37.5931 13.7624 37.4108 13.5072 37.1602 13.3066C36.9095 13.1061 36.5677 13.0059 36.1348 13.0059C35.8477 13.0059 35.5833 13.0674 35.3418 13.1904C35.1003 13.3089 34.8929 13.4867 34.7197 13.7236C34.5465 13.9606 34.4121 14.25 34.3164 14.5918C34.2207 14.9336 34.1729 15.3278 34.1729 15.7744V16.0615C34.1729 16.4124 34.2207 16.7428 34.3164 17.0527C34.4167 17.3581 34.5602 17.627 34.7471 17.8594C34.9385 18.0918 35.1686 18.2741 35.4375 18.4062C35.7109 18.5384 36.0208 18.6045 36.3672 18.6045C36.8138 18.6045 37.1921 18.5133 37.502 18.3311C37.8118 18.1488 38.083 17.9049 38.3154 17.5996L39.0811 18.208C38.9215 18.4495 38.7188 18.6797 38.4727 18.8984C38.2266 19.1172 37.9235 19.2949 37.5635 19.4316C37.208 19.5684 36.7865 19.6367 36.2988 19.6367ZM51.9736 9.54688V19.5H50.6475L45.6367 11.8232V19.5H44.3174V9.54688H45.6367L50.668 17.2441V9.54688H51.9736ZM58.6455 17.791V12.1035H59.917V19.5H58.707L58.6455 17.791ZM58.8848 16.2324L59.4111 16.2188C59.4111 16.7109 59.3587 17.1667 59.2539 17.5859C59.1536 18.0007 58.9896 18.3607 58.7617 18.666C58.5339 18.9714 58.2354 19.2106 57.8662 19.3838C57.4971 19.5524 57.0482 19.6367 56.5195 19.6367C56.1595 19.6367 55.8291 19.5843 55.5283 19.4795C55.2321 19.3747 54.9769 19.2129 54.7627 18.9941C54.5485 18.7754 54.3822 18.4906 54.2637 18.1396C54.1497 17.7887 54.0928 17.3672 54.0928 16.875V12.1035H55.3574V16.8887C55.3574 17.2214 55.3939 17.4971 55.4668 17.7158C55.5443 17.93 55.6468 18.1009 55.7744 18.2285C55.9066 18.3516 56.0524 18.4382 56.2119 18.4883C56.376 18.5384 56.5446 18.5635 56.7178 18.5635C57.2555 18.5635 57.6816 18.4609 57.9961 18.2559C58.3105 18.0462 58.5361 17.766 58.6729 17.415C58.8141 17.0596 58.8848 16.6654 58.8848 16.2324ZM63.1025 13.5732V19.5H61.8311V12.1035H63.0342L63.1025 13.5732ZM62.8428 15.5215L62.2549 15.501C62.2594 14.9951 62.3255 14.528 62.4531 14.0996C62.5807 13.6667 62.7699 13.2907 63.0205 12.9717C63.2712 12.6527 63.5833 12.4066 63.957 12.2334C64.3307 12.0557 64.7637 11.9668 65.2559 11.9668C65.6022 11.9668 65.9212 12.0169 66.2129 12.1172C66.5046 12.2129 66.7575 12.3656 66.9717 12.5752C67.1859 12.7848 67.3522 13.0537 67.4707 13.3818C67.5892 13.71 67.6484 14.1064 67.6484 14.5713V19.5H66.3838V14.6328C66.3838 14.2454 66.3177 13.9355 66.1855 13.7031C66.0579 13.4707 65.8757 13.3021 65.6387 13.1973C65.4017 13.0879 65.1237 13.0332 64.8047 13.0332C64.431 13.0332 64.1188 13.0993 63.8682 13.2314C63.6175 13.3636 63.417 13.5459 63.2666 13.7783C63.1162 14.0107 63.0068 14.2773 62.9385 14.5781C62.8747 14.8743 62.8428 15.1888 62.8428 15.5215ZM67.6348 14.8242L66.7871 15.084C66.7917 14.6784 66.8577 14.2887 66.9854 13.915C67.1175 13.5413 67.3066 13.2087 67.5527 12.917C67.8034 12.6253 68.111 12.3952 68.4756 12.2266C68.8402 12.0534 69.2572 11.9668 69.7266 11.9668C70.123 11.9668 70.474 12.0192 70.7793 12.124C71.0892 12.2288 71.349 12.3906 71.5586 12.6094C71.7728 12.8236 71.9346 13.0993 72.0439 13.4365C72.1533 13.7738 72.208 14.1748 72.208 14.6396V19.5H70.9365V14.626C70.9365 14.2113 70.8704 13.89 70.7383 13.6621C70.6107 13.4297 70.4284 13.2679 70.1914 13.1768C69.959 13.0811 69.681 13.0332 69.3574 13.0332C69.0794 13.0332 68.8333 13.0811 68.6191 13.1768C68.4049 13.2725 68.2249 13.4046 68.0791 13.5732C67.9333 13.7373 67.8216 13.9264 67.7441 14.1406C67.6712 14.3548 67.6348 14.5827 67.6348 14.8242ZM74.1152 9H75.3867V18.0645L75.2773 19.5H74.1152V9ZM80.3838 15.7402V15.8838C80.3838 16.4215 80.32 16.9206 80.1924 17.3809C80.0648 17.8366 79.8779 18.2331 79.6318 18.5703C79.3857 18.9076 79.085 19.1696 78.7295 19.3564C78.374 19.5433 77.9661 19.6367 77.5059 19.6367C77.0365 19.6367 76.624 19.557 76.2686 19.3975C75.9176 19.2334 75.6214 18.9987 75.3799 18.6934C75.1383 18.388 74.9447 18.0189 74.7988 17.5859C74.6576 17.153 74.5596 16.6654 74.5049 16.123V15.4941C74.5596 14.9473 74.6576 14.4574 74.7988 14.0244C74.9447 13.5915 75.1383 13.2223 75.3799 12.917C75.6214 12.6071 75.9176 12.3724 76.2686 12.2129C76.6195 12.0488 77.0273 11.9668 77.4922 11.9668C77.957 11.9668 78.3695 12.0579 78.7295 12.2402C79.0895 12.418 79.3903 12.6732 79.6318 13.0059C79.8779 13.3385 80.0648 13.7373 80.1924 14.2021C80.32 14.6624 80.3838 15.1751 80.3838 15.7402ZM79.1123 15.8838V15.7402C79.1123 15.3711 79.0781 15.0247 79.0098 14.7012C78.9414 14.373 78.832 14.0859 78.6816 13.8398C78.5312 13.5892 78.333 13.3932 78.0869 13.252C77.8408 13.1061 77.5378 13.0332 77.1777 13.0332C76.8587 13.0332 76.5807 13.0879 76.3438 13.1973C76.1113 13.3066 75.9131 13.4548 75.749 13.6416C75.585 13.8239 75.4505 14.0335 75.3457 14.2705C75.2454 14.5029 75.1702 14.7445 75.1201 14.9951V16.6426C75.193 16.9616 75.3115 17.2692 75.4756 17.5654C75.6442 17.8571 75.8675 18.0964 76.1455 18.2832C76.4281 18.4701 76.7767 18.5635 77.1914 18.5635C77.5332 18.5635 77.8249 18.4951 78.0664 18.3584C78.3125 18.2171 78.5107 18.0234 78.6611 17.7773C78.8161 17.5312 78.93 17.2464 79.0029 16.9229C79.0758 16.5993 79.1123 16.2529 79.1123 15.8838ZM85.0527 19.6367C84.5378 19.6367 84.0706 19.5501 83.6514 19.377C83.2367 19.1992 82.8789 18.9508 82.5781 18.6318C82.2819 18.3128 82.054 17.9346 81.8945 17.4971C81.735 17.0596 81.6553 16.5811 81.6553 16.0615V15.7744C81.6553 15.1729 81.7441 14.6374 81.9219 14.168C82.0996 13.694 82.3411 13.293 82.6465 12.9648C82.9518 12.6367 83.2982 12.3883 83.6855 12.2197C84.0729 12.0511 84.474 11.9668 84.8887 11.9668C85.4173 11.9668 85.873 12.0579 86.2559 12.2402C86.6432 12.4225 86.96 12.6777 87.2061 13.0059C87.4521 13.3294 87.6344 13.7122 87.7529 14.1543C87.8714 14.5918 87.9307 15.0703 87.9307 15.5898V16.1572H82.4072V15.125H86.666V15.0293C86.6478 14.7012 86.5794 14.3822 86.4609 14.0723C86.347 13.7624 86.1647 13.5072 85.9141 13.3066C85.6634 13.1061 85.3216 13.0059 84.8887 13.0059C84.6016 13.0059 84.3372 13.0674 84.0957 13.1904C83.8542 13.3089 83.6468 13.4867 83.4736 13.7236C83.3005 13.9606 83.166 14.25 83.0703 14.5918C82.9746 14.9336 82.9268 15.3278 82.9268 15.7744V16.0615C82.9268 16.4124 82.9746 16.7428 83.0703 17.0527C83.1706 17.3581 83.3141 17.627 83.501 17.8594C83.6924 18.0918 83.9225 18.2741 84.1914 18.4062C84.4648 18.5384 84.7747 18.6045 85.1211 18.6045C85.5677 18.6045 85.946 18.5133 86.2559 18.3311C86.5658 18.1488 86.8369 17.9049 87.0693 17.5996L87.835 18.208C87.6755 18.4495 87.4727 18.6797 87.2266 18.8984C86.9805 19.1172 86.6774 19.2949 86.3174 19.4316C85.9619 19.5684 85.5404 19.6367 85.0527 19.6367ZM90.6719 13.2656V19.5H89.4072V12.1035H90.6377L90.6719 13.2656ZM92.9824 12.0625L92.9756 13.2383C92.8708 13.2155 92.7705 13.2018 92.6748 13.1973C92.5837 13.1882 92.4788 13.1836 92.3604 13.1836C92.0687 13.1836 91.8112 13.2292 91.5879 13.3203C91.3646 13.4115 91.1755 13.5391 91.0205 13.7031C90.8656 13.8672 90.7425 14.0632 90.6514 14.291C90.5648 14.5143 90.5078 14.7604 90.4805 15.0293L90.125 15.2344C90.125 14.7878 90.1683 14.3685 90.2549 13.9766C90.346 13.5846 90.485 13.2383 90.6719 12.9375C90.8587 12.6322 91.0957 12.3952 91.3828 12.2266C91.6745 12.0534 92.0208 11.9668 92.4219 11.9668C92.513 11.9668 92.6178 11.9782 92.7363 12.001C92.8548 12.0192 92.9368 12.0397 92.9824 12.0625ZM94.0967 18.8301C94.0967 18.6159 94.1628 18.4359 94.2949 18.29C94.4316 18.1396 94.6276 18.0645 94.8828 18.0645C95.138 18.0645 95.3317 18.1396 95.4639 18.29C95.6006 18.4359 95.6689 18.6159 95.6689 18.8301C95.6689 19.0397 95.6006 19.2174 95.4639 19.3633C95.3317 19.5091 95.138 19.582 94.8828 19.582C94.6276 19.582 94.4316 19.5091 94.2949 19.3633C94.1628 19.2174 94.0967 19.0397 94.0967 18.8301ZM94.1035 12.7939C94.1035 12.5798 94.1696 12.3997 94.3018 12.2539C94.4385 12.1035 94.6344 12.0283 94.8896 12.0283C95.1449 12.0283 95.3385 12.1035 95.4707 12.2539C95.6074 12.3997 95.6758 12.5798 95.6758 12.7939C95.6758 13.0036 95.6074 13.1813 95.4707 13.3271C95.3385 13.473 95.1449 13.5459 94.8896 13.5459C94.6344 13.5459 94.4385 13.473 94.3018 13.3271C94.1696 13.1813 94.1035 13.0036 94.1035 12.7939ZM102.136 18.4404H102.266C102.995 18.4404 103.587 18.3379 104.043 18.1328C104.499 17.9277 104.85 17.652 105.096 17.3057C105.342 16.9593 105.51 16.5697 105.602 16.1367C105.693 15.6992 105.738 15.2503 105.738 14.79V13.2656C105.738 12.8145 105.686 12.4134 105.581 12.0625C105.481 11.7116 105.34 11.4176 105.157 11.1807C104.979 10.9437 104.777 10.7637 104.549 10.6406C104.321 10.5176 104.079 10.4561 103.824 10.4561C103.533 10.4561 103.271 10.5153 103.038 10.6338C102.81 10.7477 102.617 10.9095 102.457 11.1191C102.302 11.3288 102.184 11.5749 102.102 11.8574C102.02 12.14 101.979 12.4476 101.979 12.7803C101.979 13.0765 102.015 13.3636 102.088 13.6416C102.161 13.9196 102.272 14.1702 102.423 14.3936C102.573 14.6169 102.76 14.7946 102.983 14.9268C103.211 15.0544 103.478 15.1182 103.783 15.1182C104.066 15.1182 104.33 15.0635 104.576 14.9541C104.827 14.8402 105.048 14.6875 105.239 14.4961C105.435 14.3001 105.59 14.0791 105.704 13.833C105.823 13.5869 105.891 13.3294 105.909 13.0605H106.511C106.511 13.4388 106.436 13.8125 106.285 14.1816C106.139 14.5462 105.934 14.8789 105.67 15.1797C105.406 15.4805 105.096 15.722 104.74 15.9043C104.385 16.082 103.997 16.1709 103.578 16.1709C103.086 16.1709 102.66 16.0752 102.3 15.8838C101.94 15.6924 101.644 15.4372 101.411 15.1182C101.183 14.7992 101.012 14.4437 100.898 14.0518C100.789 13.6553 100.734 13.2542 100.734 12.8486C100.734 12.3747 100.8 11.9303 100.933 11.5156C101.065 11.1009 101.261 10.7363 101.521 10.4219C101.78 10.1029 102.102 9.85449 102.484 9.67676C102.872 9.49902 103.318 9.41016 103.824 9.41016C104.394 9.41016 104.879 9.52409 105.28 9.75195C105.681 9.97982 106.007 10.2852 106.258 10.668C106.513 11.0508 106.7 11.4814 106.818 11.96C106.937 12.4385 106.996 12.9307 106.996 13.4365V13.8945C106.996 14.4095 106.962 14.9336 106.894 15.4668C106.83 15.9954 106.704 16.5013 106.518 16.9844C106.335 17.4674 106.069 17.9004 105.718 18.2832C105.367 18.6615 104.909 18.9622 104.344 19.1855C103.783 19.4043 103.09 19.5137 102.266 19.5137H102.136V18.4404ZM110.353 14.7627L109.341 14.5029L109.84 9.54688H114.946V10.7158H110.913L110.612 13.4229C110.795 13.318 111.025 13.2201 111.303 13.1289C111.585 13.0378 111.909 12.9922 112.273 12.9922C112.734 12.9922 113.146 13.0719 113.511 13.2314C113.875 13.3864 114.185 13.6097 114.44 13.9014C114.7 14.193 114.898 14.5439 115.035 14.9541C115.172 15.3643 115.24 15.8223 115.24 16.3281C115.24 16.8066 115.174 17.2464 115.042 17.6475C114.914 18.0485 114.721 18.3994 114.461 18.7002C114.201 18.9964 113.873 19.2266 113.477 19.3906C113.085 19.5547 112.622 19.6367 112.089 19.6367C111.688 19.6367 111.307 19.582 110.947 19.4727C110.592 19.3587 110.273 19.1878 109.99 18.96C109.712 18.7275 109.484 18.4404 109.307 18.0986C109.133 17.7523 109.024 17.3467 108.979 16.8818H110.182C110.236 17.2555 110.346 17.57 110.51 17.8252C110.674 18.0804 110.888 18.2741 111.152 18.4062C111.421 18.5339 111.733 18.5977 112.089 18.5977C112.39 18.5977 112.656 18.5452 112.889 18.4404C113.121 18.3356 113.317 18.1852 113.477 17.9893C113.636 17.7933 113.757 17.5563 113.839 17.2783C113.925 17.0003 113.969 16.6882 113.969 16.3418C113.969 16.0273 113.925 15.7357 113.839 15.4668C113.752 15.1979 113.622 14.9632 113.449 14.7627C113.281 14.5622 113.073 14.4072 112.827 14.2979C112.581 14.1839 112.299 14.127 111.979 14.127C111.556 14.127 111.234 14.1839 111.016 14.2979C110.801 14.4118 110.58 14.5667 110.353 14.7627ZM121.481 9.5332H121.591V10.6064H121.481C120.812 10.6064 120.251 10.7158 119.8 10.9346C119.349 11.1488 118.991 11.4382 118.727 11.8027C118.462 12.1628 118.271 12.5684 118.152 13.0195C118.038 13.4707 117.981 13.9287 117.981 14.3936V15.8564C117.981 16.2985 118.034 16.6904 118.139 17.0322C118.243 17.3695 118.387 17.6543 118.569 17.8867C118.752 18.1191 118.957 18.2946 119.185 18.4131C119.417 18.5316 119.659 18.5908 119.909 18.5908C120.201 18.5908 120.461 18.5361 120.688 18.4268C120.916 18.3128 121.108 18.1556 121.263 17.9551C121.422 17.75 121.543 17.5085 121.625 17.2305C121.707 16.9525 121.748 16.6471 121.748 16.3145C121.748 16.0182 121.712 15.7334 121.639 15.46C121.566 15.182 121.454 14.9359 121.304 14.7217C121.153 14.5029 120.964 14.332 120.736 14.209C120.513 14.0814 120.246 14.0176 119.937 14.0176C119.586 14.0176 119.257 14.1042 118.952 14.2773C118.651 14.446 118.403 14.6693 118.207 14.9473C118.016 15.2207 117.906 15.5192 117.879 15.8428L117.209 15.8359C117.273 15.3255 117.391 14.8903 117.564 14.5303C117.742 14.1657 117.961 13.8695 118.221 13.6416C118.485 13.4092 118.779 13.2406 119.103 13.1357C119.431 13.0264 119.777 12.9717 120.142 12.9717C120.638 12.9717 121.067 13.0651 121.427 13.252C121.787 13.4388 122.083 13.6895 122.315 14.0039C122.548 14.3138 122.719 14.6647 122.828 15.0566C122.942 15.444 122.999 15.8428 122.999 16.2529C122.999 16.7223 122.933 17.1621 122.801 17.5723C122.669 17.9824 122.47 18.3424 122.206 18.6523C121.946 18.9622 121.625 19.2038 121.242 19.377C120.859 19.5501 120.415 19.6367 119.909 19.6367C119.371 19.6367 118.902 19.5273 118.501 19.3086C118.1 19.0853 117.767 18.7891 117.503 18.4199C117.239 18.0508 117.04 17.6406 116.908 17.1895C116.776 16.7383 116.71 16.2803 116.71 15.8154V15.2207C116.71 14.5189 116.781 13.8307 116.922 13.1562C117.063 12.4818 117.307 11.8711 117.653 11.3242C118.004 10.7773 118.49 10.3421 119.109 10.0186C119.729 9.69499 120.52 9.5332 121.481 9.5332ZM134.408 9.54688V10.2578L130.286 19.5H128.953L133.068 10.5859H127.682V9.54688H134.408ZM142.577 16.1504V17.1895H135.386V16.4443L139.843 9.54688H140.875L139.768 11.543L136.821 16.1504H142.577ZM141.189 9.54688V19.5H139.925V9.54688H141.189ZM150.247 18.4609V19.5H143.732V18.5908L146.993 14.9609C147.394 14.5143 147.704 14.1361 147.923 13.8262C148.146 13.5117 148.301 13.2314 148.388 12.9854C148.479 12.7347 148.524 12.4795 148.524 12.2197C148.524 11.8916 148.456 11.5954 148.319 11.3311C148.187 11.0622 147.991 10.848 147.731 10.6885C147.472 10.529 147.157 10.4492 146.788 10.4492C146.346 10.4492 145.977 10.5358 145.681 10.709C145.389 10.8776 145.17 11.1146 145.024 11.4199C144.879 11.7253 144.806 12.0762 144.806 12.4727H143.541C143.541 11.9121 143.664 11.3994 143.91 10.9346C144.156 10.4697 144.521 10.1006 145.004 9.82715C145.487 9.54915 146.082 9.41016 146.788 9.41016C147.417 9.41016 147.955 9.52181 148.401 9.74512C148.848 9.96387 149.19 10.2738 149.427 10.6748C149.668 11.0713 149.789 11.5361 149.789 12.0693C149.789 12.361 149.739 12.6572 149.639 12.958C149.543 13.2542 149.409 13.5505 149.235 13.8467C149.067 14.1429 148.868 14.4346 148.641 14.7217C148.417 15.0088 148.178 15.2913 147.923 15.5693L145.257 18.4609H150.247ZM161.8 16.1504V17.1895H154.608V16.4443L159.065 9.54688H160.098L158.99 11.543L156.044 16.1504H161.8ZM160.412 9.54688V19.5H159.147V9.54688H160.412ZM164.548 14.7627L163.536 14.5029L164.035 9.54688H169.142V10.7158H165.108L164.808 13.4229C164.99 13.318 165.22 13.2201 165.498 13.1289C165.781 13.0378 166.104 12.9922 166.469 12.9922C166.929 12.9922 167.341 13.0719 167.706 13.2314C168.071 13.3864 168.381 13.6097 168.636 13.9014C168.896 14.193 169.094 14.5439 169.23 14.9541C169.367 15.3643 169.436 15.8223 169.436 16.3281C169.436 16.8066 169.369 17.2464 169.237 17.6475C169.11 18.0485 168.916 18.3994 168.656 18.7002C168.396 18.9964 168.068 19.2266 167.672 19.3906C167.28 19.5547 166.817 19.6367 166.284 19.6367C165.883 19.6367 165.503 19.582 165.143 19.4727C164.787 19.3587 164.468 19.1878 164.186 18.96C163.908 18.7275 163.68 18.4404 163.502 18.0986C163.329 17.7523 163.219 17.3467 163.174 16.8818H164.377C164.432 17.2555 164.541 17.57 164.705 17.8252C164.869 18.0804 165.083 18.2741 165.348 18.4062C165.617 18.5339 165.929 18.5977 166.284 18.5977C166.585 18.5977 166.852 18.5452 167.084 18.4404C167.316 18.3356 167.512 18.1852 167.672 17.9893C167.831 17.7933 167.952 17.5563 168.034 17.2783C168.121 17.0003 168.164 16.6882 168.164 16.3418C168.164 16.0273 168.121 15.7357 168.034 15.4668C167.948 15.1979 167.818 14.9632 167.645 14.7627C167.476 14.5622 167.269 14.4072 167.022 14.2979C166.776 14.1839 166.494 14.127 166.175 14.127C165.751 14.127 165.43 14.1839 165.211 14.2979C164.997 14.4118 164.776 14.5667 164.548 14.7627ZM172.423 14.7627L171.411 14.5029L171.91 9.54688H177.017V10.7158H172.983L172.683 13.4229C172.865 13.318 173.095 13.2201 173.373 13.1289C173.656 13.0378 173.979 12.9922 174.344 12.9922C174.804 12.9922 175.216 13.0719 175.581 13.2314C175.946 13.3864 176.256 13.6097 176.511 13.9014C176.771 14.193 176.969 14.5439 177.105 14.9541C177.242 15.3643 177.311 15.8223 177.311 16.3281C177.311 16.8066 177.244 17.2464 177.112 17.6475C176.985 18.0485 176.791 18.3994 176.531 18.7002C176.271 18.9964 175.943 19.2266 175.547 19.3906C175.155 19.5547 174.692 19.6367 174.159 19.6367C173.758 19.6367 173.378 19.582 173.018 19.4727C172.662 19.3587 172.343 19.1878 172.061 18.96C171.783 18.7275 171.555 18.4404 171.377 18.0986C171.204 17.7523 171.094 17.3467 171.049 16.8818H172.252C172.307 17.2555 172.416 17.57 172.58 17.8252C172.744 18.0804 172.958 18.2741 173.223 18.4062C173.492 18.5339 173.804 18.5977 174.159 18.5977C174.46 18.5977 174.727 18.5452 174.959 18.4404C175.191 18.3356 175.387 18.1852 175.547 17.9893C175.706 17.7933 175.827 17.5563 175.909 17.2783C175.996 17.0003 176.039 16.6882 176.039 16.3418C176.039 16.0273 175.996 15.7357 175.909 15.4668C175.823 15.1979 175.693 14.9632 175.52 14.7627C175.351 14.5622 175.144 14.4072 174.897 14.2979C174.651 14.1839 174.369 14.127 174.05 14.127C173.626 14.127 173.305 14.1839 173.086 14.2979C172.872 14.4118 172.651 14.5667 172.423 14.7627ZM187.024 9.5332H187.134V10.6064H187.024C186.354 10.6064 185.794 10.7158 185.343 10.9346C184.892 11.1488 184.534 11.4382 184.27 11.8027C184.005 12.1628 183.814 12.5684 183.695 13.0195C183.581 13.4707 183.524 13.9287 183.524 14.3936V15.8564C183.524 16.2985 183.577 16.6904 183.682 17.0322C183.786 17.3695 183.93 17.6543 184.112 17.8867C184.295 18.1191 184.5 18.2946 184.728 18.4131C184.96 18.5316 185.201 18.5908 185.452 18.5908C185.744 18.5908 186.004 18.5361 186.231 18.4268C186.459 18.3128 186.651 18.1556 186.806 17.9551C186.965 17.75 187.086 17.5085 187.168 17.2305C187.25 16.9525 187.291 16.6471 187.291 16.3145C187.291 16.0182 187.255 15.7334 187.182 15.46C187.109 15.182 186.997 14.9359 186.847 14.7217C186.696 14.5029 186.507 14.332 186.279 14.209C186.056 14.0814 185.789 14.0176 185.479 14.0176C185.129 14.0176 184.8 14.1042 184.495 14.2773C184.194 14.446 183.946 14.6693 183.75 14.9473C183.559 15.2207 183.449 15.5192 183.422 15.8428L182.752 15.8359C182.816 15.3255 182.934 14.8903 183.107 14.5303C183.285 14.1657 183.504 13.8695 183.764 13.6416C184.028 13.4092 184.322 13.2406 184.646 13.1357C184.974 13.0264 185.32 12.9717 185.685 12.9717C186.181 12.9717 186.61 13.0651 186.97 13.252C187.33 13.4388 187.626 13.6895 187.858 14.0039C188.091 14.3138 188.262 14.6647 188.371 15.0566C188.485 15.444 188.542 15.8428 188.542 16.2529C188.542 16.7223 188.476 17.1621 188.344 17.5723C188.212 17.9824 188.013 18.3424 187.749 18.6523C187.489 18.9622 187.168 19.2038 186.785 19.377C186.402 19.5501 185.958 19.6367 185.452 19.6367C184.914 19.6367 184.445 19.5273 184.044 19.3086C183.643 19.0853 183.31 18.7891 183.046 18.4199C182.782 18.0508 182.583 17.6406 182.451 17.1895C182.319 16.7383 182.253 16.2803 182.253 15.8154V15.2207C182.253 14.5189 182.324 13.8307 182.465 13.1562C182.606 12.4818 182.85 11.8711 183.196 11.3242C183.547 10.7773 184.033 10.3421 184.652 10.0186C185.272 9.69499 186.063 9.5332 187.024 9.5332ZM196.479 9.54688V10.2578L192.356 19.5H191.023L195.139 10.5859H189.752V9.54688H196.479ZM204.196 16.8066C204.196 17.4128 204.055 17.9277 203.772 18.3516C203.494 18.7708 203.116 19.0898 202.638 19.3086C202.164 19.5273 201.628 19.6367 201.031 19.6367C200.434 19.6367 199.896 19.5273 199.418 19.3086C198.939 19.0898 198.561 18.7708 198.283 18.3516C198.005 17.9277 197.866 17.4128 197.866 16.8066C197.866 16.4102 197.941 16.0479 198.092 15.7197C198.247 15.387 198.463 15.0977 198.741 14.8516C199.024 14.6055 199.356 14.4163 199.739 14.2842C200.127 14.1475 200.553 14.0791 201.018 14.0791C201.628 14.0791 202.173 14.1976 202.651 14.4346C203.13 14.667 203.506 14.9883 203.779 15.3984C204.057 15.8086 204.196 16.278 204.196 16.8066ZM202.925 16.7793C202.925 16.4102 202.845 16.0843 202.686 15.8018C202.526 15.5146 202.303 15.2913 202.016 15.1318C201.729 14.9723 201.396 14.8926 201.018 14.8926C200.63 14.8926 200.295 14.9723 200.013 15.1318C199.735 15.2913 199.518 15.5146 199.363 15.8018C199.208 16.0843 199.131 16.4102 199.131 16.7793C199.131 17.1621 199.206 17.4902 199.356 17.7637C199.511 18.0326 199.73 18.2399 200.013 18.3857C200.3 18.527 200.639 18.5977 201.031 18.5977C201.423 18.5977 201.76 18.527 202.043 18.3857C202.326 18.2399 202.542 18.0326 202.692 17.7637C202.847 17.4902 202.925 17.1621 202.925 16.7793ZM203.964 12.1377C203.964 12.6208 203.836 13.056 203.581 13.4434C203.326 13.8307 202.977 14.1361 202.535 14.3594C202.093 14.5827 201.592 14.6943 201.031 14.6943C200.462 14.6943 199.953 14.5827 199.507 14.3594C199.065 14.1361 198.718 13.8307 198.468 13.4434C198.217 13.056 198.092 12.6208 198.092 12.1377C198.092 11.5589 198.217 11.0667 198.468 10.6611C198.723 10.2555 199.072 9.94564 199.514 9.73145C199.956 9.51725 200.459 9.41016 201.024 9.41016C201.594 9.41016 202.1 9.51725 202.542 9.73145C202.984 9.94564 203.33 10.2555 203.581 10.6611C203.836 11.0667 203.964 11.5589 203.964 12.1377ZM202.699 12.1582C202.699 11.8255 202.629 11.5316 202.487 11.2764C202.346 11.0212 202.15 10.8206 201.899 10.6748C201.649 10.5244 201.357 10.4492 201.024 10.4492C200.692 10.4492 200.4 10.5199 200.149 10.6611C199.903 10.7979 199.71 10.9938 199.568 11.249C199.432 11.5042 199.363 11.8073 199.363 12.1582C199.363 12.5 199.432 12.7985 199.568 13.0537C199.71 13.3089 199.906 13.5072 200.156 13.6484C200.407 13.7897 200.699 13.8604 201.031 13.8604C201.364 13.8604 201.653 13.7897 201.899 13.6484C202.15 13.5072 202.346 13.3089 202.487 13.0537C202.629 12.7985 202.699 12.5 202.699 12.1582Z" fill="black"/>
<line x1="220.5" y1="30" x2="220.5" stroke="#676767"/>
<path d="M244.479 18.4268V19.5H239.208V18.4268H244.479ZM239.475 9.54688V19.5H238.155V9.54688H239.475ZM243.781 13.8262V14.8994H239.208V13.8262H243.781ZM244.41 9.54688V10.627H239.208V9.54688H244.41ZM247.179 13.5732V19.5H245.907V12.1035H247.11L247.179 13.5732ZM246.919 15.5215L246.331 15.501C246.336 14.9951 246.402 14.528 246.529 14.0996C246.657 13.6667 246.846 13.2907 247.097 12.9717C247.347 12.6527 247.66 12.4066 248.033 12.2334C248.407 12.0557 248.84 11.9668 249.332 11.9668C249.678 11.9668 249.997 12.0169 250.289 12.1172C250.581 12.2129 250.834 12.3656 251.048 12.5752C251.262 12.7848 251.428 13.0537 251.547 13.3818C251.665 13.71 251.725 14.1064 251.725 14.5713V19.5H250.46V14.6328C250.46 14.2454 250.394 13.9355 250.262 13.7031C250.134 13.4707 249.952 13.3021 249.715 13.1973C249.478 13.0879 249.2 13.0332 248.881 13.0332C248.507 13.0332 248.195 13.0993 247.944 13.2314C247.694 13.3636 247.493 13.5459 247.343 13.7783C247.192 14.0107 247.083 14.2773 247.015 14.5781C246.951 14.8743 246.919 15.1888 246.919 15.5215ZM251.711 14.8242L250.863 15.084C250.868 14.6784 250.934 14.2887 251.062 13.915C251.194 13.5413 251.383 13.2087 251.629 12.917C251.88 12.6253 252.187 12.3952 252.552 12.2266C252.916 12.0534 253.333 11.9668 253.803 11.9668C254.199 11.9668 254.55 12.0192 254.855 12.124C255.165 12.2288 255.425 12.3906 255.635 12.6094C255.849 12.8236 256.011 13.0993 256.12 13.4365C256.229 13.7738 256.284 14.1748 256.284 14.6396V19.5H255.013V14.626C255.013 14.2113 254.947 13.89 254.814 13.6621C254.687 13.4297 254.505 13.2679 254.268 13.1768C254.035 13.0811 253.757 13.0332 253.434 13.0332C253.156 13.0332 252.91 13.0811 252.695 13.1768C252.481 13.2725 252.301 13.4046 252.155 13.5732C252.009 13.7373 251.898 13.9264 251.82 14.1406C251.747 14.3548 251.711 14.5827 251.711 14.8242ZM262.56 18.2354V14.4277C262.56 14.1361 262.5 13.8831 262.382 13.6689C262.268 13.4502 262.095 13.2816 261.862 13.1631C261.63 13.0446 261.343 12.9854 261.001 12.9854C260.682 12.9854 260.402 13.04 260.16 13.1494C259.923 13.2588 259.736 13.4023 259.6 13.5801C259.467 13.7578 259.401 13.9492 259.401 14.1543H258.137C258.137 13.89 258.205 13.6279 258.342 13.3682C258.479 13.1084 258.674 12.8737 258.93 12.6641C259.189 12.4499 259.499 12.2812 259.859 12.1582C260.224 12.0306 260.63 11.9668 261.076 11.9668C261.614 11.9668 262.088 12.0579 262.498 12.2402C262.913 12.4225 263.236 12.6982 263.469 13.0674C263.706 13.432 263.824 13.89 263.824 14.4414V17.8867C263.824 18.1328 263.845 18.3949 263.886 18.6729C263.931 18.9508 263.997 19.1901 264.084 19.3906V19.5H262.765C262.701 19.3542 262.651 19.1605 262.614 18.9189C262.578 18.6729 262.56 18.445 262.56 18.2354ZM262.778 15.0156L262.792 15.9043H261.514C261.154 15.9043 260.832 15.9339 260.55 15.9932C260.267 16.0479 260.03 16.1322 259.839 16.2461C259.647 16.36 259.502 16.5036 259.401 16.6768C259.301 16.8454 259.251 17.0436 259.251 17.2715C259.251 17.5039 259.303 17.7158 259.408 17.9072C259.513 18.0986 259.67 18.2513 259.88 18.3652C260.094 18.4746 260.356 18.5293 260.666 18.5293C261.053 18.5293 261.395 18.4473 261.691 18.2832C261.988 18.1191 262.222 17.9186 262.396 17.6816C262.573 17.4447 262.669 17.2145 262.683 16.9912L263.223 17.5996C263.191 17.791 263.104 18.0029 262.963 18.2354C262.822 18.4678 262.632 18.6911 262.396 18.9053C262.163 19.1149 261.885 19.2904 261.562 19.4316C261.243 19.5684 260.882 19.6367 260.481 19.6367C259.98 19.6367 259.54 19.5387 259.162 19.3428C258.788 19.1468 258.497 18.8848 258.287 18.5566C258.082 18.224 257.979 17.8525 257.979 17.4424C257.979 17.0459 258.057 16.6973 258.212 16.3965C258.367 16.0911 258.59 15.8382 258.882 15.6377C259.174 15.4326 259.524 15.2777 259.935 15.1729C260.345 15.068 260.803 15.0156 261.309 15.0156H262.778ZM267.188 12.1035V19.5H265.916V12.1035H267.188ZM265.82 10.1416C265.82 9.93652 265.882 9.76335 266.005 9.62207C266.132 9.48079 266.319 9.41016 266.565 9.41016C266.807 9.41016 266.992 9.48079 267.119 9.62207C267.251 9.76335 267.317 9.93652 267.317 10.1416C267.317 10.3376 267.251 10.5062 267.119 10.6475C266.992 10.7842 266.807 10.8525 266.565 10.8525C266.319 10.8525 266.132 10.7842 266.005 10.6475C265.882 10.5062 265.82 10.3376 265.82 10.1416ZM270.592 9V19.5H269.32V9H270.592ZM272.567 18.8301C272.567 18.6159 272.633 18.4359 272.766 18.29C272.902 18.1396 273.098 18.0645 273.354 18.0645C273.609 18.0645 273.802 18.1396 273.935 18.29C274.071 18.4359 274.14 18.6159 274.14 18.8301C274.14 19.0397 274.071 19.2174 273.935 19.3633C273.802 19.5091 273.609 19.582 273.354 19.582C273.098 19.582 272.902 19.5091 272.766 19.3633C272.633 19.2174 272.567 19.0397 272.567 18.8301ZM272.574 12.7939C272.574 12.5798 272.64 12.3997 272.772 12.2539C272.909 12.1035 273.105 12.0283 273.36 12.0283C273.616 12.0283 273.809 12.1035 273.941 12.2539C274.078 12.3997 274.146 12.5798 274.146 12.7939C274.146 13.0036 274.078 13.1813 273.941 13.3271C273.809 13.473 273.616 13.5459 273.36 13.5459C273.105 13.5459 272.909 13.473 272.772 13.3271C272.64 13.1813 272.574 13.0036 272.574 12.7939ZM277.387 12.1035V19.5H276.115V12.1035H277.387ZM276.02 10.1416C276.02 9.93652 276.081 9.76335 276.204 9.62207C276.332 9.48079 276.519 9.41016 276.765 9.41016C277.006 9.41016 277.191 9.48079 277.318 9.62207C277.451 9.76335 277.517 9.93652 277.517 10.1416C277.517 10.3376 277.451 10.5062 277.318 10.6475C277.191 10.7842 277.006 10.8525 276.765 10.8525C276.519 10.8525 276.332 10.7842 276.204 10.6475C276.081 10.5062 276.02 10.3376 276.02 10.1416ZM280.682 13.6826V19.5H279.417V12.1035H280.613L280.682 13.6826ZM280.381 15.5215L279.854 15.501C279.859 14.9951 279.934 14.528 280.08 14.0996C280.226 13.6667 280.431 13.2907 280.695 12.9717C280.96 12.6527 281.274 12.4066 281.639 12.2334C282.008 12.0557 282.416 11.9668 282.862 11.9668C283.227 11.9668 283.555 12.0169 283.847 12.1172C284.138 12.2129 284.387 12.3678 284.592 12.582C284.801 12.7962 284.961 13.0742 285.07 13.416C285.18 13.7533 285.234 14.1657 285.234 14.6533V19.5H283.963V14.6396C283.963 14.2523 283.906 13.9424 283.792 13.71C283.678 13.473 283.512 13.3021 283.293 13.1973C283.074 13.0879 282.805 13.0332 282.486 13.0332C282.172 13.0332 281.885 13.0993 281.625 13.2314C281.37 13.3636 281.149 13.5459 280.962 13.7783C280.78 14.0107 280.636 14.2773 280.531 14.5781C280.431 14.8743 280.381 15.1888 280.381 15.5215ZM289.042 19.5H287.777V11.3242C287.777 10.791 287.873 10.3421 288.064 9.97754C288.26 9.6084 288.541 9.3304 288.905 9.14355C289.27 8.95215 289.703 8.85645 290.204 8.85645C290.35 8.85645 290.496 8.86556 290.642 8.88379C290.792 8.90202 290.938 8.92936 291.079 8.96582L291.011 9.99805C290.915 9.97526 290.806 9.95931 290.683 9.9502C290.564 9.94108 290.446 9.93652 290.327 9.93652C290.058 9.93652 289.826 9.99121 289.63 10.1006C289.438 10.2054 289.293 10.3604 289.192 10.5654C289.092 10.7705 289.042 11.0234 289.042 11.3242V19.5ZM290.614 12.1035V13.0742H286.608V12.1035H290.614ZM291.688 15.8838V15.7266C291.688 15.1934 291.765 14.6989 291.92 14.2432C292.075 13.7829 292.298 13.3841 292.59 13.0469C292.882 12.7051 293.235 12.4408 293.649 12.2539C294.064 12.0625 294.529 11.9668 295.044 11.9668C295.563 11.9668 296.031 12.0625 296.445 12.2539C296.865 12.4408 297.22 12.7051 297.512 13.0469C297.808 13.3841 298.034 13.7829 298.188 14.2432C298.343 14.6989 298.421 15.1934 298.421 15.7266V15.8838C298.421 16.417 298.343 16.9115 298.188 17.3672C298.034 17.8229 297.808 18.2217 297.512 18.5635C297.22 18.9007 296.867 19.165 296.452 19.3564C296.042 19.5433 295.577 19.6367 295.058 19.6367C294.538 19.6367 294.071 19.5433 293.656 19.3564C293.242 19.165 292.886 18.9007 292.59 18.5635C292.298 18.2217 292.075 17.8229 291.92 17.3672C291.765 16.9115 291.688 16.417 291.688 15.8838ZM292.952 15.7266V15.8838C292.952 16.2529 292.995 16.6016 293.082 16.9297C293.169 17.2533 293.299 17.5404 293.472 17.791C293.649 18.0417 293.87 18.2399 294.135 18.3857C294.399 18.527 294.707 18.5977 295.058 18.5977C295.404 18.5977 295.707 18.527 295.967 18.3857C296.231 18.2399 296.45 18.0417 296.623 17.791C296.796 17.5404 296.926 17.2533 297.013 16.9297C297.104 16.6016 297.149 16.2529 297.149 15.8838V15.7266C297.149 15.362 297.104 15.0179 297.013 14.6943C296.926 14.3662 296.794 14.0768 296.616 13.8262C296.443 13.571 296.224 13.3704 295.96 13.2246C295.7 13.0788 295.395 13.0059 295.044 13.0059C294.698 13.0059 294.392 13.0788 294.128 13.2246C293.868 13.3704 293.649 13.571 293.472 13.8262C293.299 14.0768 293.169 14.3662 293.082 14.6943C292.995 15.0179 292.952 15.362 292.952 15.7266ZM310.91 16.0615C310.892 16.4808 310.828 16.9023 310.719 17.3262C310.609 17.7454 310.445 18.1305 310.227 18.4814C310.008 18.8324 309.723 19.1149 309.372 19.3291C309.026 19.5387 308.606 19.6436 308.114 19.6436C307.8 19.6436 307.524 19.5889 307.287 19.4795C307.055 19.3656 306.863 19.2038 306.713 18.9941C306.567 18.7845 306.465 18.5316 306.405 18.2354C306.351 17.9391 306.341 17.6087 306.378 17.2441L306.727 13.457H307.731L307.383 17.2441C307.355 17.5768 307.362 17.848 307.403 18.0576C307.449 18.2673 307.517 18.429 307.608 18.543C307.7 18.6523 307.802 18.7275 307.916 18.7686C308.035 18.8096 308.148 18.8301 308.258 18.8301C308.531 18.8301 308.775 18.7594 308.989 18.6182C309.203 18.4723 309.383 18.2741 309.529 18.0234C309.68 17.7682 309.796 17.4743 309.878 17.1416C309.96 16.8044 310.01 16.4443 310.028 16.0615C310.06 15.3825 310.028 14.7581 309.933 14.1885C309.841 13.6188 309.684 13.113 309.461 12.6709C309.242 12.2288 308.955 11.8551 308.6 11.5498C308.244 11.2445 307.82 11.012 307.328 10.8525C306.836 10.693 306.273 10.6133 305.64 10.6133C305.065 10.6133 304.535 10.7021 304.047 10.8799C303.564 11.0531 303.129 11.3037 302.741 11.6318C302.358 11.96 302.028 12.3542 301.75 12.8145C301.477 13.2747 301.26 13.7943 301.101 14.373C300.946 14.9473 300.854 15.5671 300.827 16.2324C300.795 16.916 300.832 17.5449 300.937 18.1191C301.041 18.6888 301.21 19.1969 301.442 19.6436C301.679 20.0947 301.978 20.4753 302.338 20.7852C302.698 21.0996 303.115 21.3366 303.589 21.4961C304.063 21.6602 304.591 21.7422 305.175 21.7422C305.576 21.7422 305.981 21.6943 306.392 21.5986C306.806 21.5029 307.153 21.373 307.431 21.209L307.69 21.9883C307.371 22.1934 306.973 22.346 306.494 22.4463C306.02 22.5465 305.571 22.5967 305.147 22.5967C304.455 22.5967 303.821 22.501 303.247 22.3096C302.677 22.1227 302.172 21.847 301.729 21.4824C301.292 21.1224 300.927 20.6826 300.636 20.1631C300.344 19.6481 300.13 19.0602 299.993 18.3994C299.856 17.7386 299.804 17.0163 299.836 16.2324C299.868 15.485 299.979 14.7809 300.171 14.1201C300.367 13.4593 300.633 12.86 300.971 12.3223C301.308 11.7845 301.709 11.3219 302.174 10.9346C302.643 10.5426 303.17 10.2419 303.753 10.0322C304.341 9.82259 304.979 9.71777 305.667 9.71777C306.369 9.71777 307.005 9.81348 307.574 10.0049C308.144 10.1963 308.643 10.472 309.071 10.832C309.504 11.1921 309.862 11.6318 310.145 12.1514C310.427 12.6709 310.632 13.2588 310.76 13.915C310.892 14.5713 310.942 15.2868 310.91 16.0615ZM303.89 16.6426C303.858 16.9616 303.858 17.2464 303.89 17.4971C303.922 17.7477 303.983 17.9596 304.074 18.1328C304.165 18.306 304.284 18.4382 304.43 18.5293C304.58 18.6159 304.756 18.6592 304.956 18.6592C305.088 18.6592 305.227 18.6273 305.373 18.5635C305.519 18.4951 305.662 18.3903 305.804 18.249C305.945 18.1077 306.077 17.9232 306.2 17.6953C306.323 17.4674 306.426 17.194 306.508 16.875L306.959 17.3672C306.854 17.7409 306.717 18.069 306.549 18.3516C306.385 18.6341 306.2 18.8711 305.995 19.0625C305.79 19.2539 305.571 19.3997 305.339 19.5C305.111 19.5957 304.879 19.6436 304.642 19.6436C304.309 19.6436 304.017 19.5729 303.767 19.4316C303.516 19.2858 303.313 19.0807 303.158 18.8164C303.003 18.5521 302.894 18.2376 302.83 17.873C302.771 17.5039 302.762 17.0938 302.803 16.6426C302.844 16.1641 302.928 15.722 303.056 15.3164C303.183 14.9108 303.34 14.5485 303.527 14.2295C303.719 13.9105 303.933 13.6393 304.17 13.416C304.411 13.1927 304.667 13.0241 304.936 12.9102C305.204 12.7917 305.48 12.7324 305.763 12.7324C306.255 12.7324 306.642 12.8053 306.925 12.9512C307.207 13.0924 307.476 13.2611 307.731 13.457L307.15 14.1338C307.018 14.0062 306.845 13.8877 306.631 13.7783C306.417 13.6689 306.164 13.6143 305.872 13.6143C305.621 13.6143 305.387 13.6781 305.168 13.8057C304.949 13.9333 304.751 14.1247 304.573 14.3799C304.4 14.6351 304.254 14.9518 304.136 15.3301C304.017 15.7038 303.935 16.1413 303.89 16.6426ZM317.247 18.0645V9H318.519V19.5H317.356L317.247 18.0645ZM312.271 15.8838V15.7402C312.271 15.1751 312.339 14.6624 312.476 14.2021C312.617 13.7373 312.815 13.3385 313.07 13.0059C313.33 12.6732 313.638 12.418 313.993 12.2402C314.353 12.0579 314.754 11.9668 315.196 11.9668C315.661 11.9668 316.067 12.0488 316.413 12.2129C316.764 12.3724 317.06 12.6071 317.302 12.917C317.548 13.2223 317.742 13.5915 317.883 14.0244C318.024 14.4574 318.122 14.9473 318.177 15.4941V16.123C318.127 16.6654 318.029 17.153 317.883 17.5859C317.742 18.0189 317.548 18.388 317.302 18.6934C317.06 18.9987 316.764 19.2334 316.413 19.3975C316.062 19.557 315.652 19.6367 315.183 19.6367C314.75 19.6367 314.353 19.5433 313.993 19.3564C313.638 19.1696 313.33 18.9076 313.07 18.5703C312.815 18.2331 312.617 17.8366 312.476 17.3809C312.339 16.9206 312.271 16.4215 312.271 15.8838ZM313.542 15.7402V15.8838C313.542 16.2529 313.578 16.5993 313.651 16.9229C313.729 17.2464 313.847 17.5312 314.007 17.7773C314.166 18.0234 314.369 18.2171 314.615 18.3584C314.861 18.4951 315.155 18.5635 315.497 18.5635C315.916 18.5635 316.26 18.4746 316.529 18.2969C316.803 18.1191 317.021 17.8844 317.186 17.5928C317.35 17.3011 317.477 16.9844 317.568 16.6426V14.9951C317.514 14.7445 317.434 14.5029 317.329 14.2705C317.229 14.0335 317.097 13.8239 316.933 13.6416C316.773 13.4548 316.575 13.3066 316.338 13.1973C316.105 13.0879 315.83 13.0332 315.511 13.0332C315.164 13.0332 314.866 13.1061 314.615 13.252C314.369 13.3932 314.166 13.5892 314.007 13.8398C313.847 14.0859 313.729 14.373 313.651 14.7012C313.578 15.0247 313.542 15.3711 313.542 15.7402ZM325.149 18.0645V9H326.421V19.5H325.259L325.149 18.0645ZM320.173 15.8838V15.7402C320.173 15.1751 320.241 14.6624 320.378 14.2021C320.519 13.7373 320.717 13.3385 320.973 13.0059C321.232 12.6732 321.54 12.418 321.896 12.2402C322.256 12.0579 322.657 11.9668 323.099 11.9668C323.563 11.9668 323.969 12.0488 324.315 12.2129C324.666 12.3724 324.963 12.6071 325.204 12.917C325.45 13.2223 325.644 13.5915 325.785 14.0244C325.926 14.4574 326.024 14.9473 326.079 15.4941V16.123C326.029 16.6654 325.931 17.153 325.785 17.5859C325.644 18.0189 325.45 18.388 325.204 18.6934C324.963 18.9987 324.666 19.2334 324.315 19.3975C323.965 19.557 323.554 19.6367 323.085 19.6367C322.652 19.6367 322.256 19.5433 321.896 19.3564C321.54 19.1696 321.232 18.9076 320.973 18.5703C320.717 18.2331 320.519 17.8366 320.378 17.3809C320.241 16.9206 320.173 16.4215 320.173 15.8838ZM321.444 15.7402V15.8838C321.444 16.2529 321.481 16.5993 321.554 16.9229C321.631 17.2464 321.75 17.5312 321.909 17.7773C322.069 18.0234 322.271 18.2171 322.518 18.3584C322.764 18.4951 323.058 18.5635 323.399 18.5635C323.819 18.5635 324.163 18.4746 324.432 18.2969C324.705 18.1191 324.924 17.8844 325.088 17.5928C325.252 17.3011 325.38 16.9844 325.471 16.6426V14.9951C325.416 14.7445 325.336 14.5029 325.231 14.2705C325.131 14.0335 324.999 13.8239 324.835 13.6416C324.675 13.4548 324.477 13.3066 324.24 13.1973C324.008 13.0879 323.732 13.0332 323.413 13.0332C323.067 13.0332 322.768 13.1061 322.518 13.252C322.271 13.3932 322.069 13.5892 321.909 13.8398C321.75 14.0859 321.631 14.373 321.554 14.7012C321.481 15.0247 321.444 15.3711 321.444 15.7402ZM332.696 17.5381C332.696 17.3558 332.655 17.1872 332.573 17.0322C332.496 16.8727 332.334 16.7292 332.088 16.6016C331.846 16.4694 331.482 16.3555 330.994 16.2598C330.584 16.1732 330.213 16.0706 329.88 15.9521C329.552 15.8337 329.271 15.6901 329.039 15.5215C328.811 15.3529 328.636 15.1546 328.513 14.9268C328.39 14.6989 328.328 14.4323 328.328 14.127C328.328 13.8353 328.392 13.5596 328.52 13.2998C328.652 13.04 328.836 12.8099 329.073 12.6094C329.315 12.4089 329.604 12.2516 329.941 12.1377C330.279 12.0238 330.655 11.9668 331.069 11.9668C331.662 11.9668 332.168 12.0716 332.587 12.2812C333.006 12.4909 333.327 12.7712 333.551 13.1221C333.774 13.4684 333.886 13.8535 333.886 14.2773H332.621C332.621 14.0723 332.56 13.874 332.437 13.6826C332.318 13.4867 332.143 13.3249 331.91 13.1973C331.682 13.0697 331.402 13.0059 331.069 13.0059C330.718 13.0059 330.434 13.0605 330.215 13.1699C330.001 13.2747 329.843 13.4092 329.743 13.5732C329.647 13.7373 329.6 13.9105 329.6 14.0928C329.6 14.2295 329.622 14.3525 329.668 14.4619C329.718 14.5667 329.805 14.6647 329.928 14.7559C330.051 14.8424 330.224 14.9245 330.447 15.002C330.671 15.0794 330.955 15.1569 331.302 15.2344C331.908 15.3711 332.407 15.5352 332.799 15.7266C333.191 15.918 333.482 16.1527 333.674 16.4307C333.865 16.7087 333.961 17.0459 333.961 17.4424C333.961 17.766 333.893 18.0622 333.756 18.3311C333.624 18.5999 333.43 18.8324 333.175 19.0283C332.924 19.2197 332.623 19.3701 332.272 19.4795C331.926 19.5843 331.536 19.6367 331.104 19.6367C330.452 19.6367 329.9 19.5205 329.449 19.2881C328.998 19.0557 328.656 18.7549 328.424 18.3857C328.191 18.0166 328.075 17.627 328.075 17.2168H329.347C329.365 17.5632 329.465 17.8389 329.647 18.0439C329.83 18.2445 330.053 18.388 330.317 18.4746C330.582 18.5566 330.844 18.5977 331.104 18.5977C331.45 18.5977 331.739 18.5521 331.972 18.4609C332.209 18.3698 332.389 18.2445 332.512 18.085C332.635 17.9255 332.696 17.7432 332.696 17.5381ZM340.414 12.1035H341.562V19.3428C341.562 19.9945 341.43 20.5505 341.166 21.0107C340.902 21.471 340.533 21.8197 340.059 22.0566C339.589 22.2982 339.047 22.4189 338.432 22.4189C338.176 22.4189 337.876 22.3779 337.529 22.2959C337.188 22.2184 336.85 22.084 336.518 21.8926C336.189 21.7057 335.914 21.4528 335.69 21.1338L336.354 20.3818C336.663 20.7555 336.987 21.0153 337.324 21.1611C337.666 21.307 338.003 21.3799 338.336 21.3799C338.737 21.3799 339.083 21.3047 339.375 21.1543C339.667 21.0039 339.892 20.7806 340.052 20.4844C340.216 20.1927 340.298 19.8327 340.298 19.4043V13.7305L340.414 12.1035ZM335.321 15.8838V15.7402C335.321 15.1751 335.387 14.6624 335.52 14.2021C335.656 13.7373 335.85 13.3385 336.101 13.0059C336.356 12.6732 336.663 12.418 337.023 12.2402C337.383 12.0579 337.789 11.9668 338.24 11.9668C338.705 11.9668 339.111 12.0488 339.457 12.2129C339.808 12.3724 340.104 12.6071 340.346 12.917C340.592 13.2223 340.785 13.5915 340.927 14.0244C341.068 14.4574 341.166 14.9473 341.221 15.4941V16.123C341.171 16.6654 341.073 17.153 340.927 17.5859C340.785 18.0189 340.592 18.388 340.346 18.6934C340.104 18.9987 339.808 19.2334 339.457 19.3975C339.106 19.557 338.696 19.6367 338.227 19.6367C337.785 19.6367 337.383 19.5433 337.023 19.3564C336.668 19.1696 336.363 18.9076 336.107 18.5703C335.852 18.2331 335.656 17.8366 335.52 17.3809C335.387 16.9206 335.321 16.4215 335.321 15.8838ZM336.586 15.7402V15.8838C336.586 16.2529 336.622 16.5993 336.695 16.9229C336.773 17.2464 336.889 17.5312 337.044 17.7773C337.203 18.0234 337.406 18.2171 337.652 18.3584C337.898 18.4951 338.192 18.5635 338.534 18.5635C338.953 18.5635 339.3 18.4746 339.573 18.2969C339.847 18.1191 340.063 17.8844 340.223 17.5928C340.387 17.3011 340.514 16.9844 340.605 16.6426V14.9951C340.555 14.7445 340.478 14.5029 340.373 14.2705C340.273 14.0335 340.141 13.8239 339.977 13.6416C339.817 13.4548 339.619 13.3066 339.382 13.1973C339.145 13.0879 338.867 13.0332 338.548 13.0332C338.201 13.0332 337.903 13.1061 337.652 13.252C337.406 13.3932 337.203 13.5892 337.044 13.8398C336.889 14.0859 336.773 14.373 336.695 14.7012C336.622 15.0247 336.586 15.3711 336.586 15.7402ZM344.748 13.6826V19.5H343.483V12.1035H344.68L344.748 13.6826ZM344.447 15.5215L343.921 15.501C343.925 14.9951 344.001 14.528 344.146 14.0996C344.292 13.6667 344.497 13.2907 344.762 12.9717C345.026 12.6527 345.34 12.4066 345.705 12.2334C346.074 12.0557 346.482 11.9668 346.929 11.9668C347.293 11.9668 347.621 12.0169 347.913 12.1172C348.205 12.2129 348.453 12.3678 348.658 12.582C348.868 12.7962 349.027 13.0742 349.137 13.416C349.246 13.7533 349.301 14.1657 349.301 14.6533V19.5H348.029V14.6396C348.029 14.2523 347.972 13.9424 347.858 13.71C347.744 13.473 347.578 13.3021 347.359 13.1973C347.141 13.0879 346.872 13.0332 346.553 13.0332C346.238 13.0332 345.951 13.0993 345.691 13.2314C345.436 13.3636 345.215 13.5459 345.028 13.7783C344.846 14.0107 344.702 14.2773 344.598 14.5781C344.497 14.8743 344.447 15.1888 344.447 15.5215ZM352.486 13.2656V19.5H351.222V12.1035H352.452L352.486 13.2656ZM354.797 12.0625L354.79 13.2383C354.685 13.2155 354.585 13.2018 354.489 13.1973C354.398 13.1882 354.293 13.1836 354.175 13.1836C353.883 13.1836 353.626 13.2292 353.402 13.3203C353.179 13.4115 352.99 13.5391 352.835 13.7031C352.68 13.8672 352.557 14.0632 352.466 14.291C352.379 14.5143 352.322 14.7604 352.295 15.0293L351.939 15.2344C351.939 14.7878 351.983 14.3685 352.069 13.9766C352.16 13.5846 352.299 13.2383 352.486 12.9375C352.673 12.6322 352.91 12.3952 353.197 12.2266C353.489 12.0534 353.835 11.9668 354.236 11.9668C354.327 11.9668 354.432 11.9782 354.551 12.001C354.669 12.0192 354.751 12.0397 354.797 12.0625ZM355.139 18.8301C355.139 18.6159 355.205 18.4359 355.337 18.29C355.474 18.1396 355.67 18.0645 355.925 18.0645C356.18 18.0645 356.374 18.1396 356.506 18.29C356.643 18.4359 356.711 18.6159 356.711 18.8301C356.711 19.0397 356.643 19.2174 356.506 19.3633C356.374 19.5091 356.18 19.582 355.925 19.582C355.67 19.582 355.474 19.5091 355.337 19.3633C355.205 19.2174 355.139 19.0397 355.139 18.8301ZM361.77 18.5977C362.07 18.5977 362.348 18.5361 362.604 18.4131C362.859 18.29 363.068 18.1214 363.232 17.9072C363.396 17.6885 363.49 17.4401 363.513 17.1621H364.716C364.693 17.5996 364.545 18.0075 364.271 18.3857C364.003 18.7594 363.649 19.0625 363.212 19.2949C362.774 19.5228 362.294 19.6367 361.77 19.6367C361.214 19.6367 360.728 19.5387 360.313 19.3428C359.903 19.1468 359.562 18.8779 359.288 18.5361C359.019 18.1943 358.816 17.8024 358.68 17.3604C358.548 16.9137 358.481 16.4421 358.481 15.9453V15.6582C358.481 15.1615 358.548 14.6921 358.68 14.25C358.816 13.8034 359.019 13.4092 359.288 13.0674C359.562 12.7256 359.903 12.4567 360.313 12.2607C360.728 12.0648 361.214 11.9668 361.77 11.9668C362.348 11.9668 362.854 12.0853 363.287 12.3223C363.72 12.5547 364.06 12.8737 364.306 13.2793C364.556 13.6803 364.693 14.1361 364.716 14.6465H363.513C363.49 14.3411 363.403 14.0654 363.253 13.8193C363.107 13.5732 362.907 13.3773 362.651 13.2314C362.401 13.0811 362.107 13.0059 361.77 13.0059C361.382 13.0059 361.056 13.0833 360.792 13.2383C360.532 13.3887 360.325 13.5938 360.17 13.8535C360.02 14.1087 359.91 14.3936 359.842 14.708C359.778 15.0179 359.746 15.3346 359.746 15.6582V15.9453C359.746 16.2689 359.778 16.5879 359.842 16.9023C359.906 17.2168 360.013 17.5016 360.163 17.7568C360.318 18.012 360.525 18.2171 360.785 18.3721C361.049 18.5225 361.378 18.5977 361.77 18.5977ZM365.803 15.8838V15.7266C365.803 15.1934 365.88 14.6989 366.035 14.2432C366.19 13.7829 366.413 13.3841 366.705 13.0469C366.997 12.7051 367.35 12.4408 367.765 12.2539C368.179 12.0625 368.644 11.9668 369.159 11.9668C369.679 11.9668 370.146 12.0625 370.561 12.2539C370.98 12.4408 371.335 12.7051 371.627 13.0469C371.923 13.3841 372.149 13.7829 372.304 14.2432C372.459 14.6989 372.536 15.1934 372.536 15.7266V15.8838C372.536 16.417 372.459 16.9115 372.304 17.3672C372.149 17.8229 371.923 18.2217 371.627 18.5635C371.335 18.9007 370.982 19.165 370.567 19.3564C370.157 19.5433 369.692 19.6367 369.173 19.6367C368.653 19.6367 368.186 19.5433 367.771 19.3564C367.357 19.165 367.001 18.9007 366.705 18.5635C366.413 18.2217 366.19 17.8229 366.035 17.3672C365.88 16.9115 365.803 16.417 365.803 15.8838ZM367.067 15.7266V15.8838C367.067 16.2529 367.111 16.6016 367.197 16.9297C367.284 17.2533 367.414 17.5404 367.587 17.791C367.765 18.0417 367.986 18.2399 368.25 18.3857C368.514 18.527 368.822 18.5977 369.173 18.5977C369.519 18.5977 369.822 18.527 370.082 18.3857C370.346 18.2399 370.565 18.0417 370.738 17.791C370.911 17.5404 371.041 17.2533 371.128 16.9297C371.219 16.6016 371.265 16.2529 371.265 15.8838V15.7266C371.265 15.362 371.219 15.0179 371.128 14.6943C371.041 14.3662 370.909 14.0768 370.731 13.8262C370.558 13.571 370.34 13.3704 370.075 13.2246C369.815 13.0788 369.51 13.0059 369.159 13.0059C368.813 13.0059 368.507 13.0788 368.243 13.2246C367.983 13.3704 367.765 13.571 367.587 13.8262C367.414 14.0768 367.284 14.3662 367.197 14.6943C367.111 15.0179 367.067 15.362 367.067 15.7266ZM375.38 13.5732V19.5H374.108V12.1035H375.312L375.38 13.5732ZM375.12 15.5215L374.532 15.501C374.537 14.9951 374.603 14.528 374.73 14.0996C374.858 13.6667 375.047 13.2907 375.298 12.9717C375.549 12.6527 375.861 12.4066 376.234 12.2334C376.608 12.0557 377.041 11.9668 377.533 11.9668C377.88 11.9668 378.199 12.0169 378.49 12.1172C378.782 12.2129 379.035 12.3656 379.249 12.5752C379.463 12.7848 379.63 13.0537 379.748 13.3818C379.867 13.71 379.926 14.1064 379.926 14.5713V19.5H378.661V14.6328C378.661 14.2454 378.595 13.9355 378.463 13.7031C378.335 13.4707 378.153 13.3021 377.916 13.1973C377.679 13.0879 377.401 13.0332 377.082 13.0332C376.708 13.0332 376.396 13.0993 376.146 13.2314C375.895 13.3636 375.694 13.5459 375.544 13.7783C375.394 14.0107 375.284 14.2773 375.216 14.5781C375.152 14.8743 375.12 15.1888 375.12 15.5215ZM379.912 14.8242L379.064 15.084C379.069 14.6784 379.135 14.2887 379.263 13.915C379.395 13.5413 379.584 13.2087 379.83 12.917C380.081 12.6253 380.388 12.3952 380.753 12.2266C381.118 12.0534 381.535 11.9668 382.004 11.9668C382.4 11.9668 382.751 12.0192 383.057 12.124C383.367 12.2288 383.626 12.3906 383.836 12.6094C384.05 12.8236 384.212 13.0993 384.321 13.4365C384.431 13.7738 384.485 14.1748 384.485 14.6396V19.5H383.214V14.626C383.214 14.2113 383.148 13.89 383.016 13.6621C382.888 13.4297 382.706 13.2679 382.469 13.1768C382.236 13.0811 381.958 13.0332 381.635 13.0332C381.357 13.0332 381.111 13.0811 380.896 13.1768C380.682 13.2725 380.502 13.4046 380.356 13.5732C380.211 13.7373 380.099 13.9264 380.021 14.1406C379.949 14.3548 379.912 14.5827 379.912 14.8242Z" fill="black"/>
</svg>
