<svg width="382" height="24" viewBox="0 0 382 24" fill="none" xmlns="http://www.w3.org/2000/svg">
<path d="M4.77832 11.3701H2.21484V9.89355H4.77832C5.19759 9.89355 5.53711 9.8252 5.79688 9.68848C6.0612 9.5472 6.25488 9.35579 6.37793 9.11426C6.50098 8.86816 6.5625 8.58789 6.5625 8.27344C6.5625 7.9681 6.50098 7.68327 6.37793 7.41895C6.25488 7.15462 6.0612 6.94043 5.79688 6.77637C5.53711 6.6123 5.19759 6.53027 4.77832 6.53027H2.83008V15H0.950195V5.04688H4.77832C5.55306 5.04688 6.21387 5.18587 6.76074 5.46387C7.31217 5.7373 7.73145 6.11784 8.01855 6.60547C8.31022 7.08854 8.45605 7.63997 8.45605 8.25977C8.45605 8.90234 8.31022 9.45605 8.01855 9.9209C7.73145 10.3857 7.31217 10.7435 6.76074 10.9941C6.21387 11.2448 5.55306 11.3701 4.77832 11.3701ZM11.6006 9.11426V15H9.7959V7.60352H11.5049L11.6006 9.11426ZM13.8496 7.55566L13.8223 9.2373C13.722 9.21908 13.6081 9.2054 13.4805 9.19629C13.3574 9.18717 13.2412 9.18262 13.1318 9.18262C12.8538 9.18262 12.61 9.22135 12.4004 9.29883C12.1908 9.37174 12.0153 9.47884 11.874 9.62012C11.7373 9.76139 11.6325 9.93457 11.5596 10.1396C11.4867 10.3402 11.4456 10.568 11.4365 10.8232L11.0469 10.7754C11.0469 10.306 11.0947 9.87077 11.1904 9.46973C11.2861 9.06868 11.4251 8.71777 11.6074 8.41699C11.7897 8.11621 12.0176 7.88379 12.291 7.71973C12.569 7.55111 12.888 7.4668 13.248 7.4668C13.3483 7.4668 13.4554 7.47591 13.5693 7.49414C13.6878 7.50781 13.7812 7.52832 13.8496 7.55566ZM14.3281 11.377V11.2334C14.3281 10.6911 14.4056 10.1921 14.5605 9.73633C14.7155 9.27604 14.9411 8.87728 15.2373 8.54004C15.5335 8.2028 15.8958 7.94076 16.3242 7.75391C16.7526 7.5625 17.2402 7.4668 17.7871 7.4668C18.3431 7.4668 18.8353 7.5625 19.2637 7.75391C19.6966 7.94076 20.0612 8.2028 20.3574 8.54004C20.6536 8.87728 20.8792 9.27604 21.0342 9.73633C21.1891 10.1921 21.2666 10.6911 21.2666 11.2334V11.377C21.2666 11.9147 21.1891 12.4137 21.0342 12.874C20.8792 13.3298 20.6536 13.7285 20.3574 14.0703C20.0612 14.4076 19.6989 14.6696 19.2705 14.8564C18.8421 15.0433 18.3522 15.1367 17.8008 15.1367C17.2539 15.1367 16.764 15.0433 16.3311 14.8564C15.8981 14.6696 15.5335 14.4076 15.2373 14.0703C14.9411 13.7285 14.7155 13.3298 14.5605 12.874C14.4056 12.4137 14.3281 11.9147 14.3281 11.377ZM16.1328 11.2334V11.377C16.1328 11.7005 16.1647 12.0036 16.2285 12.2861C16.2923 12.5687 16.3903 12.8171 16.5225 13.0312C16.6546 13.2454 16.8255 13.4141 17.0352 13.5371C17.2493 13.6556 17.5046 13.7148 17.8008 13.7148C18.0924 13.7148 18.3431 13.6556 18.5527 13.5371C18.7624 13.4141 18.9333 13.2454 19.0654 13.0312C19.2021 12.8171 19.3024 12.5687 19.3662 12.2861C19.43 12.0036 19.4619 11.7005 19.4619 11.377V11.2334C19.4619 10.9144 19.43 10.6159 19.3662 10.3379C19.3024 10.0553 19.2021 9.80697 19.0654 9.59277C18.9333 9.37402 18.7601 9.20312 18.5459 9.08008C18.3363 8.95247 18.0833 8.88867 17.7871 8.88867C17.4954 8.88867 17.2448 8.95247 17.0352 9.08008C16.8255 9.20312 16.6546 9.37402 16.5225 9.59277C16.3903 9.80697 16.2923 10.0553 16.2285 10.3379C16.1647 10.6159 16.1328 10.9144 16.1328 11.2334ZM27.2822 7.60352H28.9229V14.7744C28.9229 15.4443 28.777 16.0117 28.4854 16.4766C28.1982 16.946 27.7949 17.3014 27.2754 17.543C26.7559 17.7891 26.152 17.9121 25.4639 17.9121C25.1676 17.9121 24.8464 17.8711 24.5 17.7891C24.1582 17.707 23.8278 17.5771 23.5088 17.3994C23.1943 17.2262 22.9323 17.0007 22.7227 16.7227L23.5361 15.6562C23.7822 15.9434 24.0602 16.1598 24.3701 16.3057C24.68 16.4561 25.015 16.5312 25.375 16.5312C25.7396 16.5312 26.0495 16.4629 26.3047 16.3262C26.5645 16.194 26.7627 15.998 26.8994 15.7383C27.0407 15.4831 27.1113 15.1686 27.1113 14.7949V9.29199L27.2822 7.60352ZM22.2852 11.3906V11.2471C22.2852 10.682 22.3535 10.1693 22.4902 9.70898C22.627 9.24414 22.8229 8.84538 23.0781 8.5127C23.3379 8.18001 23.6501 7.92253 24.0146 7.74023C24.3838 7.55794 24.7985 7.4668 25.2588 7.4668C25.7464 7.4668 26.1566 7.55566 26.4893 7.7334C26.8265 7.91113 27.1045 8.16406 27.3232 8.49219C27.5465 8.82031 27.7197 9.20996 27.8428 9.66113C27.9704 10.1077 28.0684 10.5999 28.1367 11.1377V11.5273C28.0729 12.0514 27.9704 12.5322 27.8291 12.9697C27.6924 13.4072 27.5101 13.79 27.2822 14.1182C27.0544 14.4417 26.7718 14.6924 26.4346 14.8701C26.0973 15.0479 25.7008 15.1367 25.2451 15.1367C24.7894 15.1367 24.3792 15.0433 24.0146 14.8564C23.6501 14.6696 23.3379 14.4076 23.0781 14.0703C22.8229 13.7331 22.627 13.3366 22.4902 12.8809C22.3535 12.4251 22.2852 11.9284 22.2852 11.3906ZM24.0898 11.2471V11.3906C24.0898 11.7096 24.1217 12.0081 24.1855 12.2861C24.2493 12.5641 24.3473 12.8102 24.4795 13.0244C24.6117 13.234 24.778 13.3981 24.9785 13.5166C25.179 13.6351 25.4183 13.6943 25.6963 13.6943C26.07 13.6943 26.3753 13.6169 26.6123 13.4619C26.8538 13.3024 27.0361 13.0859 27.1592 12.8125C27.2868 12.5345 27.3688 12.2223 27.4053 11.876V10.8027C27.3825 10.5293 27.3324 10.2764 27.2549 10.0439C27.182 9.81152 27.0794 9.611 26.9473 9.44238C26.8151 9.27376 26.6465 9.1416 26.4414 9.0459C26.2363 8.9502 25.9925 8.90234 25.71 8.90234C25.4365 8.90234 25.1973 8.96387 24.9922 9.08691C24.7871 9.2054 24.6185 9.37174 24.4863 9.58594C24.3542 9.80013 24.2539 10.0485 24.1855 10.3311C24.1217 10.6136 24.0898 10.9189 24.0898 11.2471ZM32.3545 9.11426V15H30.5498V7.60352H32.2588L32.3545 9.11426ZM34.6035 7.55566L34.5762 9.2373C34.4759 9.21908 34.362 9.2054 34.2344 9.19629C34.1113 9.18717 33.9951 9.18262 33.8857 9.18262C33.6077 9.18262 33.3639 9.22135 33.1543 9.29883C32.9447 9.37174 32.7692 9.47884 32.6279 9.62012C32.4912 9.76139 32.3864 9.93457 32.3135 10.1396C32.2406 10.3402 32.1995 10.568 32.1904 10.8232L31.8008 10.7754C31.8008 10.306 31.8486 9.87077 31.9443 9.46973C32.04 9.06868 32.179 8.71777 32.3613 8.41699C32.5436 8.11621 32.7715 7.88379 33.0449 7.71973C33.3229 7.55111 33.6419 7.4668 34.002 7.4668C34.1022 7.4668 34.2093 7.47591 34.3232 7.49414C34.4417 7.50781 34.5352 7.52832 34.6035 7.55566ZM39.4365 13.4277V10.0166C39.4365 9.76595 39.3932 9.54948 39.3066 9.36719C39.2201 9.1849 39.0879 9.04362 38.9102 8.94336C38.7324 8.8431 38.5068 8.79297 38.2334 8.79297C37.9919 8.79297 37.7799 8.83398 37.5977 8.91602C37.4199 8.99805 37.2832 9.11426 37.1875 9.26465C37.0918 9.41048 37.0439 9.5791 37.0439 9.77051H35.2324C35.2324 9.46517 35.3053 9.17578 35.4512 8.90234C35.597 8.62435 35.8044 8.37826 36.0732 8.16406C36.3467 7.94531 36.6725 7.77441 37.0508 7.65137C37.4336 7.52832 37.862 7.4668 38.3359 7.4668C38.8965 7.4668 39.3955 7.5625 39.833 7.75391C40.2751 7.94076 40.6214 8.22331 40.8721 8.60156C41.1273 8.97982 41.2549 9.45605 41.2549 10.0303V13.2568C41.2549 13.626 41.2777 13.9427 41.3232 14.207C41.3734 14.4668 41.4463 14.6924 41.542 14.8838V15H39.7031C39.6165 14.8132 39.5505 14.5762 39.5049 14.2891C39.4593 13.9974 39.4365 13.7103 39.4365 13.4277ZM39.6895 10.4951L39.7031 11.5684H38.5615C38.279 11.5684 38.0306 11.598 37.8164 11.6572C37.6022 11.7119 37.4268 11.7939 37.29 11.9033C37.1533 12.0081 37.0508 12.1357 36.9824 12.2861C36.9141 12.432 36.8799 12.5983 36.8799 12.7852C36.8799 12.9674 36.9209 13.1315 37.0029 13.2773C37.0895 13.4232 37.2126 13.5394 37.3721 13.626C37.5361 13.708 37.7275 13.749 37.9463 13.749C38.2653 13.749 38.5433 13.6852 38.7803 13.5576C39.0173 13.4255 39.2018 13.266 39.334 13.0791C39.4661 12.8923 39.5368 12.7145 39.5459 12.5459L40.0654 13.3252C40.0016 13.512 39.9059 13.7103 39.7783 13.9199C39.6507 14.1296 39.4867 14.3255 39.2861 14.5078C39.0856 14.6901 38.8441 14.8405 38.5615 14.959C38.279 15.0775 37.9508 15.1367 37.5771 15.1367C37.0986 15.1367 36.6702 15.041 36.292 14.8496C35.9137 14.6582 35.6152 14.3962 35.3965 14.0635C35.1777 13.7308 35.0684 13.3525 35.0684 12.9287C35.0684 12.5368 35.1413 12.1904 35.2871 11.8896C35.4329 11.5889 35.6494 11.3359 35.9365 11.1309C36.2236 10.9212 36.5791 10.764 37.0029 10.6592C37.4313 10.5498 37.9212 10.4951 38.4727 10.4951H39.6895ZM44.6797 9.12109V15H42.875V7.60352H44.5771L44.6797 9.12109ZM44.4131 11.0352H43.8594C43.8594 10.5202 43.9209 10.0462 44.0439 9.61328C44.1715 9.18034 44.3584 8.80436 44.6045 8.48535C44.8506 8.16178 45.1536 7.91113 45.5137 7.7334C45.8783 7.55566 46.2998 7.4668 46.7783 7.4668C47.111 7.4668 47.4163 7.51693 47.6943 7.61719C47.9723 7.71289 48.2116 7.86556 48.4121 8.0752C48.6172 8.28027 48.7744 8.54915 48.8838 8.88184C48.9932 9.20996 49.0479 9.60417 49.0479 10.0645V15H47.2432V10.249C47.2432 9.90267 47.193 9.63151 47.0928 9.43555C46.9971 9.23958 46.8581 9.10286 46.6758 9.02539C46.4935 8.94336 46.2747 8.90234 46.0195 8.90234C45.737 8.90234 45.4932 8.95931 45.2881 9.07324C45.0876 9.18262 44.9212 9.33529 44.7891 9.53125C44.6615 9.72721 44.5658 9.9528 44.502 10.208C44.4427 10.4632 44.4131 10.7389 44.4131 11.0352ZM48.9111 10.7002L48.166 10.8369C48.1706 10.3721 48.2344 9.93685 48.3574 9.53125C48.4805 9.12109 48.6605 8.76335 48.8975 8.45801C49.139 8.14811 49.4375 7.90658 49.793 7.7334C50.153 7.55566 50.5677 7.4668 51.0371 7.4668C51.4017 7.4668 51.7298 7.51921 52.0215 7.62402C52.3177 7.72428 52.5706 7.88607 52.7803 8.10938C52.9899 8.32812 53.1494 8.61296 53.2588 8.96387C53.3727 9.31478 53.4297 9.74316 53.4297 10.249V15H51.6113V10.2422C51.6113 9.88216 51.5612 9.60645 51.4609 9.41504C51.3652 9.22363 51.2262 9.09147 51.0439 9.01855C50.8617 8.94108 50.6475 8.90234 50.4014 8.90234C50.1507 8.90234 49.932 8.9502 49.7451 9.0459C49.5628 9.13704 49.4079 9.26465 49.2803 9.42871C49.1572 9.59277 49.0638 9.78418 49 10.0029C48.9408 10.2171 48.9111 10.4495 48.9111 10.7002ZM56.8477 9.12109V15H55.043V7.60352H56.7451L56.8477 9.12109ZM56.5811 11.0352H56.0273C56.0273 10.5202 56.0889 10.0462 56.2119 9.61328C56.3395 9.18034 56.5264 8.80436 56.7725 8.48535C57.0186 8.16178 57.3216 7.91113 57.6816 7.7334C58.0462 7.55566 58.4678 7.4668 58.9463 7.4668C59.279 7.4668 59.5843 7.51693 59.8623 7.61719C60.1403 7.71289 60.3796 7.86556 60.5801 8.0752C60.7852 8.28027 60.9424 8.54915 61.0518 8.88184C61.1611 9.20996 61.2158 9.60417 61.2158 10.0645V15H59.4111V10.249C59.4111 9.90267 59.361 9.63151 59.2607 9.43555C59.165 9.23958 59.026 9.10286 58.8438 9.02539C58.6615 8.94336 58.4427 8.90234 58.1875 8.90234C57.9049 8.90234 57.6611 8.95931 57.4561 9.07324C57.2555 9.18262 57.0892 9.33529 56.957 9.53125C56.8294 9.72721 56.7337 9.9528 56.6699 10.208C56.6107 10.4632 56.5811 10.7389 56.5811 11.0352ZM61.0791 10.7002L60.334 10.8369C60.3385 10.3721 60.4023 9.93685 60.5254 9.53125C60.6484 9.12109 60.8285 8.76335 61.0654 8.45801C61.307 8.14811 61.6055 7.90658 61.9609 7.7334C62.321 7.55566 62.7357 7.4668 63.2051 7.4668C63.5697 7.4668 63.8978 7.51921 64.1895 7.62402C64.4857 7.72428 64.7386 7.88607 64.9482 8.10938C65.1579 8.32812 65.3174 8.61296 65.4268 8.96387C65.5407 9.31478 65.5977 9.74316 65.5977 10.249V15H63.7793V10.2422C63.7793 9.88216 63.7292 9.60645 63.6289 9.41504C63.5332 9.22363 63.3942 9.09147 63.2119 9.01855C63.0296 8.94108 62.8154 8.90234 62.5693 8.90234C62.3187 8.90234 62.0999 8.9502 61.9131 9.0459C61.7308 9.13704 61.5758 9.26465 61.4482 9.42871C61.3252 9.59277 61.2318 9.78418 61.168 10.0029C61.1087 10.2171 61.0791 10.4495 61.0791 10.7002ZM69.1318 7.60352V15H67.3203V7.60352H69.1318ZM67.1973 5.66895C67.1973 5.40007 67.2884 5.17676 67.4707 4.99902C67.6576 4.82129 67.9082 4.73242 68.2227 4.73242C68.5371 4.73242 68.7855 4.82129 68.9678 4.99902C69.1546 5.17676 69.248 5.40007 69.248 5.66895C69.248 5.93327 69.1546 6.1543 68.9678 6.33203C68.7855 6.50977 68.5371 6.59863 68.2227 6.59863C67.9082 6.59863 67.6576 6.50977 67.4707 6.33203C67.2884 6.1543 67.1973 5.93327 67.1973 5.66895ZM72.6523 9.12109V15H70.8477V7.60352H72.5498L72.6523 9.12109ZM72.3857 11.0352H71.832C71.832 10.5202 71.8936 10.0462 72.0166 9.61328C72.1442 9.18034 72.3311 8.80436 72.5771 8.48535C72.8232 8.16178 73.1263 7.91113 73.4863 7.7334C73.8509 7.55566 74.2725 7.4668 74.751 7.4668C75.0837 7.4668 75.389 7.51693 75.667 7.61719C75.945 7.71289 76.1842 7.86556 76.3848 8.0752C76.5898 8.28027 76.7471 8.54915 76.8564 8.88184C76.9658 9.20996 77.0205 9.60417 77.0205 10.0645V15H75.2158V10.249C75.2158 9.90267 75.1657 9.63151 75.0654 9.43555C74.9697 9.23958 74.8307 9.10286 74.6484 9.02539C74.4661 8.94336 74.2474 8.90234 73.9922 8.90234C73.7096 8.90234 73.4658 8.95931 73.2607 9.07324C73.0602 9.18262 72.8939 9.33529 72.7617 9.53125C72.6341 9.72721 72.5384 9.9528 72.4746 10.208C72.4154 10.4632 72.3857 10.7389 72.3857 11.0352ZM76.8838 10.7002L76.1387 10.8369C76.1432 10.3721 76.207 9.93685 76.3301 9.53125C76.4531 9.12109 76.6331 8.76335 76.8701 8.45801C77.1117 8.14811 77.4102 7.90658 77.7656 7.7334C78.1257 7.55566 78.5404 7.4668 79.0098 7.4668C79.3743 7.4668 79.7025 7.51921 79.9941 7.62402C80.2904 7.72428 80.5433 7.88607 80.7529 8.10938C80.9626 8.32812 81.1221 8.61296 81.2314 8.96387C81.3454 9.31478 81.4023 9.74316 81.4023 10.249V15H79.584V10.2422C79.584 9.88216 79.5339 9.60645 79.4336 9.41504C79.3379 9.22363 79.1989 9.09147 79.0166 9.01855C78.8343 8.94108 78.6201 8.90234 78.374 8.90234C78.1234 8.90234 77.9046 8.9502 77.7178 9.0459C77.5355 9.13704 77.3805 9.26465 77.2529 9.42871C77.1299 9.59277 77.0365 9.78418 76.9727 10.0029C76.9134 10.2171 76.8838 10.4495 76.8838 10.7002ZM87.7256 7.60352H89.3662V14.7744C89.3662 15.4443 89.2204 16.0117 88.9287 16.4766C88.6416 16.946 88.2383 17.3014 87.7188 17.543C87.1992 17.7891 86.5954 17.9121 85.9072 17.9121C85.611 17.9121 85.2897 17.8711 84.9434 17.7891C84.6016 17.707 84.2712 17.5771 83.9521 17.3994C83.6377 17.2262 83.3757 17.0007 83.166 16.7227L83.9795 15.6562C84.2256 15.9434 84.5036 16.1598 84.8135 16.3057C85.1234 16.4561 85.4583 16.5312 85.8184 16.5312C86.1829 16.5312 86.4928 16.4629 86.748 16.3262C87.0078 16.194 87.2061 15.998 87.3428 15.7383C87.484 15.4831 87.5547 15.1686 87.5547 14.7949V9.29199L87.7256 7.60352ZM82.7285 11.3906V11.2471C82.7285 10.682 82.7969 10.1693 82.9336 9.70898C83.0703 9.24414 83.2663 8.84538 83.5215 8.5127C83.7812 8.18001 84.0934 7.92253 84.458 7.74023C84.8271 7.55794 85.2419 7.4668 85.7021 7.4668C86.1898 7.4668 86.5999 7.55566 86.9326 7.7334C87.2699 7.91113 87.5479 8.16406 87.7666 8.49219C87.9899 8.82031 88.1631 9.20996 88.2861 9.66113C88.4137 10.1077 88.5117 10.5999 88.5801 11.1377V11.5273C88.5163 12.0514 88.4137 12.5322 88.2725 12.9697C88.1357 13.4072 87.9535 13.79 87.7256 14.1182C87.4977 14.4417 87.2152 14.6924 86.8779 14.8701C86.5407 15.0479 86.1442 15.1367 85.6885 15.1367C85.2327 15.1367 84.8226 15.0433 84.458 14.8564C84.0934 14.6696 83.7812 14.4076 83.5215 14.0703C83.2663 13.7331 83.0703 13.3366 82.9336 12.8809C82.7969 12.4251 82.7285 11.9284 82.7285 11.3906ZM84.5332 11.2471V11.3906C84.5332 11.7096 84.5651 12.0081 84.6289 12.2861C84.6927 12.5641 84.7907 12.8102 84.9229 13.0244C85.055 13.234 85.2214 13.3981 85.4219 13.5166C85.6224 13.6351 85.8617 13.6943 86.1396 13.6943C86.5133 13.6943 86.8187 13.6169 87.0557 13.4619C87.2972 13.3024 87.4795 13.0859 87.6025 12.8125C87.7301 12.5345 87.8122 12.2223 87.8486 11.876V10.8027C87.8258 10.5293 87.7757 10.2764 87.6982 10.0439C87.6253 9.81152 87.5228 9.611 87.3906 9.44238C87.2585 9.27376 87.0898 9.1416 86.8848 9.0459C86.6797 8.9502 86.4359 8.90234 86.1533 8.90234C85.8799 8.90234 85.6406 8.96387 85.4355 9.08691C85.2305 9.2054 85.0618 9.37174 84.9297 9.58594C84.7975 9.80013 84.6973 10.0485 84.6289 10.3311C84.5651 10.6136 84.5332 10.9189 84.5332 11.2471Z" fill="black"/>
<path d="M345.049 2.92705C345.348 2.00574 346.652 2.00574 346.951 2.92705L348.47 7.60081C348.604 8.01284 348.987 8.2918 349.421 8.2918H354.335C355.304 8.2918 355.706 9.53141 354.923 10.1008L350.947 12.9894C350.597 13.244 350.45 13.6954 350.584 14.1074L352.102 18.7812C352.402 19.7025 351.347 20.4686 350.564 19.8992L346.588 17.0106C346.237 16.756 345.763 16.756 345.412 17.0106L341.436 19.8992C340.653 20.4686 339.598 19.7025 339.898 18.7812L341.416 14.1074C341.55 13.6954 341.403 13.244 341.053 12.9894L337.077 10.1008C336.294 9.53141 336.696 8.2918 337.665 8.2918H342.579C343.013 8.2918 343.396 8.01284 343.53 7.60081L345.049 2.92705Z" fill="#D9D9D9"/>
<path d="M364.534 12.4199L363.092 12.0713L363.646 7.04688H369.121V8.54395H365.143L364.883 10.8682C365.024 10.7816 365.229 10.695 365.498 10.6084C365.771 10.5173 366.079 10.4717 366.421 10.4717C366.895 10.4717 367.319 10.5492 367.692 10.7041C368.066 10.8545 368.383 11.0732 368.643 11.3604C368.907 11.6475 369.105 11.9984 369.237 12.4131C369.374 12.8232 369.442 13.2881 369.442 13.8076C369.442 14.2633 369.374 14.6917 369.237 15.0928C369.105 15.4893 368.902 15.8424 368.629 16.1523C368.355 16.4577 368.011 16.6992 367.597 16.877C367.182 17.0501 366.694 17.1367 366.134 17.1367C365.71 17.1367 365.302 17.0752 364.91 16.9521C364.523 16.8245 364.174 16.64 363.864 16.3984C363.554 16.1523 363.306 15.8516 363.119 15.4961C362.937 15.1406 362.837 14.7327 362.818 14.2725H364.603C364.634 14.5778 364.716 14.8376 364.849 15.0518C364.981 15.266 365.154 15.43 365.368 15.5439C365.587 15.6579 365.84 15.7148 366.127 15.7148C366.387 15.7148 366.61 15.667 366.797 15.5713C366.988 15.471 367.146 15.332 367.269 15.1543C367.392 14.9766 367.483 14.7669 367.542 14.5254C367.601 14.2839 367.631 14.0195 367.631 13.7324C367.631 13.4544 367.597 13.2015 367.528 12.9736C367.46 12.7412 367.355 12.5407 367.214 12.3721C367.073 12.2035 366.895 12.0736 366.681 11.9824C366.471 11.8913 366.225 11.8457 365.942 11.8457C365.564 11.8457 365.272 11.9027 365.067 12.0166C364.867 12.1305 364.689 12.265 364.534 12.4199ZM370.912 16.1182C370.912 15.8447 371.006 15.6146 371.192 15.4277C371.379 15.2409 371.632 15.1475 371.951 15.1475C372.27 15.1475 372.523 15.2409 372.71 15.4277C372.897 15.6146 372.99 15.8447 372.99 16.1182C372.99 16.387 372.897 16.6149 372.71 16.8018C372.523 16.984 372.27 17.0752 371.951 17.0752C371.632 17.0752 371.379 16.984 371.192 16.8018C371.006 16.6149 370.912 16.387 370.912 16.1182ZM381.31 11.1689V12.8438C381.31 13.6094 381.232 14.2633 381.077 14.8057C380.922 15.348 380.699 15.7923 380.407 16.1387C380.116 16.4805 379.767 16.7334 379.361 16.8975C378.956 17.057 378.505 17.1367 378.008 17.1367C377.611 17.1367 377.242 17.0866 376.9 16.9863C376.559 16.8815 376.251 16.722 375.978 16.5078C375.709 16.2891 375.476 16.0111 375.28 15.6738C375.089 15.3366 374.941 14.9333 374.836 14.4639C374.736 13.9945 374.686 13.4544 374.686 12.8438V11.1689C374.686 10.4033 374.763 9.75163 374.918 9.21387C375.077 8.67611 375.303 8.23633 375.595 7.89453C375.886 7.55273 376.235 7.30436 376.641 7.14941C377.046 6.98991 377.497 6.91016 377.994 6.91016C378.395 6.91016 378.764 6.96029 379.102 7.06055C379.443 7.16081 379.749 7.31803 380.018 7.53223C380.291 7.74186 380.523 8.0153 380.715 8.35254C380.906 8.68522 381.052 9.08626 381.152 9.55566C381.257 10.0205 381.31 10.5583 381.31 11.1689ZM379.505 13.0898V10.916C379.505 10.5332 379.482 10.2005 379.437 9.91797C379.396 9.63086 379.334 9.38704 379.252 9.18652C379.17 8.986 379.067 8.82422 378.944 8.70117C378.821 8.57357 378.68 8.48014 378.521 8.4209C378.361 8.36165 378.186 8.33203 377.994 8.33203C377.757 8.33203 377.545 8.37988 377.358 8.47559C377.172 8.56673 377.014 8.71257 376.887 8.91309C376.759 9.11361 376.661 9.38021 376.593 9.71289C376.529 10.041 376.497 10.4421 376.497 10.916V13.0898C376.497 13.4727 376.518 13.8076 376.559 14.0947C376.604 14.3818 376.668 14.6279 376.75 14.833C376.837 15.0381 376.939 15.2067 377.058 15.3389C377.181 15.4665 377.322 15.5622 377.481 15.626C377.641 15.6852 377.816 15.7148 378.008 15.7148C378.249 15.7148 378.461 15.667 378.644 15.5713C378.83 15.4756 378.988 15.3252 379.115 15.1201C379.243 14.9105 379.339 14.6393 379.402 14.3066C379.471 13.9694 379.505 13.5638 379.505 13.0898Z" fill="black"/>
</svg>
