<svg width="382" height="24" viewBox="0 0 382 24" fill="none" xmlns="http://www.w3.org/2000/svg">
<path d="M5.22266 5.04688V15H3.34961V5.04688H5.22266ZM8.3125 5.04688V6.53027H0.293945V5.04688H8.3125ZM12.1064 15.1367C11.5459 15.1367 11.0423 15.0456 10.5957 14.8633C10.1491 14.681 9.76855 14.4281 9.4541 14.1045C9.14421 13.7764 8.90495 13.3958 8.73633 12.9629C8.57227 12.5254 8.49023 12.056 8.49023 11.5547V11.2812C8.49023 10.7116 8.57227 10.1943 8.73633 9.72949C8.90039 9.26009 9.13281 8.85677 9.43359 8.51953C9.73438 8.18229 10.0944 7.92253 10.5137 7.74023C10.9329 7.55794 11.3955 7.4668 11.9014 7.4668C12.4255 7.4668 12.888 7.55566 13.2891 7.7334C13.6901 7.90658 14.0251 8.15267 14.2939 8.47168C14.5628 8.79069 14.7656 9.1735 14.9023 9.62012C15.0391 10.0622 15.1074 10.5521 15.1074 11.0898V11.8486H9.31055V10.6045H13.3301V10.4678C13.321 10.1807 13.2663 9.91862 13.166 9.68164C13.0658 9.4401 12.9108 9.2487 12.7012 9.10742C12.4915 8.96159 12.2204 8.88867 11.8877 8.88867C11.6188 8.88867 11.3841 8.94792 11.1836 9.06641C10.9876 9.18034 10.8236 9.3444 10.6914 9.55859C10.5638 9.76823 10.4681 10.0189 10.4043 10.3105C10.3405 10.6022 10.3086 10.9258 10.3086 11.2812V11.5547C10.3086 11.8646 10.3496 12.1517 10.4316 12.416C10.5182 12.6803 10.6436 12.9105 10.8076 13.1064C10.9762 13.2979 11.1768 13.4482 11.4092 13.5576C11.6462 13.6624 11.915 13.7148 12.2158 13.7148C12.5941 13.7148 12.9359 13.6419 13.2412 13.4961C13.5511 13.3457 13.82 13.1247 14.0479 12.833L14.957 13.7764C14.8021 14.0042 14.5924 14.223 14.3281 14.4326C14.0684 14.6423 13.7539 14.8132 13.3848 14.9453C13.0156 15.0729 12.5895 15.1367 12.1064 15.1367ZM19.3525 13.7148C19.6077 13.7148 19.8356 13.6647 20.0361 13.5645C20.2367 13.4642 20.3962 13.3229 20.5146 13.1406C20.6377 12.9583 20.7038 12.7464 20.7129 12.5049H22.415C22.4059 13.0062 22.2646 13.4551 21.9912 13.8516C21.7178 14.248 21.3532 14.5625 20.8975 14.7949C20.4463 15.0228 19.9404 15.1367 19.3799 15.1367C18.8102 15.1367 18.3135 15.041 17.8896 14.8496C17.4658 14.6582 17.1126 14.3916 16.8301 14.0498C16.5521 13.708 16.3424 13.3115 16.2012 12.8604C16.0645 12.4092 15.9961 11.9261 15.9961 11.4111V11.1924C15.9961 10.6774 16.0645 10.1943 16.2012 9.74316C16.3424 9.29199 16.5521 8.89551 16.8301 8.55371C17.1126 8.21191 17.4658 7.94531 17.8896 7.75391C18.3135 7.5625 18.8079 7.4668 19.373 7.4668C19.9701 7.4668 20.4941 7.58301 20.9453 7.81543C21.401 8.04785 21.7565 8.37598 22.0117 8.7998C22.2715 9.22363 22.4059 9.72266 22.415 10.2969H20.7129C20.7038 10.0326 20.6445 9.79557 20.5352 9.58594C20.4258 9.3763 20.2708 9.20768 20.0703 9.08008C19.8698 8.95247 19.626 8.88867 19.3389 8.88867C19.0335 8.88867 18.7783 8.95247 18.5732 9.08008C18.3727 9.20768 18.2155 9.38314 18.1016 9.60645C17.9922 9.8252 17.9147 10.0713 17.8691 10.3447C17.8281 10.6136 17.8076 10.8962 17.8076 11.1924V11.4111C17.8076 11.7119 17.8281 11.999 17.8691 12.2725C17.9147 12.5459 17.9922 12.792 18.1016 13.0107C18.2155 13.2249 18.3727 13.3958 18.5732 13.5234C18.7783 13.651 19.0381 13.7148 19.3525 13.7148ZM25.3887 4.5V15H23.5771V4.5H25.3887ZM25.1016 11.0352H24.5684C24.5684 10.5202 24.6367 10.0462 24.7734 9.61328C24.9102 9.18034 25.1038 8.80436 25.3545 8.48535C25.6051 8.16178 25.9036 7.91113 26.25 7.7334C26.6009 7.55566 26.9883 7.4668 27.4121 7.4668C27.7767 7.4668 28.1071 7.51921 28.4033 7.62402C28.7041 7.72428 28.9616 7.88607 29.1758 8.10938C29.39 8.33268 29.554 8.62435 29.668 8.98438C29.7865 9.33984 29.8457 9.77279 29.8457 10.2832V15H28.0273V10.2695C28.0273 9.92773 27.9772 9.65885 27.877 9.46289C27.7767 9.26237 27.6331 9.11882 27.4463 9.03223C27.264 8.94564 27.0384 8.90234 26.7695 8.90234C26.4779 8.90234 26.2272 8.95931 26.0176 9.07324C25.8079 9.18262 25.6348 9.33529 25.498 9.53125C25.3659 9.72721 25.2656 9.9528 25.1973 10.208C25.1335 10.4632 25.1016 10.7389 25.1016 11.0352Z" fill="black"/>
<path d="M345.049 2.92705C345.348 2.00574 346.652 2.00574 346.951 2.92705L348.47 7.60081C348.604 8.01284 348.987 8.2918 349.421 8.2918H354.335C355.304 8.2918 355.706 9.53141 354.923 10.1008L350.947 12.9894C350.597 13.244 350.45 13.6954 350.584 14.1074L352.102 18.7812C352.402 19.7025 351.347 20.4686 350.564 19.8992L346.588 17.0106C346.237 16.756 345.763 16.756 345.412 17.0106L341.436 19.8992C340.653 20.4686 339.598 19.7025 339.898 18.7812L341.416 14.1074C341.55 13.6954 341.403 13.244 341.053 12.9894L337.077 10.1008C336.294 9.53141 336.696 8.2918 337.665 8.2918H342.579C343.013 8.2918 343.396 8.01284 343.53 7.60081L345.049 2.92705Z" fill="#D9D9D9"/>
<path d="M364.534 12.4199L363.092 12.0713L363.646 7.04688H369.121V8.54395H365.143L364.883 10.8682C365.024 10.7816 365.229 10.695 365.498 10.6084C365.771 10.5173 366.079 10.4717 366.421 10.4717C366.895 10.4717 367.319 10.5492 367.692 10.7041C368.066 10.8545 368.383 11.0732 368.643 11.3604C368.907 11.6475 369.105 11.9984 369.237 12.4131C369.374 12.8232 369.442 13.2881 369.442 13.8076C369.442 14.2633 369.374 14.6917 369.237 15.0928C369.105 15.4893 368.902 15.8424 368.629 16.1523C368.355 16.4577 368.011 16.6992 367.597 16.877C367.182 17.0501 366.694 17.1367 366.134 17.1367C365.71 17.1367 365.302 17.0752 364.91 16.9521C364.523 16.8245 364.174 16.64 363.864 16.3984C363.554 16.1523 363.306 15.8516 363.119 15.4961C362.937 15.1406 362.837 14.7327 362.818 14.2725H364.603C364.634 14.5778 364.716 14.8376 364.849 15.0518C364.981 15.266 365.154 15.43 365.368 15.5439C365.587 15.6579 365.84 15.7148 366.127 15.7148C366.387 15.7148 366.61 15.667 366.797 15.5713C366.988 15.471 367.146 15.332 367.269 15.1543C367.392 14.9766 367.483 14.7669 367.542 14.5254C367.601 14.2839 367.631 14.0195 367.631 13.7324C367.631 13.4544 367.597 13.2015 367.528 12.9736C367.46 12.7412 367.355 12.5407 367.214 12.3721C367.073 12.2035 366.895 12.0736 366.681 11.9824C366.471 11.8913 366.225 11.8457 365.942 11.8457C365.564 11.8457 365.272 11.9027 365.067 12.0166C364.867 12.1305 364.689 12.265 364.534 12.4199ZM370.912 16.1182C370.912 15.8447 371.006 15.6146 371.192 15.4277C371.379 15.2409 371.632 15.1475 371.951 15.1475C372.27 15.1475 372.523 15.2409 372.71 15.4277C372.897 15.6146 372.99 15.8447 372.99 16.1182C372.99 16.387 372.897 16.6149 372.71 16.8018C372.523 16.984 372.27 17.0752 371.951 17.0752C371.632 17.0752 371.379 16.984 371.192 16.8018C371.006 16.6149 370.912 16.387 370.912 16.1182ZM381.31 11.1689V12.8438C381.31 13.6094 381.232 14.2633 381.077 14.8057C380.922 15.348 380.699 15.7923 380.407 16.1387C380.116 16.4805 379.767 16.7334 379.361 16.8975C378.956 17.057 378.505 17.1367 378.008 17.1367C377.611 17.1367 377.242 17.0866 376.9 16.9863C376.559 16.8815 376.251 16.722 375.978 16.5078C375.709 16.2891 375.476 16.0111 375.28 15.6738C375.089 15.3366 374.941 14.9333 374.836 14.4639C374.736 13.9945 374.686 13.4544 374.686 12.8438V11.1689C374.686 10.4033 374.763 9.75163 374.918 9.21387C375.077 8.67611 375.303 8.23633 375.595 7.89453C375.886 7.55273 376.235 7.30436 376.641 7.14941C377.046 6.98991 377.497 6.91016 377.994 6.91016C378.395 6.91016 378.764 6.96029 379.102 7.06055C379.443 7.16081 379.749 7.31803 380.018 7.53223C380.291 7.74186 380.523 8.0153 380.715 8.35254C380.906 8.68522 381.052 9.08626 381.152 9.55566C381.257 10.0205 381.31 10.5583 381.31 11.1689ZM379.505 13.0898V10.916C379.505 10.5332 379.482 10.2005 379.437 9.91797C379.396 9.63086 379.334 9.38704 379.252 9.18652C379.17 8.986 379.067 8.82422 378.944 8.70117C378.821 8.57357 378.68 8.48014 378.521 8.4209C378.361 8.36165 378.186 8.33203 377.994 8.33203C377.757 8.33203 377.545 8.37988 377.358 8.47559C377.172 8.56673 377.014 8.71257 376.887 8.91309C376.759 9.11361 376.661 9.38021 376.593 9.71289C376.529 10.041 376.497 10.4421 376.497 10.916V13.0898C376.497 13.4727 376.518 13.8076 376.559 14.0947C376.604 14.3818 376.668 14.6279 376.75 14.833C376.837 15.0381 376.939 15.2067 377.058 15.3389C377.181 15.4665 377.322 15.5622 377.481 15.626C377.641 15.6852 377.816 15.7148 378.008 15.7148C378.249 15.7148 378.461 15.667 378.644 15.5713C378.83 15.4756 378.988 15.3252 379.115 15.1201C379.243 14.9105 379.339 14.6393 379.402 14.3066C379.471 13.9694 379.505 13.5638 379.505 13.0898Z" fill="black"/>
</svg>
